<svg width="246" height="220" viewBox="0 0 246 220" fill="none" xmlns="http://www.w3.org/2000/svg">
<g filter="url(#filter0_d_0_255)">
<path d="M125.495 27.6702C125.495 27.6702 126.964 23.5019 133.171 24.6371C139.378 25.7723 138.914 30.7378 138.914 30.7378L125.495 27.6702Z" fill="#FFAB05"/>
<path d="M188.564 119.766C188.564 119.766 206.296 131.895 213.862 145.185C221.428 158.475 215.82 172.432 204.599 173.188C198.146 173.718 191.668 172.506 185.843 169.678L188.564 119.766Z" fill="#D37D00"/>
<path d="M213.035 169.235C218.008 164.016 219.152 154.44 213.862 145.185C206.296 131.895 188.564 119.766 188.564 119.766L188.391 122.834C192.753 126.006 205.992 136.213 212.261 147.22C216.926 155.374 216.581 163.782 213.035 169.235Z" fill="#FFAB05"/>
<path d="M47.4033 81.821C46.5234 85.1048 43.1349 87.2427 36.5305 90.8742C27.7559 95.684 15.6538 98.8171 13.2282 118.378C13.2282 118.378 17.9226 113.084 22.5483 112.441C22.5483 112.441 10.0365 125.035 20.0136 139.431C20.9221 135.394 22.5822 131.564 24.9072 128.14C24.9072 128.14 18.0679 149.32 46.948 159.603L134.536 187.066C134.536 187.066 164.345 198.329 178.278 173.459C177.712 176.518 176.756 179.492 175.433 182.308C175.433 182.308 192.506 176.337 189.762 153.334C189.762 153.334 192.765 157.889 193.058 161.243C195.039 157.846 196.247 154.053 196.594 150.136C196.942 146.219 196.421 142.273 195.069 138.58C190.385 126.306 188.351 126.925 189.77 117.234C191.189 107.543 187.342 60.0128 131.246 50.6133C75.1508 41.2138 47.4033 81.821 47.4033 81.821Z" fill="#BE5000"/>
<g style="mix-blend-mode:multiply" opacity="0.5">
<path d="M193.062 161.176C195.043 157.779 196.251 153.987 196.599 150.069C196.946 146.152 196.426 142.206 195.074 138.513C191.012 127.855 188.938 126.906 189.395 120.504C188.227 124.861 187.763 129.272 189.465 133.68C192.016 140.374 195.763 146.197 194.01 153.647C193.804 154.417 192.726 154.196 192.703 153.472C192.412 149.509 190.763 144.749 187.242 142.533C191.325 153.563 187.933 166.124 180.987 175.322C180.897 175.444 180.769 175.532 180.623 175.572C180.477 175.613 180.322 175.603 180.182 175.546C180.042 175.488 179.925 175.385 179.85 175.254C179.775 175.122 179.747 174.969 179.768 174.819C180.557 171.987 180.954 169.06 180.949 166.12C176.25 173.552 169.362 178.041 161.46 182.016C161.317 182.103 161.147 182.134 160.982 182.103C160.817 182.073 160.669 181.982 160.567 181.849C160.465 181.716 160.416 181.549 160.429 181.382C160.442 181.215 160.516 181.058 160.638 180.943C166.019 175.726 169.973 169.216 172.121 162.036C172.163 161.906 172.242 161.791 172.35 161.707C172.457 161.622 172.586 161.571 172.722 161.56C172.858 161.548 172.995 161.577 173.114 161.643C173.234 161.709 173.331 161.809 173.394 161.93C179.4 160.683 183.564 153.731 183.847 147.878C184.043 143.761 183.436 135.165 177.713 135.405C177.608 135.406 177.505 135.383 177.41 135.337C177.316 135.292 177.233 135.225 177.169 135.142C177.105 135.059 177.06 134.963 177.039 134.86C177.019 134.757 177.022 134.651 177.049 134.55C178.173 129.748 179.909 125.137 180.484 120.214C180.703 117.727 181.085 115.256 181.626 112.818C178.401 110.911 175.564 107.958 172.465 105.937C167.173 102.314 161.569 99.1726 155.717 96.5489C144.171 91.6954 131.544 88.5555 119.277 86.0401C107.385 83.8024 95.3598 82.3393 83.2781 81.6601C74.1041 80.9888 64.6452 80.4713 55.6346 82.5241C53.546 89.4096 50.2871 95.9139 47.2564 102.425C46.9929 103.004 46.1753 102.772 46.0159 102.255C44.0479 96.3133 35.0209 100.852 32.9037 104.157C30.2286 108.381 27.9422 115.146 29.6764 120.091C30.9321 123.69 34.4387 125.658 32.894 129.806C31.0633 134.496 30.3716 139.553 30.876 144.562C30.9375 145.242 30.1204 145.361 29.7038 145.047C23.4928 140.188 24.6836 131.248 26.1324 124.123C23.9773 126.659 22.7373 129.67 21.0509 132.63C20.9749 132.756 20.8597 132.855 20.7227 132.91C20.5858 132.966 20.4345 132.975 20.2917 132.937C20.149 132.899 20.0226 132.815 19.9317 132.698C19.8408 132.582 19.7903 132.439 19.7879 132.291C19.8051 123.538 21.2314 115.486 26.7025 108.708C23.1945 109.691 19.95 111.444 17.2057 113.839C17.1073 113.974 16.9627 114.068 16.7996 114.103C16.6364 114.138 16.4659 114.112 16.3208 114.03C16.1756 113.947 16.0658 113.814 16.0123 113.656C15.9588 113.498 15.9653 113.326 16.0306 113.172C18.1575 106.454 22.1576 100.481 27.5609 95.9567C28.1494 95.4781 28.7344 95.0122 29.2943 94.5395C22.2011 98.3785 15.0269 103.834 13.2281 118.378C13.2281 118.378 17.9225 113.084 22.5482 112.441C22.5482 112.441 10.0363 125.035 20.0135 139.431C20.922 135.394 22.5821 131.564 24.9071 128.14C24.9071 128.14 18.0678 149.32 46.9479 159.603L134.536 187.066C134.536 187.066 164.345 198.329 178.278 173.459C177.712 176.518 176.756 179.492 175.433 182.308C175.433 182.308 192.506 176.337 189.762 153.334C189.779 153.271 192.782 157.825 193.062 161.176Z" fill="#9F3900"/>
</g>
<path d="M47.2105 109.872C47.2105 109.872 46.1935 104.523 43.7521 103.53C41.3107 102.538 34.8685 103.695 32.138 110.652C29.4074 117.609 32.4869 123.849 35.9503 125.928C39.4138 128.006 42.3971 123.743 42.3971 123.743L47.2105 109.872Z" fill="#EFCAA6"/>
<path d="M40.2187 111.261C37.2661 108.791 34.9946 112.974 33.8752 115.788C33.838 115.927 33.9861 115.98 34.0646 115.838C34.7826 114.826 35.4544 113.734 36.238 112.779C37.5506 111.114 39.1633 111.966 39.9206 113.333C40.2058 113.86 40.4192 114.422 40.5553 115.006C39.7326 115.093 38.9649 115.461 38.381 116.047C37.5877 116.802 36.9572 117.711 36.5282 118.719C36.508 118.747 36.4999 118.783 36.5059 118.817C36.5119 118.852 36.5313 118.883 36.56 118.903C36.5887 118.923 36.6242 118.931 36.6588 118.925C36.6934 118.919 36.7242 118.9 36.7445 118.871C37.3702 118.254 37.9463 117.569 38.5997 116.999C39.2138 116.502 39.9793 116.23 40.7695 116.227C40.8424 118.024 40.8122 119.824 40.6788 121.618C40.6609 121.685 40.6703 121.756 40.7049 121.816C40.7396 121.876 40.7967 121.92 40.8637 121.938C40.9307 121.956 41.0021 121.946 41.0622 121.912C41.1222 121.877 41.1661 121.82 41.184 121.753C42.4018 118.37 42.9272 113.529 40.2187 111.261Z" fill="#C39368"/>
<path d="M169.988 140.996C169.988 140.996 174.208 137.673 176.972 138.373C179.735 139.073 184.699 143.787 182.8 150.521C182.019 153.259 180.315 155.644 177.978 157.27C175.64 158.896 172.812 159.664 169.972 159.443C165.624 158.9 165.649 154.007 165.649 154.007L169.988 140.996Z" fill="#EFCAA6"/>
<path d="M175.286 146.179C179.366 146.108 178.809 150.562 178.066 153.286C178.032 153.413 177.858 153.353 177.851 153.229C177.851 152.065 177.932 150.855 177.853 149.683C177.725 147.686 175.771 147.352 174.267 147.91C173.704 148.119 173.172 148.404 172.686 148.759C173.328 149.282 173.773 150.007 173.949 150.816C174.185 151.826 174.177 152.877 173.926 153.883C173.885 154.034 173.667 153.989 173.661 153.812C173.487 152.994 173.403 152.145 173.189 151.33C172.92 150.572 172.417 149.92 171.751 149.469C170.584 150.722 169.493 152.043 168.485 153.427C168.444 153.476 168.387 153.511 168.324 153.525C168.261 153.539 168.195 153.531 168.137 153.503C168.079 153.475 168.032 153.428 168.004 153.37C167.976 153.312 167.968 153.246 167.981 153.183C168.956 150.101 171.498 146.22 175.286 146.179Z" fill="#C39368"/>
<path d="M54.0096 84.2951C51.7003 93.857 48.7318 103.248 45.1254 112.399C40.0905 124.167 25.8242 149.422 55.9639 173.444C86.1035 197.466 132.544 200.312 155.987 176.326C161.802 170.384 170.638 154.938 171.957 141.226C173.163 131.151 175.206 121.194 178.065 111.458C178.421 110.131 143.4 88.5645 99.816 86.7276C56.2324 84.8906 54.0096 84.2951 54.0096 84.2951Z" fill="#F4D9BF"/>
<path d="M181.374 107.647C180.749 95.9866 145.002 81.7246 124.099 77.2878C103.196 72.8509 55.6989 68.341 53.224 81.9727C53.224 81.9727 50.9708 95.4337 51.2192 102.539C51.2192 102.539 62.3305 89.1101 77.1247 90.7323C73.3408 92.554 69.9997 95.1788 67.3342 98.424L107.527 96.2931C107.527 96.2931 102.05 98.3451 99.642 101.219C99.642 101.219 126.806 105.682 142.46 102.377C142.46 102.377 138.408 105.272 136.685 106.448C136.685 106.448 146.991 107.341 154.887 105.003C154.887 105.003 152.435 110.668 163.591 123.038C164.986 119.907 165.739 116.528 165.807 113.1C165.807 113.1 170.082 126.903 174.943 131.495C174.985 131.492 182.003 119.295 181.374 107.647Z" fill="#BE5000"/>
<path d="M135.837 28.6818C114.189 22.8812 53.5182 27.7283 43.8594 85.8528C43.8594 85.8528 125.99 78.566 191.609 122.396C191.609 122.396 216.328 50.2492 135.837 28.6818ZM146.82 92.4724C123.191 83.5556 92.9853 81.2016 92.9853 81.2016C92.9853 81.2016 99.0735 52.8218 125.414 57.7815C155.068 63.3583 146.82 92.4724 146.82 92.4724Z" fill="#FFAB05"/>
<path d="M80.1301 56.8831C84.5573 47.4836 90.9172 39.157 99.9805 33.7748C105.379 30.7256 111.159 28.4051 117.167 26.8736C90.2943 27.538 51.5126 40.4162 43.9224 85.8695C52.8701 85.2758 61.8458 85.235 70.7985 85.7475C72.8351 75.8114 75.9647 66.131 80.1301 56.8831Z" fill="#687100"/>
<path d="M147.235 32.3179C151.822 35.4646 155.9 39.2963 159.325 43.6794C165.562 51.5233 168.429 61.3342 169.821 71.1424C171.408 82.397 170.403 94.2297 168.547 105.401C168.353 106.581 168.143 107.77 167.923 108.943C176.127 112.858 184.043 117.349 191.612 122.384C191.612 122.384 213.88 57.3634 147.235 32.3179Z" fill="#687100"/>
<path d="M114.635 83.3069C114.635 83.3069 122.604 82.4641 127.393 86.2112L125.954 93.5549C125.954 93.5549 120.249 95.1939 113.356 90.7073L114.635 83.3069Z" fill="#FFDE05"/>
<g style="mix-blend-mode:screen" opacity="0.3">
<path d="M72.2438 45.0915C82.0117 50.3394 92.1349 54.8974 102.539 58.7321C104.115 59.3168 105.701 59.8637 107.271 60.4198C111.858 57.7503 117.835 56.3601 125.464 57.7952C136.521 59.8779 142.302 65.2307 145.183 71.2007C153.3 72.8771 161.509 74.0733 169.767 74.7829C177.153 75.4083 184.589 75.8442 192.031 76.1597C186.303 57.5277 171.263 38.2284 135.824 28.7324C121.628 24.9285 90.6866 25.7211 68.3406 43.1387L72.2438 45.0915Z" fill="#FCFF93"/>
</g>
<path d="M126.417 139.515C125.292 144.019 122.965 147.348 121.325 147.003C119.684 146.658 119.148 142.697 120.274 138.193C121.399 133.69 123.726 130.36 125.363 130.718C127 131.075 127.527 135.02 126.417 139.515Z" fill="#3D1A0B"/>
<path d="M123.744 135.347C123.382 136.698 122.56 137.642 122.062 137.482C121.563 137.321 121.508 136.115 121.943 134.742C122.378 133.37 123.139 132.45 123.638 132.611C124.136 132.772 124.182 134.016 123.744 135.347Z" fill="white"/>
<path d="M83.1033 128.437C81.6561 132.828 79.1162 135.992 77.4592 135.507C75.8022 135.022 75.6251 131.036 77.1262 126.646C78.6273 122.256 81.1167 119.079 82.7829 119.579C84.4492 120.08 84.5792 124.04 83.1033 128.437Z" fill="#3D1A0B"/>
<path d="M80.7821 124.065C80.2432 125.369 79.4226 126.259 78.8964 126.051C78.3702 125.842 78.4475 124.644 78.9796 123.366C79.5118 122.087 80.3392 121.172 80.8653 121.38C81.3915 121.589 81.3176 122.774 80.7821 124.065Z" fill="white"/>
<path d="M66.7656 139.193C65.6467 141.601 59.9519 141.131 54.0089 138.253C48.0659 135.374 44.1764 131.097 45.2725 128.724C46.3686 126.351 52.1023 126.777 58.0292 129.665C63.9562 132.552 67.8491 136.817 66.7656 139.193Z" fill="#F9CBC0"/>
<path d="M153.169 163.55C152.606 166.106 146.94 166.943 140.486 165.417C134.032 163.891 129.307 160.608 129.87 158.051C130.434 155.495 136.09 154.642 142.557 156.172C149.024 157.701 153.733 160.993 153.169 163.55Z" fill="#F9CBC0"/>
<path d="M88.8379 150.685C88.7916 149.966 89.013 149.256 89.4594 148.69C89.9058 148.125 90.5455 147.745 91.2555 147.623C92.6776 147.488 94.1105 147.725 95.4132 148.311C96.7158 148.898 97.8433 149.813 98.6845 150.968C98.7433 150.918 98.7854 150.851 98.8054 150.777C98.8253 150.702 98.8221 150.624 98.7962 150.551C97.8583 148.998 96.5113 147.733 94.9025 146.895C95.8955 145.564 95.6098 144.255 95.1063 142.699C95.0283 142.435 94.2194 141.311 94.2266 141.638C94.2716 142.733 94.0472 145.136 93.0038 145.696C92.8635 145.781 92.7384 145.89 92.6337 146.016C91.4683 145.718 90.2333 145.87 89.1756 146.443C85.9728 148.293 87.8094 153.563 90.5552 154.935C90.5737 154.952 90.596 154.964 90.6202 154.971C90.6443 154.977 90.6697 154.978 90.6941 154.972C89.5588 153.827 88.8961 152.296 88.8379 150.685Z" fill="#C39368"/>
<path d="M142.143 130.084C143.09 123.569 140.732 113.272 132.723 112.344C126.237 111.594 119.163 116.928 117.444 123.141C117.41 123.258 117.418 123.383 117.467 123.495C117.516 123.607 117.602 123.699 117.711 123.753C117.82 123.808 117.945 123.823 118.064 123.796C118.183 123.769 118.289 123.7 118.363 123.603C121.381 119.16 124.623 116.103 130.285 116.036C137.512 115.942 138.119 124.538 138.076 129.752C138.032 130.291 138.204 130.826 138.554 131.238C138.905 131.651 139.404 131.907 139.944 131.951C140.483 131.995 141.018 131.823 141.43 131.473C141.843 131.123 142.099 130.623 142.143 130.084Z" fill="#853800"/>
<path d="M96.8389 115.873C95.9384 117.365 93.7653 120.221 93.7075 116.496C93.7052 113.78 93.4191 111.072 92.8538 108.416C91.8938 103.252 89.3216 98.5249 85.5069 94.9141C79.4331 89.4422 70.9353 100.039 67.7542 104.181C67.7339 104.257 67.8097 104.278 67.8552 104.209C72.5218 99.6246 79.5225 92.7962 85.3632 99.4917C89.4393 104.185 89.7499 111.361 91.6812 117.036C93.3254 121.863 95.4204 119.5 97.3829 115.965C97.4355 115.668 96.9596 115.675 96.8389 115.873Z" fill="#853800"/>
<path d="M101.719 113.526C101.749 113.412 101.529 113.475 101.505 113.563C100.825 115.073 99.9037 116.463 98.7784 117.679C98.0723 118.545 96.5963 119.558 96.5949 120.776C96.5903 120.858 96.6056 120.94 96.6397 121.015C96.6737 121.09 96.7254 121.156 96.7903 121.206C96.8552 121.257 96.9314 121.291 97.0124 121.306C97.0934 121.321 97.1768 121.316 97.2554 121.291C98.8207 121.007 99.5259 119.436 100.22 118.16C101.144 116.786 101.664 115.18 101.719 113.526Z" fill="#853800"/>
<path d="M66.7364 170.726C66.4321 170.856 66.1678 171.065 65.9705 171.331C65.7732 171.597 65.65 171.91 65.6136 172.239C64.9796 174.605 66.3045 175.976 69.5884 176.35C71.5964 176.079 73.56 175.544 75.4289 174.761C77.2323 173.964 79.1861 173.564 81.1577 173.589C87.9128 174.194 93.2461 178.439 99.0557 181.511C104.689 184.483 112.675 187.719 117.912 182.219C122.472 177.43 125.364 170.07 123.238 163.557C121.735 161.083 118.696 159.944 113.442 161.569C103.351 164.672 94.0757 169.28 83.5092 170.875C80.4222 171.301 77.2966 171.372 74.1935 171.086C72.9584 171.002 71.7286 170.853 70.5091 170.641C69.2616 170.379 67.9707 170.409 66.7364 170.726Z" fill="#C39368"/>
<path d="M117.365 183.25C112.945 188.279 104.819 183.949 100.624 181.62C95.4935 178.689 90.5498 174.86 84.6384 173.682C82.9793 173.352 81.2764 173.303 79.601 173.537C77.7588 173.811 75.9489 174.269 74.1987 174.905C73.277 175.397 72.3151 175.81 71.3234 176.138C68.9629 176.562 65.5541 175.946 65.6126 172.848C65.6581 170.708 68.4902 171.102 69.9345 171.218C70.8879 171.297 71.8369 171.443 72.7952 171.605C74.8991 171.846 77.0206 171.893 79.1331 171.747C83.2906 171.566 87.4155 170.928 91.4334 169.845C95.7842 168.763 104.896 164.26 112.229 162.963C114.902 162.082 117.648 161.532 120.311 163.112C121.293 163.714 122.005 164.671 122.302 165.784C123.147 167.587 123.45 169.596 123.176 171.568C122.763 175.938 120.185 180.053 117.365 183.25Z" fill="white"/>
<path d="M117.504 175.964C118.142 176.459 118.676 177.075 119.075 177.776C119.475 178.478 119.732 179.252 119.833 180.053C121.051 178.301 121.985 176.367 122.6 174.324C121.013 175.172 119.287 175.727 117.504 175.964Z" fill="#930323"/>
<path d="M122.633 173.642C117.017 179.447 101.288 172.471 94.5841 172.232C90.8976 172.097 87.3092 172.354 83.6848 172.492C78.7531 172.66 71.1361 175.019 66.9515 171.691C66.9515 171.691 66.8505 171.664 66.9312 171.767C69.6355 174.102 73.4736 173.52 76.8386 173.338C83.4678 172.887 90.118 172.834 96.7535 173.179C101.972 173.507 111.17 177.827 117.802 176.869L118.11 177.033C118.311 177.171 118.477 177.354 118.596 177.567C118.715 177.779 118.784 178.016 118.797 178.259C118.864 178.616 118.922 178.956 118.964 179.306C119.146 179.525 119.294 179.77 119.405 180.033C119.482 179.729 119.52 179.416 119.519 179.103C119.473 178.752 119.398 178.406 119.295 178.068C119.182 177.686 118.971 177.341 118.684 177.065C118.554 176.958 118.408 176.873 118.251 176.813C119.831 176.561 121.303 175.849 122.481 174.766C122.538 174.624 122.578 174.475 122.6 174.324C122.624 174.098 122.635 173.87 122.633 173.642Z" fill="#BDBCBC"/>
</g>
<defs>
<filter id="filter0_d_0_255" x="9.22809" y="24.4412" width="212.104" height="176.511" filterUnits="userSpaceOnUse" color-interpolation-filters="sRGB">
<feFlood flood-opacity="0" result="BackgroundImageFix"/>
<feColorMatrix in="SourceAlpha" type="matrix" values="0 0 0 0 0 0 0 0 0 0 0 0 0 0 0 0 0 0 127 0" result="hardAlpha"/>
<feOffset dy="4"/>
<feGaussianBlur stdDeviation="2"/>
<feComposite in2="hardAlpha" operator="out"/>
<feColorMatrix type="matrix" values="0 0 0 0 0 0 0 0 0 0 0 0 0 0 0 0 0 0 0.25 0"/>
<feBlend mode="normal" in2="BackgroundImageFix" result="effect1_dropShadow_0_255"/>
<feBlend mode="normal" in="SourceGraphic" in2="effect1_dropShadow_0_255" result="shape"/>
</filter>
</defs>
</svg>
