<svg width="338" height="338" viewBox="0 0 338 338" fill="none" xmlns="http://www.w3.org/2000/svg">
<g filter="url(#filter0_d_0_438)">
<mask id="mask0_0_438" style="mask-type:luminance" maskUnits="userSpaceOnUse" x="18" y="18" width="294" height="294">
<path d="M312 18H18V312H312V18Z" fill="white"/>
</mask>
<g mask="url(#mask0_0_438)">
<path d="M312 18.0001H18.0001V312H312V18.0001Z" fill="#F7E37C"/>
<g opacity="0.2">
<path d="M70.5461 234.17L70.4214 234.046L69.6196 233.19L69.3523 232.905L68.3367 231.836L67.6952 231.159L66.5549 229.947L65.8065 229.163L59.9265 222.998C59.7305 222.785 59.5523 222.589 59.3385 222.393L57.0756 220.005L56.256 219.15L53.708 216.584L53.12 215.978C47.7745 210.49 41.7163 204.111 35.0167 197.233L34.5178 196.717L30.7403 192.85L30.1167 192.209C23.132 185.081 15.684 177.509 8.12906 169.936L7.71925 169.526L3.51415 165.339L2.80142 164.626L-1.42149 160.314L-1.58185 160.154C-7.58658 154.22 -13.5557 148.394 -19.4 142.87L-20.2375 142.068L-23.8011 138.611L-24.8702 137.596L-28.4339 134.299L-29.4139 133.391C-33.316 129.827 -37.0757 126.263 -40.6037 123.181C-46.7915 117.427 -53.338 112.07 -60.2037 107.145C-60.2037 107.145 47.8102 151.69 164.181 278.021L73.201 265.049C73.201 265.049 184.547 382.115 240.692 481.166C240.692 481.166 47.3469 279.108 -32.0331 216.655L71.3123 234.937L70.5461 234.17Z" fill="#E6A839"/>
<path d="M162.506 140.055V139.966L161.704 139.128L161.437 138.825L160.403 137.756L159.78 137.097C159.423 136.705 159.049 136.313 158.621 135.885C158.194 135.458 158.14 135.351 157.891 135.101L152.011 128.918L151.423 128.313L149.16 125.943L148.34 125.087C147.521 124.214 146.665 123.306 145.774 122.415L145.204 121.809C139.859 116.321 133.801 109.96 127.101 103.082L126.602 102.565L122.825 98.6809L122.201 98.0394C115.198 90.9122 107.768 83.3394 100.213 75.7667L99.8035 75.3747C98.3959 73.9671 97.0061 72.5594 95.5984 71.1696L94.7966 70.4747L90.5381 66.2696L90.3777 66.1093C84.373 60.1758 78.4217 54.3493 72.5595 48.8256L71.7221 48.0238C70.5342 46.8359 69.3463 45.648 68.1584 44.4602L67.0715 43.4445L63.6326 40.1838L62.7239 39.2929C58.8039 35.7293 55.0621 32.1656 51.5341 29.0653C45.3489 23.3409 38.802 18.0201 31.9341 13.1358C31.9341 13.1358 139.948 57.6813 256.318 183.994L165.446 170.951C165.446 170.951 276.792 287.999 332.937 387.068C332.937 387.068 139.592 185.01 60.2115 122.539L163.557 140.839L162.506 140.055Z" fill="#E6A839"/>
<path d="M254.572 45.9567L254.448 45.8142L253.646 44.9767C253.557 44.9767 253.468 44.7807 253.361 44.6916L252.345 43.6047L251.721 42.9455L250.563 41.7338C250.332 41.4844 250.064 41.2171 249.833 40.9498L243.953 34.8382L243.365 34.2146L241.084 31.8447L240.282 30.9895L237.716 28.3167L237.146 27.7287C231.801 22.2407 225.725 15.8618 219.043 8.98401L218.526 8.46728C217.297 7.18437 216.032 5.90146 214.749 4.60073L214.125 3.95927C207.14 -3.168 199.692 -10.7585 192.137 -18.3135L191.745 -18.7233C190.338 -20.1131 188.93 -21.5207 187.54 -22.9284L186.828 -23.6233L182.569 -27.8462L182.409 -28.0065C176.404 -33.94 170.435 -39.7665 164.68 -45.2902L163.842 -46.092L160.279 -49.5487L159.12 -50.6891C157.944 -51.7938 156.786 -52.8985 155.557 -53.9676L154.595 -54.8764C150.675 -58.44 146.933 -62.0036 143.405 -65.0862C137.219 -70.8153 130.672 -76.1419 123.805 -81.0334C123.805 -81.0334 231.819 -36.4345 348.189 89.8785L257.227 76.8356C257.227 76.8356 368.573 193.901 424.718 292.952C424.718 292.952 231.373 90.8942 151.993 28.4236L255.339 46.7229L254.572 45.9567Z" fill="#E6A839"/>
</g>
<path d="M227.988 88.4531C222.963 88.9342 221.413 93.6203 221.056 97.772C202.846 80.8982 167.94 76.1585 132.767 87.9542C97.5943 99.7498 72.7022 124.392 68.2299 148.768C65.4324 145.721 61.4412 143.048 57.2183 145.649C49.3248 150.514 49.5564 172.003 60.5859 178.453C66.0515 181.476 72.1605 183.15 78.4041 183.335C95.9372 201.848 132.197 207.425 168.742 195.184C205.287 182.943 230.821 156.697 233.725 131.395C238.649 127.469 242.554 122.414 245.111 116.659C249.975 104.864 237.2 87.58 227.988 88.4531Z" fill="#E6A839"/>
<g style="mix-blend-mode:multiply" opacity="0.35">
<path d="M227.988 88.4529C222.963 88.934 221.413 93.6202 221.056 97.7718C219.773 101.003 219.276 104.493 219.608 107.953C219.939 111.414 221.089 114.746 222.963 117.675C220.259 117.325 217.685 116.302 215.479 114.699C219.667 151.69 193.367 189.304 143.102 191.905C105.684 193.847 88.4535 174.96 80.9521 162.202C80.2663 163.116 79.4837 163.952 78.6179 164.697C78.1928 161.432 77.0383 158.305 75.24 155.548C73.4418 152.79 71.0458 150.473 68.2299 148.767C65.4324 145.721 61.4412 143.048 57.2183 145.649C49.3248 150.514 49.5564 172.002 60.5859 178.453C66.0515 181.476 72.1605 183.15 78.4041 183.335C95.9372 201.848 132.197 207.425 168.742 195.184C205.287 182.943 230.821 156.697 233.725 131.395C238.649 127.469 242.554 122.414 245.111 116.659C249.975 104.863 237.2 87.5798 227.988 88.4529Z" fill="#E6A839"/>
</g>
<path d="M221.056 97.7722C215.8 90.2977 208.954 84.079 201.011 79.562C207.105 76.8715 218.829 69.8689 199.674 61.7438C188.039 56.8616 175.495 59.0533 165.517 62.7417C166.212 57.9486 162.345 54.0286 149.623 54.8304C136.527 55.6678 126.459 63.2584 119.528 70.7242C116.392 64.9333 107.626 62.8486 89.3264 77.994C57.5565 104.329 68.2296 148.768 68.2296 148.768C71.0456 150.473 73.4415 152.791 75.2398 155.548C77.0381 158.306 78.1925 161.433 78.6176 164.697C78.6176 164.697 92.8722 153.383 79.1344 134.086C79.1344 134.086 121.292 134.389 165.766 96.9526C171.785 101.252 178.728 104.078 186.038 105.205C193.347 106.331 200.82 105.726 207.853 103.438C211.933 116.98 222.981 117.693 222.981 117.693C221.101 114.764 219.946 111.429 219.612 107.965C219.277 104.501 219.772 101.007 221.056 97.7722Z" fill="#995D1D"/>
<g style="mix-blend-mode:multiply" opacity="0.35">
<path d="M187.451 81.4861C194.169 78.8312 202.793 72.3988 189.411 67.7661C179.504 64.3272 166.942 67.6592 158.051 71.1159C158.55 66.3941 154.986 62.5097 143.672 64.6835C131.858 66.9643 122.29 75.2675 116.428 81.6643C114.397 75.321 105.149 70.6526 87.6692 89.4864C69.2631 109.3 70.9558 140.304 72.3991 152.064C75.7709 155.501 77.9506 159.929 78.6176 164.697C78.6176 164.697 92.8722 153.382 79.1343 134.085C79.1343 134.085 121.292 134.388 165.766 96.9523C171.784 101.252 178.728 104.078 186.038 105.205C193.347 106.331 200.82 105.726 207.853 103.438C211.933 116.98 222.981 117.693 222.981 117.693C221.138 114.683 219.999 111.297 219.649 107.786C211.172 96.5721 200.131 87.5536 187.451 81.4861Z" fill="#995D1D"/>
</g>
<path d="M107.02 151.797C106.638 148.305 107.077 144.772 108.303 141.48C108.935 139.737 109.844 138.107 110.993 136.651C112.266 135.072 113.922 133.845 115.804 133.088C117.776 132.329 119.93 132.18 121.987 132.66C123.838 133.125 125.589 133.922 127.154 135.012C130.016 137.055 132.36 139.74 133.997 142.852C130.95 141.231 128.152 139.485 125.301 138.309C123.98 137.762 122.598 137.373 121.185 137.15C119.982 136.992 118.758 137.132 117.622 137.56C115.13 138.814 113.079 140.796 111.742 143.244C110.019 146.01 108.443 148.865 107.02 151.797Z" fill="#995D1D"/>
<path d="M191.924 123.359C189.026 121.841 186.053 120.473 183.015 119.261C180.472 118.126 177.649 117.778 174.907 118.263C173.72 118.609 172.64 119.253 171.771 120.134C170.761 121.151 169.887 122.295 169.17 123.537C167.602 126.174 166.426 129.257 164.965 132.446C164.406 128.972 164.662 125.416 165.713 122.058C166.299 120.247 167.217 118.561 168.421 117.087C169.765 115.457 171.574 114.276 173.607 113.701C175.586 113.175 177.668 113.175 179.647 113.701C181.441 114.172 183.149 114.924 184.707 115.929C187.659 117.809 190.131 120.353 191.924 123.359Z" fill="#995D1D"/>
<path d="M96.5784 163.414C96.5784 163.414 146.309 173.82 207.051 126.37C206.491 137.666 202.752 148.575 196.265 157.84C189.777 167.104 180.805 174.348 170.381 178.738C133.694 194.863 109.8 177.615 96.5784 163.414Z" fill="#513A59"/>
<path d="M107.466 164.358C115.412 170.684 135.975 170.434 158.016 163.058C181.179 155.271 198.32 142.193 199.407 132.125C158.942 160.973 124.322 164.679 107.466 164.358Z" fill="white"/>
<path d="M139.52 185.17C150.19 185.446 160.778 183.244 170.453 178.738C175.98 176.348 181.145 173.193 185.794 169.365C179.059 164.448 168.992 163.004 159.067 166.319C149.142 169.633 141.819 177.063 139.52 185.17Z" fill="#E6605C"/>
<g style="mix-blend-mode:multiply" opacity="0.45">
<path d="M170.453 178.738C175.98 176.348 181.145 173.193 185.794 169.365C183.975 168.048 181.977 166.998 179.861 166.247C168.474 173.011 155.757 177.23 142.585 178.613C141.236 180.63 140.202 182.841 139.52 185.17C150.19 185.446 160.778 183.245 170.453 178.738Z" fill="#E6605C"/>
</g>
<path d="M122.611 117.782C121.239 115.697 115.733 116.873 110.298 120.419C104.864 123.965 101.585 128.544 102.957 130.629C104.329 132.713 109.835 131.537 115.27 127.992C120.704 124.446 123.983 119.884 122.611 117.782Z" fill="#995D1D"/>
<g style="mix-blend-mode:multiply" opacity="0.35">
<path d="M121.399 116.945C119.692 120.077 117.167 122.688 114.094 124.499C109.71 127.368 105.184 128.687 102.993 128.063C102.78 128.473 102.669 128.929 102.669 129.391C102.669 129.853 102.78 130.308 102.993 130.718C104.365 132.821 109.871 131.627 115.305 128.081C120.74 124.535 124.018 119.974 122.646 117.871C122.359 117.419 121.915 117.089 121.399 116.945Z" fill="#995D1D"/>
</g>
<path d="M170.328 100.302C163.86 100.748 158.764 103.117 158.924 105.648C159.085 108.178 164.466 109.817 170.934 109.389C177.402 108.962 182.516 106.574 182.355 104.044C182.195 101.514 176.76 99.8744 170.328 100.302Z" fill="#995D1D"/>
<g style="mix-blend-mode:multiply" opacity="0.35">
<path d="M169.775 105.843C166.229 106.266 162.636 105.705 159.387 104.222C159.067 104.612 158.902 105.107 158.924 105.612C159.084 108.106 164.465 109.781 170.933 109.354C177.401 108.926 182.515 106.538 182.355 104.008C182.271 103.552 182.078 103.122 181.793 102.756C181.507 102.39 181.138 102.099 180.716 101.906C179.344 103.866 174.978 105.487 169.775 105.843Z" fill="#995D1D"/>
</g>
<path d="M141.355 147.877C141.424 146.081 142.047 144.351 143.137 142.923C144.445 141.167 146.262 139.854 148.34 139.164C149.426 138.804 150.564 138.623 151.708 138.629C151.975 138.611 152.243 138.611 152.51 138.629C152.771 138.611 153.033 138.611 153.294 138.629L154.042 138.772L154.755 138.968C156.479 139.465 158.037 140.419 159.263 141.729C157.374 141.426 155.699 141.052 153.917 140.928C152.299 140.769 150.665 140.926 149.106 141.391C147.577 141.933 146.172 142.775 144.972 143.868C143.666 145.109 142.456 146.449 141.355 147.877Z" fill="#995D1D"/>
<path d="M71.8644 164.626C70.8266 161.338 68.9324 158.386 66.3764 156.073C65.6683 155.459 64.8763 154.949 64.0244 154.558C63.055 154.115 61.9836 153.943 60.924 154.059C59.8268 154.206 58.8168 154.736 58.0731 155.556C57.7109 155.91 57.3991 156.311 57.1466 156.75C56.9191 157.185 56.7283 157.638 56.5764 158.104C56.1468 159.871 56.2208 161.723 56.7902 163.45C57.278 165.033 58.0116 166.53 58.964 167.886C58.5932 166.341 58.3488 164.768 58.2335 163.182C58.0949 161.751 58.2838 160.307 58.7859 158.959C59.04 158.411 59.411 157.924 59.8728 157.534C60.2324 157.172 60.717 156.962 61.227 156.946C62.4448 157.049 63.587 157.579 64.4521 158.443C64.8441 158.781 65.2004 159.173 65.5746 159.547C65.1895 159.615 64.817 159.742 64.4699 159.922C63.9052 160.239 63.4231 160.684 63.0622 161.222C62.4391 162.175 62.1739 163.318 62.3139 164.447C62.5693 166.372 63.4017 168.173 64.7015 169.615C64.1675 167.953 63.95 166.207 64.06 164.465C64.1472 163.802 64.433 163.181 64.8797 162.683C65.058 162.496 65.2792 162.354 65.5243 162.27C65.7695 162.186 66.0313 162.163 66.2873 162.202C66.927 162.325 67.5339 162.58 68.0691 162.951C68.6215 163.842 69.156 164.733 69.6371 165.677C71.0244 168.522 72.0998 171.509 72.8444 174.586C73.3235 171.235 72.9874 167.819 71.8644 164.626Z" fill="#995D1D"/>
<path d="M227.738 112.418C226.595 109.165 226.331 105.668 226.972 102.28C227.178 101.369 227.502 100.489 227.934 99.6606C228.439 98.7228 229.191 97.9404 230.108 97.3977C231.073 96.8452 232.204 96.6556 233.297 96.8631C233.797 96.9416 234.287 97.073 234.758 97.2551C235.794 97.7452 236.712 98.4523 237.449 99.3286C238.187 100.205 238.728 101.23 239.035 102.333C239.594 103.897 239.906 105.538 239.961 107.198C239.328 105.738 238.577 104.331 237.716 102.993C236.966 101.771 235.949 100.735 234.74 99.9635C234.192 99.6674 233.582 99.5027 232.959 99.4824C232.457 99.4029 231.945 99.5246 231.533 99.821C230.617 100.631 230.022 101.744 229.858 102.957C229.76 103.47 229.688 103.987 229.644 104.507C229.992 104.333 230.365 104.213 230.749 104.151C231.384 104.055 232.032 104.116 232.638 104.329C233.715 104.715 234.619 105.473 235.186 106.467C236.136 108.157 236.552 110.095 236.38 112.026C235.816 110.373 234.932 108.847 233.778 107.536C233.304 107.024 232.681 106.675 231.996 106.538C231.742 106.495 231.481 106.515 231.235 106.596C230.99 106.676 230.768 106.816 230.589 107.002C230.113 107.509 229.76 108.119 229.555 108.784C229.644 109.835 229.769 110.868 229.947 111.902C230.532 115.002 231.465 118.026 232.727 120.918C230.425 118.512 228.716 115.601 227.738 112.418Z" fill="#995D1D"/>
<path d="M227.417 267.508C204.577 279.529 179.657 287.094 153.989 289.798C154.345 304.053 158.087 327.876 177.402 347.636C177.402 347.636 189.411 347.636 197.536 351.806C198.677 345.979 186.845 322.798 188.164 291.669C196.146 289.743 203.963 287.187 211.541 284.025C231.248 308.044 235.738 333.56 240.157 337.48C244.077 329.176 253.735 322.014 253.735 322.014C257.298 294.609 245.877 273.334 237.574 261.753C234.794 263.463 231.391 265.423 227.417 267.508Z" fill="#83CAC4"/>
<g style="mix-blend-mode:multiply" opacity="0.25">
<path d="M239.444 264.693C238.785 263.695 238.126 262.75 237.485 261.877C234.723 263.552 231.319 265.441 227.346 267.597C204.507 279.611 179.596 287.181 153.935 289.905C153.935 291.01 153.935 292.204 154.095 293.469C184.346 290.413 213.519 280.578 239.444 264.693Z" fill="#83CAC4"/>
</g>
<g style="mix-blend-mode:multiply" opacity="0.25">
<path d="M253.557 301.095C252.933 307.349 251.276 314.12 247.231 317.292C240.852 322.263 232.424 314.138 225.974 306.423C233.975 321.996 237.039 334.932 240.086 337.569C244.006 329.284 253.646 322.121 253.646 322.121C254.546 315.139 254.516 308.069 253.557 301.095Z" fill="#83CAC4"/>
</g>
<path d="M132.785 227.524C132.068 225.65 130.998 223.932 129.631 222.464L129.096 221.929L128.954 221.804L128.437 221.341L128.277 221.199L127.76 220.789L127.564 220.646L127.047 220.29L126.833 220.147L126.335 219.844L126.103 219.72L125.604 219.435L125.372 219.31L124.873 219.06H124.66L124.143 218.829H123.965L123.305 218.366H123.181C121.008 217.584 118.719 217.175 116.41 217.154C116.41 217.154 121.631 230.197 133.8 231.515C133.586 230.164 133.234 228.839 132.749 227.56L132.785 227.524Z" fill="#513A59"/>
<path d="M223.729 181.179C223.729 181.179 211.523 189.821 218.508 203.113C225.6 194.614 223.729 181.179 223.729 181.179Z" fill="#513A59"/>
<path d="M223.729 181.179C213.796 180.351 203.847 182.583 195.22 187.575L192.155 184.6C177.275 193.204 160.818 198.73 143.761 200.85C143.476 202.632 143.03 205.501 143.102 205.037C133.197 206.252 123.902 210.467 116.463 217.118C118.772 217.139 121.061 217.548 123.234 218.33H123.359L123.911 218.543H124.09L124.606 218.775H124.82L125.319 219.025L125.551 219.149L126.05 219.434L126.281 219.559L126.78 219.862L126.994 220.005L127.511 220.361L127.707 220.503L128.223 220.913L128.384 221.056L128.9 221.519L129.043 221.644L129.578 222.178C130.944 223.647 132.015 225.365 132.731 227.239C133.216 228.518 133.569 229.843 133.783 231.194C133.783 231.194 136.723 223.8 141.052 220.379L141.159 219.399C140.322 227.328 139.68 236.219 139.52 245.485C144.944 245.033 150.29 243.902 155.432 242.117C155.432 242.117 150.852 230.535 154.933 226.526L155.289 226.205C159.156 223.158 162.274 229.929 163.094 235.524C165 232.317 168.439 227.559 173.161 226.615H173.749C174.517 226.439 175.323 226.575 175.991 226.992C176.659 227.41 177.134 228.075 177.312 228.842C177.388 229.092 177.436 229.349 177.455 229.609C177.453 229.638 177.453 229.668 177.455 229.698C177.455 229.947 177.455 230.214 177.455 230.482C177.455 230.749 177.455 230.606 177.455 230.66C177.455 230.713 177.455 231.159 177.455 231.426C177.463 231.521 177.463 231.616 177.455 231.711C177.455 231.943 177.455 232.174 177.312 232.424L177.206 232.798C177.206 233.012 177.081 233.243 177.01 233.457C176.938 233.671 176.885 233.778 176.814 233.938C176.742 234.099 176.671 234.33 176.582 234.526C176.493 234.722 176.404 234.901 176.315 235.079C176.226 235.257 176.154 235.417 176.047 235.595C175.94 235.774 175.798 236.005 175.673 236.219L175.406 236.665L174.889 237.359L174.64 237.698C174.372 238.037 174.07 238.375 173.767 238.696C176.794 237.601 180.071 237.397 183.21 238.108C184.382 236.559 185.902 235.307 187.647 234.455L187.95 234.277L188.734 233.885L189.322 233.618L189.91 233.368L191.104 232.887C190.366 232.766 189.639 232.587 188.93 232.353L188.591 232.263L188.128 232.067L187.433 231.8L186.952 231.569L186.364 231.266C186.097 231.123 185.847 230.963 185.598 230.802L185.384 230.678C184.919 230.36 184.478 230.009 184.066 229.626C183.838 229.42 183.624 229.2 183.424 228.967L183.21 228.718L182.854 228.219C182.8 228.152 182.753 228.08 182.711 228.005C182.322 227.384 182.106 226.67 182.088 225.938C182.062 225.737 182.062 225.533 182.088 225.332C182.154 225.127 182.244 224.929 182.355 224.744C182.637 224.294 183.014 223.911 183.46 223.622C183.704 223.445 183.967 223.295 184.244 223.176C188.538 221.181 194.222 222.855 197.679 224.263C194.97 219.31 193.367 212.022 198.302 212.129H198.944C201.545 212.574 203.648 215.39 205.144 218.258C205.251 218.437 205.34 218.633 205.43 218.811C205.519 219.007 205.608 219.185 205.679 219.363L205.928 219.898L206.142 220.397C206.197 220.567 206.262 220.734 206.338 220.895L206.534 221.359C206.586 221.51 206.645 221.659 206.712 221.804C206.779 221.948 206.832 222.097 206.873 222.25C206.873 222.392 206.98 222.535 207.015 222.659C207.015 222.802 207.104 222.927 207.14 223.051C207.189 223.161 207.231 223.274 207.265 223.39C207.265 223.479 207.265 223.568 207.265 223.639C207.27 223.717 207.27 223.794 207.265 223.871C207.293 223.986 207.328 224.099 207.372 224.21V224.317C212.552 222.642 217.503 220.326 222.107 217.421C216.619 210.418 211.007 203.968 205.75 198.302C211.274 198.427 218.063 202.561 218.063 202.561C211.523 189.856 223.729 181.179 223.729 181.179Z" fill="#CC295F"/>
<g style="mix-blend-mode:multiply" opacity="0.45">
<path d="M192.137 184.6C177.258 193.204 160.8 198.73 143.743 200.85C143.494 202.347 143.137 204.699 143.084 205.038L143.547 204.877V205.109C147.111 205.519 170.275 207.318 195.22 187.576L192.137 184.6Z" fill="#CC295F"/>
</g>
<g style="mix-blend-mode:multiply" opacity="0.45">
<path d="M216.37 194.435C210.339 193.095 204.102 192.956 198.017 194.026L211.292 204.485C209.51 202.543 207.853 200.654 206.196 198.854C211.719 198.979 218.508 203.113 218.508 203.113C217.029 200.465 216.291 197.467 216.37 194.435Z" fill="#CC295F"/>
</g>
<g style="mix-blend-mode:multiply" opacity="0.45">
<path d="M144.901 211.809C139.36 214.659 134.442 218.584 130.433 223.355C131.448 224.61 132.26 226.017 132.838 227.524C133.323 228.803 133.676 230.129 133.89 231.48C133.89 231.48 136.83 224.085 141.16 220.664L141.266 219.684C140.946 222.713 140.661 225.903 140.411 229.181L144.901 211.809Z" fill="#CC295F"/>
</g>
<path d="M212.397 241.404L209.421 242.652C210.829 248.639 207.639 254.305 203.381 252.363C203.176 252.264 202.98 252.151 202.793 252.024L202.507 251.81C202.271 251.621 202.05 251.412 201.848 251.187C201.165 250.312 200.723 249.274 200.565 248.175C200.565 248.175 200.565 248.033 200.565 247.961C200.565 247.605 200.53 247.249 200.458 246.892C196.895 251.4 192.315 253.271 190.516 249.725C190.426 249.543 190.354 249.352 190.302 249.155C190.249 248.981 190.213 248.802 190.195 248.621C190.195 248.621 190.195 248.621 190.195 248.496C190.177 248.324 190.177 248.151 190.195 247.979V247.819C190.177 247.653 190.177 247.486 190.195 247.32C190.186 247.249 190.186 247.177 190.195 247.106C190.214 246.942 190.249 246.781 190.302 246.625C190.294 246.536 190.294 246.447 190.302 246.358C190.341 246.213 190.389 246.07 190.445 245.93C190.481 245.813 190.529 245.7 190.587 245.592L190.747 245.2L190.961 244.79C190.961 244.683 191.05 244.576 191.104 244.487L191.531 243.756C191.175 243.917 190.837 244.041 190.498 244.166L190.142 244.291L189.5 244.487C188.716 244.716 187.91 244.86 187.095 244.915C186.798 244.932 186.501 244.932 186.204 244.915H186.079C185.847 244.915 185.634 244.915 185.402 244.915C183.815 246.329 181.887 247.306 179.807 247.748C182.034 248.603 183.959 249.886 184.297 251.828C185.01 255.748 180.288 256.942 174.675 255.552C175.56 256.746 176.058 258.183 176.101 259.668C176.127 259.935 176.127 260.203 176.101 260.47C176.109 260.577 176.109 260.684 176.101 260.791C176.108 260.879 176.108 260.969 176.101 261.058C176.032 261.288 175.936 261.509 175.816 261.717C173.553 265.869 167.637 263.249 165.125 257.619L161.989 258.421C154.944 260.994 147.584 262.607 140.108 263.214C140.582 272.393 141.846 281.514 143.886 290.476C143.886 290.476 196.414 290.636 246.376 256.158C242.617 247.771 238.133 239.728 232.977 232.121C226.57 236.136 219.646 239.259 212.397 241.404Z" fill="#CC295F"/>
<g style="mix-blend-mode:multiply" opacity="0.45">
<path d="M246.251 256.104C243.729 250.418 240.842 244.901 237.609 239.587C225.137 253.289 207.764 266.581 185.366 270.145C170.367 272.769 154.978 272.124 140.251 268.256C140.847 275.748 141.99 283.186 143.672 290.511C143.672 290.511 196.2 290.582 246.251 256.104Z" fill="#CC295F"/>
</g>
<g style="mix-blend-mode:multiply" opacity="0.45">
<path d="M232.763 232.068C226.426 236.083 219.575 239.224 212.397 241.404L209.421 242.652C210.829 248.638 207.639 254.305 203.381 252.362C203.177 252.264 202.98 252.151 202.793 252.024L202.508 251.81C202.271 251.621 202.051 251.412 201.848 251.186C201.65 250.927 201.471 250.653 201.314 250.367C201.466 251.497 201.914 252.567 202.614 253.467C202.817 253.693 203.037 253.901 203.274 254.091C203.539 254.294 203.826 254.467 204.129 254.608C208.441 256.55 211.577 250.884 210.169 244.897L213.145 243.649C220.326 241.502 227.183 238.391 233.529 234.402L234.028 234.081C233.618 233.35 233.19 232.709 232.763 232.068Z" fill="#CC295F"/>
</g>
<g style="mix-blend-mode:multiply" opacity="0.45">
<path d="M190.854 250.438C190.847 250.8 190.895 251.16 190.997 251.507C191.049 251.704 191.121 251.895 191.211 252.078C192.993 255.552 197.287 253.859 200.886 249.565C200.732 249.136 200.613 248.695 200.53 248.247C200.53 248.247 200.53 248.104 200.53 248.033C200.53 247.676 200.494 247.32 200.423 246.964C196.984 251.08 192.797 252.986 190.854 250.438Z" fill="#CC295F"/>
</g>
<g style="mix-blend-mode:multiply" opacity="0.45">
<path d="M187.861 247.178H188.378H188.823L189.304 247.088L189.856 246.964L190.248 246.875C190.24 246.822 190.24 246.767 190.248 246.714C190.24 246.625 190.24 246.536 190.248 246.447C190.288 246.302 190.335 246.159 190.391 246.019C190.428 245.902 190.475 245.789 190.534 245.681L190.694 245.289L190.908 244.879C190.908 244.772 190.997 244.665 191.05 244.576L191.478 243.846C191.122 244.006 190.783 244.131 190.444 244.255L190.088 244.38L189.447 244.576C188.663 244.806 187.856 244.949 187.041 245.004C186.744 245.021 186.447 245.021 186.15 245.004H186.026C185.794 245.004 185.58 245.004 185.348 245.004C183.762 246.419 181.833 247.395 179.754 247.837C180.792 248.213 181.766 248.748 182.64 249.423C183.923 248.937 185.103 248.211 186.115 247.284H186.614H187.451L187.861 247.178Z" fill="#CC295F"/>
</g>
<g style="mix-blend-mode:multiply" opacity="0.45">
<path d="M162.506 260.648L165.642 259.846C168.119 265.477 174.034 268.096 176.333 263.944C176.453 263.737 176.549 263.515 176.618 263.285C176.655 263.199 176.685 263.109 176.707 263.018C176.715 262.911 176.715 262.804 176.707 262.697C176.763 262.433 176.793 262.165 176.796 261.895C176.788 260.801 176.5 259.728 175.959 258.777C175.994 259.055 175.994 259.337 175.959 259.615C175.985 259.881 175.985 260.15 175.959 260.416C175.967 260.523 175.967 260.63 175.959 260.737C175.966 260.826 175.966 260.915 175.959 261.004C175.89 261.235 175.794 261.456 175.673 261.664C173.411 265.815 167.495 263.196 164.983 257.565L161.847 258.367C154.801 260.941 147.442 262.553 139.966 263.16L140.126 265.477H140.732C148.173 264.849 155.497 263.224 162.506 260.648Z" fill="#CC295F"/>
</g>
<g style="mix-blend-mode:multiply" opacity="0.45">
<path d="M174.676 255.498C175.172 256.22 175.557 257.013 175.816 257.85C181.268 259.116 185.759 257.85 185.064 254.055C184.96 253.49 184.722 252.958 184.369 252.505C184.369 255.784 179.914 256.799 174.676 255.498Z" fill="#CC295F"/>
</g>
<path d="M184.992 239.177C184.447 238.795 183.846 238.501 183.21 238.304C180.071 237.594 176.794 237.798 173.767 238.892C178.791 233.671 179.112 225.582 173.214 226.847C168.582 227.845 165.054 232.602 163.147 235.756C162.327 230.161 159.209 223.39 155.343 226.437C150.656 230.126 155.485 242.349 155.485 242.349C150.343 244.134 144.998 245.265 139.574 245.717C133.498 245.984 128.134 244.469 128.669 238.019C128.973 234.175 130.405 230.505 132.785 227.471C131.924 225.232 130.56 223.222 128.799 221.594C127.039 219.966 124.927 218.764 122.628 218.081C116.193 224.268 112.111 232.501 111.082 241.369C109.176 259.508 123.84 264.283 139.894 263.107C147.37 262.5 154.73 260.888 161.775 258.314L164.911 257.512C167.388 263.143 173.303 265.762 175.602 261.61C176.05 260.603 176.204 259.49 176.046 258.399C175.889 257.308 175.426 256.284 174.711 255.445C180.324 256.835 185.046 255.641 184.333 251.721C183.994 249.779 182.07 248.496 179.843 247.641C181.922 247.199 183.851 246.223 185.438 244.808C185.883 244.466 186.235 244.018 186.463 243.506C186.691 242.993 186.787 242.431 186.743 241.872C186.699 241.312 186.515 240.773 186.21 240.302C185.904 239.832 185.485 239.445 184.992 239.177Z" fill="#E6A839"/>
<g style="mix-blend-mode:multiply" opacity="0.35">
<path d="M171.985 260.327C168.421 258.991 165.855 251.935 165.855 251.935C165.855 251.935 141.623 260.523 125.212 254.608C122.012 253.45 119.1 251.613 116.676 249.223C114.252 246.833 112.375 243.947 111.171 240.763C111.171 240.977 111.171 241.191 111.171 241.422C109.265 259.561 123.929 264.337 139.983 263.161C147.459 262.553 154.819 260.941 161.864 258.367L165 257.566C167.477 263.196 173.393 265.815 175.691 261.664C176.042 261.038 176.226 260.332 176.226 259.615C175.674 260.148 174.973 260.502 174.216 260.63C173.459 260.757 172.681 260.651 171.985 260.327Z" fill="#E6A839"/>
</g>
<g style="mix-blend-mode:multiply" opacity="0.35">
<path d="M184.298 251.775C184.218 251.299 184.042 250.844 183.781 250.438C182.694 251.149 181.486 251.657 180.217 251.935C177.18 252.555 174.026 252.226 171.183 250.991C171.724 252.871 172.951 254.48 174.622 255.499C180.324 256.888 185.01 255.784 184.298 251.775Z" fill="#E6A839"/>
</g>
<g style="mix-blend-mode:multiply" opacity="0.35">
<path d="M184.992 239.177C184.688 238.955 184.359 238.77 184.012 238.625C185.099 239.391 185.616 240.531 183.798 242.188C180.235 245.271 173.107 246.375 173.107 246.375C175.389 246.431 177.641 246.902 179.754 247.765C181.833 247.324 183.762 246.347 185.349 244.932C185.826 244.602 186.209 244.155 186.463 243.633C186.716 243.111 186.83 242.533 186.795 241.954C186.759 241.375 186.574 240.815 186.258 240.329C185.942 239.842 185.506 239.445 184.992 239.177Z" fill="#E6A839"/>
</g>
<g style="mix-blend-mode:multiply" opacity="0.35">
<path d="M173.802 226.775C175.192 229.288 173.802 236.094 168.778 239.979C170.497 239.953 172.193 239.584 173.767 238.892C178.542 233.849 179.059 226.17 173.802 226.775Z" fill="#E6A839"/>
</g>
<g style="mix-blend-mode:multiply" opacity="0.35">
<path d="M155.378 226.491L155.022 226.811C157.142 227.667 160.368 233.119 160.368 239.141C161.481 238.196 162.427 237.07 163.165 235.809C162.328 230.215 159.209 223.444 155.378 226.491Z" fill="#E6A839"/>
</g>
<g style="mix-blend-mode:multiply" opacity="0.35">
<path d="M163.147 235.809C163.271 235.626 163.384 235.435 163.486 235.239L163.147 235.809Z" fill="#E6A839"/>
</g>
<g style="mix-blend-mode:multiply" opacity="0.35">
<path d="M130.932 230.393C131.445 229.388 132.041 228.429 132.714 227.524C131.853 225.286 130.489 223.275 128.728 221.647C126.967 220.019 124.856 218.817 122.557 218.134C121.566 219.173 120.626 220.262 119.742 221.394C121.535 220.923 123.44 221.132 125.088 221.982C126.64 222.843 127.975 224.049 128.988 225.508C130.001 226.966 130.666 228.637 130.932 230.393Z" fill="#E6A839"/>
</g>
<path d="M242.687 197.358C236.556 190.898 228.365 186.777 219.524 185.705C218.104 187.637 217.146 189.868 216.723 192.228C216.3 194.588 216.423 197.013 217.083 199.318C220.805 200.313 224.152 202.383 226.704 205.269C231.034 210.098 227.667 214.534 222.66 217.973C218.055 220.878 213.105 223.195 207.924 224.869C207.924 224.869 204.36 212.2 198.463 212.093C193.527 211.986 195.131 219.221 197.839 224.228C194.382 222.82 188.698 221.145 184.404 223.141C178.934 225.671 184.048 231.943 191.211 233.083C187.647 234.384 183.477 236.647 182.408 240.068C180.983 244.772 185.972 246.215 191.692 243.738C190.427 245.77 189.678 247.961 190.551 249.708C192.333 253.271 196.859 251.382 200.494 246.874C200.424 247.978 200.668 249.08 201.198 250.051C201.728 251.022 202.521 251.823 203.487 252.362C207.799 254.305 210.935 248.638 209.528 242.652L212.503 241.404C219.682 239.224 226.533 236.083 232.87 232.068C246.251 223.319 255.16 210.686 242.687 197.358Z" fill="#E6A839"/>
<g style="mix-blend-mode:multiply" opacity="0.35">
<path d="M241.708 196.378C242.786 199.735 243.102 203.291 242.633 206.786C242.165 210.281 240.923 213.628 238.999 216.583C229.467 231.177 204.949 238.927 204.949 238.927C204.949 238.927 207.158 246.055 205.109 249.333C204.77 249.91 204.289 250.389 203.712 250.726C203.135 251.063 202.481 251.246 201.813 251.258C202.244 251.763 202.779 252.171 203.381 252.452C207.693 254.394 210.829 248.727 209.421 242.741L212.397 241.493C219.575 239.313 226.426 236.172 232.763 232.157C246.287 223.408 255.125 210.775 242.652 197.447C242.349 196.983 242.028 196.698 241.708 196.378Z" fill="#E6A839"/>
</g>
<g style="mix-blend-mode:multiply" opacity="0.35">
<path d="M200.049 241.903C198.975 244.203 197.269 246.149 195.131 247.516C193.67 248.481 191.979 249.041 190.231 249.137C190.283 249.334 190.355 249.525 190.445 249.708C192.226 253.271 196.752 251.382 200.387 246.874C200.389 245.212 200.275 243.551 200.049 241.903Z" fill="#E6A839"/>
</g>
<g style="mix-blend-mode:multiply" opacity="0.35">
<path d="M188.431 241.03C186.355 241.541 184.173 241.404 182.177 240.638C181.304 244.879 186.079 246.108 191.585 243.739C193.055 241.717 194.65 239.789 196.36 237.965C193.912 239.433 191.23 240.47 188.431 241.03Z" fill="#E6A839"/>
</g>
<g style="mix-blend-mode:multiply" opacity="0.35">
<path d="M187.683 227.649C186.107 226.51 184.723 225.126 183.584 223.55C179.361 226.294 184.297 231.996 191.104 233.083L197.233 230.642C193.786 230.881 190.376 229.812 187.683 227.649Z" fill="#E6A839"/>
</g>
<g style="mix-blend-mode:multiply" opacity="0.35">
<path d="M198.998 212.147H198.356C193.42 212.04 195.024 219.274 197.732 224.281C199.345 225.167 200.856 226.224 202.24 227.435C200.159 224.564 198.847 221.209 198.427 217.688C198.18 215.822 198.375 213.924 198.998 212.147Z" fill="#E6A839"/>
</g>
<g style="mix-blend-mode:multiply" opacity="0.35">
<path d="M221.787 186.114C221.003 185.954 220.201 185.812 219.417 185.705C217.998 187.637 217.04 189.868 216.616 192.228C216.193 194.588 216.316 197.013 216.976 199.318C217.724 199.532 218.49 199.781 219.257 200.084C218.371 195.275 219.271 190.308 221.787 186.114Z" fill="#E6A839"/>
</g>
<path d="M75.7667 114.218L68.2652 114.877L68.3721 110.013L64.5947 115.216L58.2514 115.768L62.1358 118.566L57.6812 124.677L64.4699 120.544L68.0336 126.263L68.1939 118.334L71.9892 116.267L75.7667 114.218Z" fill="white"/>
<path d="M298.761 251.917L295.411 255.196L290.814 254.839L293.255 257.316L289.335 261.165L294.699 259.009L296.57 263.535L297.639 257.869L303.554 255.802L298.102 255.392L298.761 251.917Z" fill="white"/>
<path d="M216.477 175.138L212.985 175.459L213.038 173.178L211.256 175.602L208.299 175.869L210.116 177.187L208.601 179.254L208.031 180.038L211.203 178.096L212.878 180.769L212.949 177.223V177.063L216.477 175.138Z" fill="white"/>
<path d="M186.845 38.0097L183.353 38.3126L183.389 36.0319L181.625 38.4552L178.667 38.7224L180.484 40.041L178.97 42.1079L178.399 42.8919L181.571 40.9675L183.228 43.6403L183.317 40.0766V39.9163L186.845 38.0097Z" fill="white"/>
<path d="M45.939 258.154L49.8056 255.356L43.4801 254.786L39.6848 249.601L39.7917 254.465L32.3081 253.806L36.0856 255.855L39.863 257.922L40.0412 265.851L43.6048 260.131L50.3757 264.265L45.939 258.154Z" fill="white"/>
<path d="M271.072 287.482L274.956 284.685L268.631 284.132L264.836 278.929L264.943 283.794L257.441 283.135L261.236 285.184L265.014 287.251L265.174 295.18L268.738 289.46L275.526 293.594L271.072 287.482Z" fill="white"/>
<path d="M54.0999 289.977L49.4849 290.333L46.153 287.055L46.7944 290.547L41.342 290.957L47.2577 293.006L48.3268 298.69L50.1977 294.146L55.561 296.302L51.6409 292.454L54.0999 289.977Z" fill="white"/>
<path d="M38.6692 126.477L40.4867 125.158L37.5288 124.891L35.7648 122.468L35.8005 124.749L32.3081 124.428L35.8361 126.352V126.441L35.9074 130.058L36.7448 128.722L37.5823 127.386L40.2728 129.025L40.7539 129.328L39.7917 127.992L38.6692 126.477Z" fill="white"/>
</g>
</g>
<defs>
<filter id="filter0_d_0_438" x="0" y="0" width="338" height="338" filterUnits="userSpaceOnUse" color-interpolation-filters="sRGB">
<feFlood flood-opacity="0" result="BackgroundImageFix"/>
<feColorMatrix in="SourceAlpha" type="matrix" values="0 0 0 0 0 0 0 0 0 0 0 0 0 0 0 0 0 0 127 0" result="hardAlpha"/>
<feOffset dx="4" dy="4"/>
<feGaussianBlur stdDeviation="11"/>
<feComposite in2="hardAlpha" operator="out"/>
<feColorMatrix type="matrix" values="0 0 0 0 0 0 0 0 0 0 0 0 0 0 0 0 0 0 0.2 0"/>
<feBlend mode="normal" in2="BackgroundImageFix" result="effect1_dropShadow_0_438"/>
<feBlend mode="normal" in="SourceGraphic" in2="effect1_dropShadow_0_438" result="shape"/>
</filter>
</defs>
</svg>
