<svg width="246" height="220" viewBox="0 0 246 220" fill="none" xmlns="http://www.w3.org/2000/svg">
<g filter="url(#filter0_d_12_103)">
<path d="M83.7762 36.8689C83.7762 36.8689 82.9641 32.5246 88.897 30.3663C94.8299 28.208 96.931 32.8161 96.931 32.8161L83.7762 36.8689Z" fill="#FFAB05"/>
<path d="M184.443 85.0921C184.443 85.0921 205.864 86.73 219.062 94.4563C232.259 102.183 234.381 117.073 225.041 123.339C219.717 127.024 213.502 129.213 207.043 129.678L184.443 85.0921Z" fill="#D37D00"/>
<path d="M230.357 115.647C232.054 108.641 228.257 99.7761 219.048 94.4058C205.851 86.6795 184.43 85.0417 184.43 85.0417L185.811 87.7715C191.178 88.3504 207.746 90.571 218.679 96.9685C226.799 101.71 230.715 109.202 230.357 115.647Z" fill="#FFAB05"/>
<path d="M43.222 122.81C44.1019 126.094 42.2363 129.64 38.3325 136.087C33.1383 144.64 24.2377 153.455 31.897 171.531C31.897 171.531 33.3155 164.6 37.0004 161.731C37.0004 161.731 32.4617 178.893 48.3003 186.372C47.0548 182.402 46.5714 178.233 46.8756 174.083C46.8756 174.083 51.5426 195.845 81.6951 190.311L171.297 170.363C171.297 170.363 202.744 165.213 202.375 136.708C203.415 139.641 204.074 142.694 204.336 145.794C204.336 145.794 216.136 132.087 202.258 113.538C202.258 113.538 207.136 115.98 209.067 118.739C209.084 114.806 208.234 110.918 206.576 107.352C204.918 103.786 202.495 100.629 199.477 98.1065C189.283 89.819 187.832 91.3722 184.215 82.2699C180.598 73.1676 153.509 33.9545 100.229 53.8621C46.9485 73.7698 43.222 122.81 43.222 122.81Z" fill="#BE5000"/>
<g style="mix-blend-mode:multiply" opacity="0.5">
<path d="M209.031 118.654C209.048 114.721 208.197 110.833 206.54 107.267C204.882 103.701 202.458 100.544 199.441 98.0215C190.595 90.8214 188.324 91.0372 185.518 85.2643C186.421 89.6854 188.758 93.6846 192.167 96.6405C197.724 101.162 203.88 104.332 206.084 111.647C206.293 112.43 205.249 112.777 204.868 112.162C202.634 108.875 198.826 105.577 194.668 105.419C203.72 112.93 207.062 125.503 205.646 136.942C205.629 137.092 205.562 137.233 205.456 137.341C205.35 137.449 205.211 137.518 205.061 137.538C204.911 137.558 204.758 137.528 204.628 137.451C204.497 137.375 204.395 137.257 204.339 137.116C203.606 134.269 202.487 131.536 201.012 128.992C200.659 137.778 196.938 145.11 192.083 152.502C192.002 152.65 191.87 152.762 191.712 152.818C191.554 152.873 191.38 152.869 191.225 152.804C191.07 152.74 190.945 152.621 190.872 152.469C190.8 152.318 190.786 152.145 190.834 151.984C192.885 144.776 193.054 137.161 191.324 129.869C191.296 129.735 191.308 129.597 191.358 129.47C191.409 129.343 191.495 129.234 191.607 129.156C191.72 129.078 191.852 129.035 191.989 129.032C192.125 129.03 192.26 129.068 192.375 129.141C196.949 125.045 197.083 116.955 194.401 111.745C192.512 108.081 187.688 100.941 182.852 104.01C182.762 104.063 182.661 104.095 182.556 104.103C182.452 104.11 182.347 104.094 182.25 104.054C182.152 104.015 182.066 103.953 181.996 103.875C181.927 103.796 181.877 103.703 181.849 103.602C180.422 98.8806 179.62 94.0192 177.656 89.469C176.603 87.2048 175.698 84.8743 174.948 82.4924C171.201 82.4539 167.268 81.3148 163.573 81.1137C157.179 80.6225 150.755 80.704 144.375 81.3574C131.95 82.9271 119.444 86.5217 107.562 90.4769C96.1412 94.4899 84.9928 99.2406 74.1876 104.699C65.907 108.705 57.4565 112.986 50.6796 119.269C52.3135 126.276 52.7434 133.539 53.3744 140.693C53.4358 141.326 52.6114 141.534 52.2151 141.166C47.5398 137.004 41.9917 145.449 41.8103 149.369C41.6057 154.365 43.008 161.366 46.9826 164.782C49.8695 167.271 53.8904 167.222 54.6267 171.587C55.3861 176.564 57.3157 181.289 60.257 185.375C60.6501 185.933 60.0022 186.445 59.4841 186.381C51.6758 185.278 48.2336 176.928 45.9293 170.046C45.3378 173.345 45.7695 176.573 45.7921 179.991C45.7897 180.139 45.7392 180.282 45.6483 180.399C45.5574 180.515 45.431 180.599 45.2883 180.637C45.1455 180.675 44.9942 180.666 44.8573 180.611C44.7203 180.555 44.6051 180.457 44.5291 180.33C40.1672 172.74 37.3768 165.055 38.7259 156.449C36.1791 159.054 34.2457 162.194 33.0668 165.641C32.8645 166.25 31.8985 166.333 31.7158 165.651C30.1983 158.769 30.6762 151.597 33.0934 144.977C33.3638 144.268 33.6342 143.559 33.886 142.883C29.6753 149.751 26.1932 158.075 31.8972 171.532C31.8972 171.532 33.3157 164.6 37.0006 161.731C37.0006 161.731 32.4619 178.893 48.3005 186.372C47.0549 182.402 46.5715 178.233 46.8758 174.083C46.8758 174.083 51.5428 195.845 81.6953 190.311L171.297 170.363C171.297 170.363 202.744 165.213 202.376 136.708C203.415 139.641 204.074 142.694 204.336 145.794C204.336 145.794 216.136 132.087 202.259 113.538C202.248 113.5 207.126 115.943 209.031 118.654Z" fill="#9F3900"/>
</g>
<path d="M57.0774 147.187C57.0774 147.187 53.5223 143.063 50.9116 143.424C48.301 143.785 43.3005 148.008 44.4144 155.399C45.5283 162.789 51.3117 166.641 55.3539 166.722C59.396 166.803 59.8446 161.606 59.8446 161.606L57.0774 147.187Z" fill="#EFCAA6"/>
<path d="M51.7202 151.898C47.9283 151.236 48.0528 155.994 48.4902 158.991C48.5274 159.13 48.6823 159.102 48.6796 158.94C48.7952 157.704 48.8307 156.422 49.0323 155.204C49.3363 153.106 51.1589 153.037 52.4983 153.842C53.0086 154.156 53.4748 154.536 53.8843 154.973C53.2117 155.457 52.7297 156.161 52.5222 156.963C52.2125 158.013 52.121 159.115 52.2532 160.202C52.25 160.237 52.2608 160.272 52.2833 160.299C52.3057 160.326 52.338 160.343 52.373 160.346C52.4079 160.349 52.4427 160.339 52.4697 160.316C52.4967 160.294 52.5136 160.261 52.5168 160.227C52.75 159.379 52.9064 158.498 53.1876 157.678C53.4707 156.94 53.9975 156.321 54.6805 155.924C55.6422 157.444 56.5159 159.018 57.2972 160.638C57.3152 160.705 57.359 160.762 57.4191 160.796C57.4791 160.831 57.5505 160.841 57.6175 160.823C57.6845 160.805 57.7416 160.761 57.7763 160.701C57.811 160.641 57.8204 160.569 57.8024 160.502C57.1656 156.964 55.2003 152.509 51.7202 151.898Z" fill="#C39368"/>
<path d="M178.968 112.753C178.968 112.753 180.965 107.778 183.705 106.99C186.445 106.201 193.069 107.838 194.88 114.595C195.573 117.357 195.29 120.273 194.078 122.851C192.867 125.428 190.801 127.507 188.232 128.735C184.194 130.44 181.769 126.189 181.769 126.189L178.968 112.753Z" fill="#EFCAA6"/>
<path d="M186.151 114.605C189.649 112.503 191.393 116.639 192.112 119.37C192.146 119.496 191.965 119.531 191.897 119.428C191.315 118.419 190.78 117.331 190.126 116.355C189.017 114.69 187.157 115.378 186.134 116.613C185.751 117.076 185.433 117.589 185.189 118.139C186.008 118.267 186.757 118.673 187.311 119.289C188.02 120.046 188.539 120.96 188.825 121.956C188.865 122.108 188.654 122.178 188.56 122.027C188 121.406 187.504 120.713 186.91 120.114C186.299 119.592 185.537 119.279 184.735 119.221C184.368 120.907 184.107 122.614 183.952 124.332C183.941 124.395 183.91 124.453 183.862 124.497C183.814 124.54 183.753 124.566 183.689 124.571C183.625 124.576 183.561 124.559 183.507 124.523C183.454 124.487 183.414 124.434 183.394 124.373C182.63 121.166 182.891 116.534 186.151 114.605Z" fill="#C39368"/>
<path d="M50.1806 121.65C52.9616 131.085 55.0861 140.702 56.5388 150.431C58.0625 163.14 58.3347 192.144 96.4476 197.878C134.56 203.612 176.202 182.857 184.511 150.362C186.576 142.309 186.505 124.514 180.792 111.98C176.797 102.648 173.586 92.9985 171.194 83.1329C170.855 81.8699 129.743 80.7029 91.0664 100.853C52.3899 121.004 50.1806 121.65 50.1806 121.65Z" fill="#F4D9BF"/>
<path d="M172.157 78.1909C165.785 68.4054 127.68 73.8643 107.376 80.5366C87.0716 87.209 43.6661 106.989 48.3387 120.031C48.3387 120.031 53.1178 132.816 56.8858 138.845C56.8858 138.845 59.7938 121.659 73.4171 115.667C71.051 119.137 69.47 123.08 68.7841 127.224L102.513 105.231C102.513 105.231 98.796 109.747 98.1477 113.44C98.1477 113.44 123.904 103.723 135.808 93.0339C135.808 93.0339 133.747 97.5661 132.843 99.4463C132.843 99.4463 142.214 95.0671 147.883 89.0945C147.883 89.0945 148.592 95.2262 164.439 100.361C164.073 96.9478 163.026 93.6425 161.361 90.6407C161.361 90.6407 171.964 100.457 178.47 102.003C178.546 102.036 178.525 87.9637 172.157 78.1909Z" fill="#BE5000"/>
<path d="M93.2384 32.5736C71.5905 38.3742 21.4713 72.9074 42.1688 128.074C42.1688 128.074 109.653 80.6981 188.395 85.847C188.395 85.847 173.729 11.0062 93.2384 32.5736ZM134.645 82.3266C109.724 86.4187 82.3875 99.4831 82.3875 99.4831C82.3875 99.4831 73.5207 71.8479 98.8118 62.9729C127.231 52.9892 134.645 82.3266 134.645 82.3266Z" fill="#FFAB05"/>
<path d="M59.0954 84.8506C58.2425 74.4933 59.5238 64.1193 64.7391 54.9382C67.8891 49.5887 71.7298 44.6773 76.1621 40.3305C53.2254 54.3548 26.0751 84.8859 42.2319 128.057C49.6839 123.069 57.4368 118.546 65.4463 114.514C62.242 104.89 60.1121 94.9422 59.0954 84.8506Z" fill="#687100"/>
<path d="M104.931 30.0363C110.477 30.4678 115.924 31.7475 121.082 33.8307C130.405 37.5053 137.794 44.5682 143.904 52.3662C150.905 61.3196 155.951 72.0693 159.93 82.6721C160.351 83.791 160.764 84.9258 161.16 86.0515C170.222 85.3398 179.323 85.2715 188.395 85.8471C188.395 85.8471 175.167 18.3912 104.931 30.0363Z" fill="#687100"/>
<path d="M102.176 90.4313C102.176 90.4313 108.656 85.7169 114.677 86.5672L117.102 93.6469C117.102 93.6469 112.981 97.9188 104.768 97.4797L102.176 90.4313Z" fill="#FFDE05"/>
<g style="mix-blend-mode:screen" opacity="0.3">
<path d="M46.3698 78.5815C57.453 78.2424 68.4989 77.1281 79.4266 75.247C81.0838 74.9653 82.7309 74.6458 84.3688 74.3423C87.0029 69.7244 91.4872 65.5447 98.8119 62.9729C109.428 59.2483 117.111 60.9936 122.591 64.7234C130.459 62.1166 138.166 59.048 145.673 55.5335C152.382 52.3821 159.04 49.0413 165.643 45.5936C151.352 32.2716 128.678 23.0776 93.2384 32.5737C79.0423 36.3775 52.643 52.5344 41.9995 78.7914L46.3698 78.5815Z" fill="#FCFF93"/>
</g>
<path d="M139.935 159.761C135.415 161.854 130.765 163.651 126.013 165.143C122.186 166.371 118.385 167.593 114.488 168.61C112.366 169.179 92.974 172.385 94.7375 167.296C94.7375 167.296 94.7138 167.208 94.6491 167.32C93.7245 168.921 94.4339 169.801 96.1562 170.368C103.862 172.906 112.237 170.364 119.701 168.364C130.639 165.433 142.097 161.009 151.121 154.273C147.431 156.06 143.76 158.073 139.935 159.761Z" fill="#C39368"/>
<g style="mix-blend-mode:multiply">
<path d="M147.584 176.487C144.539 184.071 137.156 187.687 129.488 188.876C122.437 190.045 115.197 188.793 108.948 185.323C102.821 181.753 99.5876 175.648 95.8115 169.892C104.928 171.429 114.477 169.682 123.161 166.828C131.844 163.973 141.371 161.082 148.805 155.733C150.629 162.603 150.201 169.878 147.584 176.487Z" fill="#930323"/>
</g>
<path d="M107.755 175.667C120.834 174.666 133.098 171.583 144.01 164.463C143.99 162.675 143.705 160.899 143.166 159.193C136.73 162.266 130.058 164.819 123.214 166.827C116.563 169.152 109.578 170.383 102.533 170.474C103.928 172.52 105.701 174.283 107.755 175.667Z" fill="white"/>
<path d="M143.448 180.303C139.59 179.016 135.501 178.57 131.456 178.995C127.49 179.376 123.71 180.858 120.541 183.273C118.898 184.64 117.642 186.414 116.898 188.419C121.01 189.347 125.261 189.494 129.427 188.852C135.419 187.923 141.237 185.538 144.895 180.903C144.427 180.672 143.943 180.471 143.448 180.303Z" fill="#F08394"/>
<path d="M142.238 132.287C143.471 136.586 143.191 140.492 141.598 141.014C140.005 141.535 137.654 138.47 136.49 134.125C135.326 129.78 135.546 125.904 137.146 125.407C138.745 124.911 141.001 127.975 142.238 132.287Z" fill="#3D1A0B"/>
<path d="M137.992 130.081C138.331 131.344 138.104 132.569 137.608 132.689C137.112 132.808 136.476 131.8 136.2 130.467C135.924 129.133 136.089 127.979 136.575 127.875C137.062 127.772 137.754 128.737 137.992 130.081Z" fill="white"/>
<path d="M90.0189 146.252C90.9237 150.639 90.3354 154.506 88.7086 154.901C87.0818 155.296 85.0068 152.049 84.0641 147.672C83.1214 143.295 83.7569 139.402 85.387 139.019C87.0172 138.636 89.1267 141.861 90.0189 146.252Z" fill="#3D1A0B"/>
<path d="M85.958 143.726C86.1322 145.033 85.8792 146.211 85.3731 146.292C84.867 146.374 84.3259 145.314 84.1279 143.918C83.93 142.523 84.2033 141.421 84.7128 141.352C85.2223 141.283 85.7862 142.378 85.958 143.726Z" fill="white"/>
<path d="M89.3565 160.806C89.5701 163.32 84.596 165.723 78.2349 166.182C71.8738 166.641 66.5326 164.945 66.3064 162.433C66.0802 159.922 71.0728 157.488 77.4407 157.054C83.8085 156.62 89.1396 158.278 89.3565 160.806Z" fill="#F9CBC0"/>
<path d="M173.511 139.421C174.265 141.831 169.933 145.266 163.82 147.107C157.708 148.948 152.14 148.477 151.36 146.073C150.581 143.67 154.919 140.206 161.035 138.378C167.151 136.549 172.728 137.004 173.511 139.421Z" fill="#F9CBC0"/>
<path d="M113.426 159.798C113.041 159.219 112.881 158.52 112.976 157.832C113.07 157.143 113.413 156.513 113.94 156.06C115.078 155.251 116.407 154.755 117.796 154.621C119.185 154.486 120.585 154.717 121.857 155.292C121.88 155.221 121.882 155.145 121.863 155.074C121.844 155.002 121.804 154.937 121.748 154.888C120.234 154.038 118.516 153.619 116.78 153.674C116.959 152.069 116.103 151.148 114.931 150.109C114.731 149.918 113.504 149.381 113.68 149.632C114.234 150.539 115.209 152.66 114.616 153.631C114.537 153.771 114.481 153.923 114.452 154.081C113.328 154.398 112.372 155.14 111.785 156.15C110.062 159.319 114.072 162.766 117.025 162.57C117.049 162.576 117.075 162.576 117.099 162.57C117.124 162.563 117.146 162.551 117.164 162.533C115.609 162.142 114.268 161.161 113.426 159.798Z" fill="#C39368"/>
<path d="M148.076 116.739C145.708 110.835 138.76 103.343 131.603 106.439C125.806 108.953 122.462 116.834 124.033 122.897C124.063 123.011 124.132 123.111 124.228 123.18C124.324 123.248 124.441 123.282 124.558 123.274C124.676 123.266 124.787 123.218 124.873 123.138C124.96 123.057 125.015 122.95 125.031 122.833C125.416 117.653 126.6 113.532 131.345 110.731C137.359 107.157 142.027 114.069 144.514 118.452C144.741 118.924 145.146 119.287 145.641 119.46C146.136 119.633 146.679 119.603 147.151 119.376C147.623 119.149 147.986 118.744 148.159 118.249C148.333 117.755 148.303 117.211 148.076 116.739Z" fill="#853800"/>
<path d="M79.7491 120.807C72.8925 121.791 67.4108 130.786 70.2798 137.301C70.4138 137.565 70.6144 137.791 70.8618 137.955C71.1092 138.119 71.3951 138.216 71.6912 138.236C71.9874 138.256 72.2838 138.199 72.5513 138.071C72.8188 137.942 73.0482 137.746 73.2171 137.502C75.8064 133.424 73.8398 127.196 79.7335 125.346C84.6682 123.807 89.6791 127.554 92.2064 131.479C92.4832 131.906 93.2832 131.759 93.1537 131.226C91.5911 125.444 86.0651 119.927 79.7491 120.807Z" fill="#853800"/>
</g>
<defs>
<filter id="filter0_d_12_103" x="24.9097" y="28.6703" width="209.866" height="178.158" filterUnits="userSpaceOnUse" color-interpolation-filters="sRGB">
<feFlood flood-opacity="0" result="BackgroundImageFix"/>
<feColorMatrix in="SourceAlpha" type="matrix" values="0 0 0 0 0 0 0 0 0 0 0 0 0 0 0 0 0 0 127 0" result="hardAlpha"/>
<feOffset dy="4"/>
<feGaussianBlur stdDeviation="2"/>
<feComposite in2="hardAlpha" operator="out"/>
<feColorMatrix type="matrix" values="0 0 0 0 0 0 0 0 0 0 0 0 0 0 0 0 0 0 0.25 0"/>
<feBlend mode="normal" in2="BackgroundImageFix" result="effect1_dropShadow_12_103"/>
<feBlend mode="normal" in="SourceGraphic" in2="effect1_dropShadow_12_103" result="shape"/>
</filter>
</defs>
</svg>
