<svg width="183" height="188" viewBox="0 0 183 188" fill="none" xmlns="http://www.w3.org/2000/svg">
    <g clip-path="url(#clip0_12_492)">
        <path
            d="M125.162 43.0855C116.664 34.9685 101.447 20.0961 93.1337 20.1877C89.761 20.1877 82.383 24.5343 78.3383 27.2967C71.1541 32.2817 64.2939 37.7126 57.7985 43.5568C45.1638 54.7373 31.8702 67.2139 23.1748 81.7983C20.9219 85.5688 18.6689 89.6535 19.7888 94.1178C21.1063 99.2237 24.5581 104.186 27.3776 108.519C36.455 122.387 47.1041 135.174 59.116 146.63C67.8642 155.008 82.5806 169.58 96.1113 168.205C101.697 167.642 107.02 163.466 111.289 160.167C117.3 155.388 122.954 150.181 128.205 144.587C139.299 133.066 149.839 120.485 158.073 106.752C160.326 103.007 163.686 98.0847 163.646 93.5287C163.607 88.9727 159.878 83.8014 157.388 80.0571C148.403 66.507 137.019 54.3053 125.162 43.0855ZM100.037 30.6613C105.703 34.6674 111.421 39.59 115.32 45.3635C115.676 45.9003 114.899 46.424 114.464 46.0181C109.352 41.2396 104.609 36.2253 99.2074 31.7217C98.6145 31.2242 99.405 30.2162 100.037 30.6613ZM97.4024 37.4691C100.933 41.1086 105.044 44.6042 108.048 48.6758C108.39 49.134 107.692 49.5529 107.31 49.2387C103.437 46.0443 100.196 41.7763 96.77 38.0975C96.3616 37.6785 96.9677 37.0632 97.3629 37.4691H97.4024ZM96.7041 43.3997C98.4757 45.2137 100.064 47.1957 101.447 49.3173C101.499 49.3976 101.518 49.4942 101.501 49.588C101.484 49.6818 101.433 49.7659 101.356 49.8235C101.28 49.8812 101.185 49.9083 101.089 49.8994C100.994 49.8905 100.905 49.8463 100.841 49.7755C99.0203 48.0655 97.3701 46.1846 95.9137 44.159C95.4525 43.6223 96.1772 42.863 96.6646 43.3997H96.7041ZM96.4143 48.283C97.0203 48.99 97.6132 49.71 98.1929 50.4432C98.3117 50.5612 98.3785 50.7213 98.3785 50.8883C98.3785 51.0553 98.3117 51.2154 98.1929 51.3334C98.0741 51.4515 97.913 51.5178 97.745 51.5178C97.577 51.5178 97.4158 51.4515 97.297 51.3334C96.5592 50.7574 95.8346 50.1682 95.1232 49.566C94.1746 48.8067 95.6106 47.3797 96.3748 48.283H96.4143ZM87.0733 160.664C80.6439 159.067 75.0972 154.511 70.934 149.536C70.3543 148.855 71.3424 147.847 71.9352 148.541C76.3093 153.621 81.6188 156.684 87.4422 159.8C87.8901 160.062 87.5476 160.782 87.0337 160.664H87.0733ZM79.7612 147.939C81.9219 150.256 84.57 151.866 86.8888 153.961C86.9787 154.049 87.0365 154.164 87.0532 154.288C87.0699 154.412 87.0445 154.538 86.9811 154.646C86.9176 154.754 86.8196 154.838 86.7027 154.885C86.5858 154.932 86.4566 154.938 86.3355 154.904C83.3448 153.856 80.7888 151.251 78.7862 148.908C78.2065 148.24 79.1419 147.271 79.7612 147.939ZM89.9981 151.775C88.0672 150.358 86.2682 148.772 84.6227 147.035C83.8718 146.328 84.9916 145.229 85.7558 145.909C87.5805 147.361 89.2734 148.969 90.8149 150.714C91.2497 151.251 90.6964 152.22 89.9981 151.762V151.775ZM93.5422 146.957C92.9418 146.388 92.4112 145.751 91.9612 145.059C91.3989 144.38 90.7626 143.765 90.064 143.226C89.2735 142.636 90.064 141.288 90.8545 141.916C91.684 142.496 92.4404 143.173 93.1074 143.933C93.8159 144.609 94.3065 145.479 94.5171 146.433C94.5123 146.544 94.4786 146.652 94.4194 146.746C94.3601 146.84 94.2774 146.917 94.1791 146.97C94.0809 147.023 93.9706 147.049 93.8589 147.047C93.7473 147.045 93.6381 147.014 93.5422 146.957ZM140.867 126.35C136.914 129.479 133.067 132.621 129.009 135.606C127.389 136.798 125.557 138.814 123.41 138.355C121.605 137.963 119.55 135.462 118.232 134.336C114.477 131.103 110.841 127.79 107.191 124.399C103.283 120.804 99.3874 117.186 95.5052 113.546C93.3972 111.582 94.4776 111.478 92.5936 112.342C91.1575 112.996 89.6819 114.855 88.5489 115.903C81.2499 122.697 73.7797 130.108 68.2463 138.499C68.0328 138.846 67.6926 139.096 67.2972 139.199C66.9017 139.302 66.4816 139.248 66.1251 139.049L46.6525 126.35C46.4239 126.208 46.2354 126.01 46.1047 125.775C45.9741 125.54 45.9055 125.276 45.9055 125.008C45.9055 124.74 45.9741 124.476 46.1047 124.241C46.2354 124.007 46.4239 123.809 46.6525 123.666C57.2099 115.796 66.7933 106.713 75.2026 96.6053C64.162 87.0613 53.5167 77.0591 42.4497 67.5412C42.2032 67.2833 42.0658 66.9412 42.0658 66.5855C42.0658 66.2298 42.2032 65.8877 42.4497 65.6298C46.6789 61.532 57.6009 51.9618 58.8921 52.983C65.1897 57.9448 71.0525 63.4565 76.9417 68.8635C79.5767 71.3248 82.2776 73.7861 84.9784 76.2081C86.2959 77.334 89.0495 80.6986 90.7754 81.0914C92.8571 81.5627 99.9979 73.9039 102.488 71.6652C108.601 66.0487 114.622 60.2228 120.235 54.1744C120.471 53.94 120.779 53.7899 121.11 53.7473C121.441 53.7047 121.777 53.772 122.066 53.9387C127.942 57.9448 132.066 63.6791 138.311 67.5412C138.507 67.6583 138.674 67.8179 138.799 68.0082C138.924 68.1985 139.004 68.4145 139.033 68.64C139.062 68.8655 139.04 69.0946 138.967 69.3102C138.894 69.5258 138.774 69.7222 138.614 69.8847C128.759 79.5858 117.257 87.3624 106.783 96.3173C118.258 105.482 129.352 115.091 140.853 124.216C140.995 124.356 141.107 124.522 141.184 124.705C141.26 124.889 141.3 125.085 141.3 125.283C141.3 125.481 141.26 125.678 141.184 125.861C141.107 126.044 140.995 126.21 140.853 126.35H140.867Z"
            fill="#E53C46" />
        <path
            d="M103.357 95.283C113.726 86.2627 125.162 78.5515 135.135 69.0468C130.855 66.1319 126.882 62.7939 123.278 59.0838C121.13 56.9499 121.513 57.2117 119.325 59.4635C117.402 61.4666 115.373 63.3911 113.449 65.381C109.392 69.3086 105.255 73.2362 101.012 77.0329C98.5881 79.1799 95.8214 82.2696 92.8438 83.6705C88.5224 85.7259 84.0298 79.612 81.1445 76.9805C73.2395 69.8061 65.5717 62.2914 57.2056 55.6276C53.3717 59.385 49.3006 62.815 45.3481 66.5462C56.4678 76.0117 67.2054 85.9223 78.3514 95.3485C78.6324 95.6387 78.7893 96.0258 78.7893 96.4285C78.7893 96.8313 78.6324 97.2184 78.3514 97.5086C70.0622 107.71 60.5897 116.903 50.1307 124.897L66.4939 135.593C71.6717 128.065 78.3514 121.375 84.9389 115.104C88.2589 111.962 92.0006 106.28 96.2693 110.011C104.174 116.937 111.592 124.413 119.523 131.377C120.682 132.386 122.975 134.978 124.385 135.593C124.385 135.593 133.607 128.314 137.375 125.277C125.913 116.112 114.846 106.516 103.357 97.4039C103.076 97.1219 102.918 96.7407 102.918 96.3434C102.918 95.9462 103.076 95.565 103.357 95.283Z"
            fill="white" />
        <path
            d="M133.897 31.5384C126.701 24.4908 119.038 17.9301 110.96 11.9006C105.821 8.16936 99.5369 2.36964 93.0284 2.36964C88.9837 2.36964 80.4991 7.86824 75.5584 11.2067C66.5167 17.4106 57.8949 24.1981 49.7487 31.5253C34.0047 45.4421 17.3911 60.9822 6.67983 79.2323C3.95262 83.8669 1.31763 89.0251 2.83275 94.4059C4.67724 100.808 8.6956 106.712 12.266 112.185C23.589 129.459 36.8877 145.371 51.8962 159.604C59.2404 166.86 67.3655 173.292 76.125 178.783C82.3304 182.501 90.4198 186.782 97.9559 185.696C104.609 184.727 110.946 179.778 116.085 175.798C123.47 169.919 130.422 163.523 136.888 156.658C150.629 142.388 163.686 126.808 173.883 109.802C176.676 105.141 180.813 99.0404 180.774 93.3716C180.734 87.7028 176.294 81.5889 173.29 77.0198C162.315 60.3407 148.297 45.3373 133.897 31.5384ZM154.252 117.212C144.05 131.813 132.189 145.198 118.904 157.103C110.116 164.867 100.156 173.468 87.798 169.409C72.4755 164.356 59.4982 151.081 48.866 139.573C37.8781 127.712 26.7058 114.41 19.6308 99.7866C14.7824 89.7713 19.4859 82.3089 25.7967 73.8908C36.1258 60.0919 48.9451 47.8772 62.1859 36.8669C68.0843 31.8222 74.3508 27.2187 80.9338 23.0941C84.3988 20.9863 90.3012 17.661 93.8585 17.661C100.143 17.661 105.611 23.1465 110.472 26.8253C118.407 33.0176 125.891 39.7593 132.869 47C140.245 54.4103 147.161 62.258 153.58 70.5C157.876 76.051 162.487 82.034 165.003 88.6454C168.837 98.6084 159.654 109.579 154.252 117.212Z"
            fill="white" />
        <path
            d="M106.783 96.3173C117.323 87.3624 128.759 79.5858 138.614 69.8847C138.774 69.7222 138.895 69.5258 138.967 69.3102C139.04 69.0946 139.063 68.8655 139.033 68.64C139.004 68.4145 138.924 68.1985 138.799 68.0082C138.674 67.8179 138.507 67.6583 138.311 67.5412C132.066 63.6137 127.942 57.9448 122.066 53.9387C121.777 53.772 121.441 53.7047 121.11 53.7473C120.779 53.7899 120.471 53.94 120.235 54.1744C114.622 60.2228 108.601 66.0487 102.488 71.6652C100.051 73.9039 92.8572 81.5627 90.7756 81.0914C89.0497 80.6986 86.2434 77.334 84.9786 76.2081C82.3436 73.7861 79.6164 71.3248 76.9419 68.8635C71.0527 63.4435 65.1898 57.9448 58.8922 52.983C57.5747 51.9618 46.679 61.5189 42.4499 65.6298C42.2034 65.8877 42.0659 66.2298 42.0659 66.5855C42.0659 66.9412 42.2034 67.2833 42.4499 67.5412C53.5168 77.0591 64.1622 87.0613 75.2028 96.6053C66.7934 106.713 57.2101 115.796 46.6527 123.666C46.424 123.809 46.2355 124.007 46.1049 124.241C45.9742 124.476 45.9057 124.74 45.9057 125.008C45.9057 125.276 45.9742 125.54 46.1049 125.775C46.2355 126.01 46.424 126.208 46.6527 126.35L66.1253 139.049C66.4818 139.248 66.9018 139.302 67.2973 139.199C67.6928 139.096 68.0329 138.846 68.2464 138.499C73.7799 130.108 81.2501 122.697 88.5885 115.903C89.7216 114.855 91.2235 112.996 92.6332 112.342C94.5173 111.478 93.4369 111.582 95.5449 113.546C99.4271 117.186 103.323 120.795 107.231 124.373C110.881 127.725 114.517 131.076 118.272 134.31C119.589 135.436 121.644 137.936 123.449 138.329C125.597 138.787 127.402 136.771 129.049 135.58C133.001 132.595 136.954 129.453 140.906 126.324C141.048 126.184 141.16 126.018 141.236 125.835C141.313 125.652 141.352 125.455 141.352 125.257C141.352 125.059 141.313 124.862 141.236 124.679C141.16 124.496 141.048 124.33 140.906 124.19C129.352 115.091 118.259 105.469 106.783 96.3173ZM124.385 135.593C122.975 134.978 120.683 132.386 119.523 131.377C111.618 124.439 104.188 116.976 96.2695 110.011C92.0009 106.28 88.2592 111.962 84.9391 115.104C78.3516 121.375 71.6719 128.065 66.4942 135.593L50.1309 124.897C60.6162 116.916 70.1153 107.732 78.4307 97.5348C78.7116 97.2446 78.8686 96.8575 78.8686 96.4547C78.8686 96.052 78.7116 95.6649 78.4307 95.3746C67.2847 85.9223 56.5471 76.0117 45.4274 66.5724C49.3008 62.8412 53.4246 59.4111 57.2849 55.6538C65.651 62.3175 73.3056 69.8323 81.2237 77.0067C84.1091 79.6251 88.6017 85.7521 92.9231 83.6967C95.9006 82.2827 98.6674 79.2061 101.092 77.0591C105.334 73.2886 109.471 69.3872 113.529 65.4072C115.505 63.4565 117.481 61.4797 119.405 59.4897C121.565 57.2379 121.183 56.976 123.357 59.11C126.961 62.8201 130.934 66.158 135.215 69.073C125.162 78.5515 113.726 86.2627 103.358 95.283C103.076 95.565 102.918 95.9462 102.918 96.3434C102.918 96.7407 103.076 97.1219 103.358 97.4039C114.846 106.568 125.913 116.125 137.375 125.277C133.607 128.301 124.385 135.593 124.385 135.593Z"
            fill="#143A51" />
        <path
            d="M84.0296 185.617C85.3471 186.102 86.5724 186.56 87.8636 186.927C93.2564 188.551 99.0496 188.264 104.253 186.115L106.717 185.041C113.647 181.729 119.892 176.139 125.61 171.072C141.956 156.309 156.544 139.731 169.087 121.663C175.582 112.394 186.504 99.2369 181.788 87.2447C178.52 78.9314 172.723 71.4297 167.295 64.4386C159.464 54.4797 151.057 44.9809 142.118 35.9898C133.647 27.2408 124.578 19.0826 114.978 11.5734C108.983 6.99124 102 1.30935 94.3061 0.0787071C89.4709 -0.667532 82.5145 4.25503 78.1404 6.95197C70.2934 11.9153 62.8089 17.4232 55.743 23.4347C39.2744 37.1288 23.3063 52.3678 10.4607 69.5314C6.35016 75.0561 1.58083 81.5105 0.223812 88.423C-0.685259 93.0968 1.30416 97.4302 3.35945 101.515C12.2657 119.503 25.9281 135.816 39.5247 150.426C51.3821 163.165 65.7033 177.919 82.396 184.937M173.909 109.802C163.712 126.822 150.655 142.388 136.914 156.658C130.448 163.523 123.496 169.92 116.111 175.798C110.972 179.726 104.635 184.727 97.9819 185.696C90.4459 186.783 82.3564 182.502 76.151 178.783C67.3915 173.292 59.2664 166.86 51.9223 159.604C36.9045 145.373 23.5969 129.46 12.2657 112.185C8.6953 106.712 4.67694 100.808 2.83245 94.406C1.31733 89.0252 3.95232 83.867 6.67954 79.2325C17.3908 60.9823 34.0044 45.4422 49.7484 31.5255C57.8934 24.1847 66.5152 17.3841 75.5582 11.1676C80.4988 7.85531 88.9834 2.33052 93.0281 2.33052C99.5366 2.33052 105.821 8.13024 110.959 11.8614C119.038 17.891 126.701 24.4516 133.897 31.4993C148.297 45.2982 162.315 60.3015 173.29 76.9807C176.294 81.5497 180.734 87.6113 180.773 93.3325C180.813 99.0536 176.676 105.141 173.909 109.802Z"
            fill="#143A51" />
        <path
            d="M153.633 70.5262C147.214 62.2842 140.297 54.4365 132.922 47.0262C125.944 39.7855 118.46 33.0438 110.525 26.8515C105.663 23.1465 100.196 17.6872 93.9112 17.6872C90.354 17.6872 84.4516 21.0125 80.9866 23.1203C74.3863 27.2343 68.1022 31.8291 62.186 36.8669C48.9451 47.8772 36.1259 60.0919 25.7968 73.8908C19.486 82.3089 14.7825 89.7713 19.6309 99.7866C26.7058 114.41 37.8782 127.712 48.8661 139.573C59.4983 151.068 72.4756 164.356 87.7981 169.409C100.156 173.468 110.116 164.867 118.904 157.103C132.189 145.198 144.05 131.813 154.253 117.212C159.654 109.579 168.837 98.6084 165.056 88.6716C162.54 82.0602 157.928 76.0772 153.633 70.5262ZM158.1 106.765C149.865 120.498 139.325 133.079 128.232 144.6C122.981 150.194 117.327 155.401 111.315 160.18C107.047 163.479 101.724 167.655 96.1378 168.218C82.6071 169.527 67.8907 155.021 59.1426 146.643C47.1214 135.189 36.4634 122.402 27.3778 108.532C24.5583 104.186 21.0801 99.2237 19.789 94.1309C18.6691 89.6797 20.922 85.5819 23.1749 81.8114C31.8704 67.227 45.1639 54.7504 57.7987 43.5699C64.3022 37.7203 71.1712 32.2851 78.3648 27.2967C82.4095 24.5343 89.7875 20.227 93.1603 20.1877C101.447 20.0961 116.691 34.9685 125.162 43.0855C136.927 54.3053 148.376 66.507 157.362 80.0702C159.852 83.8145 163.58 88.8287 163.62 93.5418C163.659 98.2549 160.326 103.02 158.1 106.765Z"
            fill="#143A51" />
        <path
            d="M114.464 46.0181C114.899 46.424 115.676 45.9003 115.32 45.3635C111.368 39.59 105.703 34.6674 100.037 30.6613C99.405 30.2162 98.6145 31.2242 99.2074 31.7217C104.609 36.2253 109.352 41.2395 114.464 46.0181Z"
            fill="#143A51" />
        <path
            d="M107.27 49.2387C107.652 49.5529 108.351 49.134 108.008 48.6758C105.004 44.6042 100.894 41.1086 97.3628 37.4691C96.9675 37.0632 96.3615 37.6785 96.7436 38.0975C100.13 41.7763 103.397 46.0443 107.27 49.2387Z"
            fill="#143A51" />
        <path
            d="M100.814 49.7493C100.879 49.8201 100.967 49.8643 101.063 49.8732C101.158 49.8821 101.253 49.855 101.33 49.7974C101.406 49.7397 101.458 49.6556 101.475 49.5618C101.491 49.468 101.472 49.3714 101.421 49.2911C100.034 47.1689 98.4405 45.1869 96.6644 43.3735C96.2033 42.8368 95.4523 43.5961 95.887 44.1329C97.3435 46.1584 98.9937 48.0393 100.814 49.7493Z"
            fill="#143A51" />
        <path
            d="M97.2573 51.3334C97.3161 51.3919 97.3859 51.4382 97.4628 51.4699C97.5397 51.5015 97.622 51.5178 97.7052 51.5178C97.7884 51.5178 97.8708 51.5015 97.9477 51.4699C98.0245 51.4382 98.0944 51.3919 98.1532 51.3334C98.212 51.275 98.2587 51.2056 98.2905 51.1292C98.3223 51.0528 98.3387 50.971 98.3387 50.8883C98.3387 50.8056 98.3223 50.7238 98.2905 50.6474C98.2587 50.571 98.212 50.5016 98.1532 50.4432C97.5735 49.71 96.9806 48.99 96.3746 48.283C95.6104 47.3797 94.1744 48.8067 95.0571 49.5922C95.8037 50.177 96.5371 50.7574 97.2573 51.3334Z"
            fill="#143A51" />
        <path
            d="M87.4025 159.8C81.5791 156.684 76.2696 153.621 71.8956 148.541C71.3027 147.847 70.3146 148.855 70.8943 149.536C75.0576 154.511 80.6042 159.067 87.0336 160.664C87.5474 160.782 87.8899 160.062 87.4025 159.8Z"
            fill="#143A51" />
        <path
            d="M86.3354 154.891C86.4565 154.925 86.5857 154.918 86.7026 154.872C86.8195 154.825 86.9175 154.741 86.9809 154.633C87.0444 154.525 87.0698 154.399 87.0531 154.275C87.0364 154.151 86.9786 154.036 86.8887 153.948C84.5699 151.84 81.9218 150.243 79.7611 147.926C79.1418 147.271 78.2064 148.24 78.7861 148.894C80.7887 151.238 83.3446 153.843 86.3354 154.891Z"
            fill="#143A51" />
        <path
            d="M85.7559 145.896C84.9918 145.216 83.8719 146.315 84.6229 147.022C86.2684 148.759 88.0674 150.345 89.9983 151.762C90.6966 152.22 91.3158 151.251 90.8151 150.701C89.2736 148.955 87.5807 147.348 85.7559 145.896Z"
            fill="#143A51" />
        <path
            d="M90.907 141.89C90.077 141.288 89.326 142.636 90.1165 143.199C90.8151 143.739 91.4514 144.354 92.0137 145.032C92.4637 145.725 92.9943 146.362 93.5947 146.931C93.6925 146.988 93.804 147.019 93.9178 147.02C94.0317 147.021 94.1437 146.993 94.2427 146.937C94.3417 146.881 94.424 146.8 94.4815 146.703C94.5389 146.605 94.5693 146.494 94.5696 146.381C94.359 145.427 93.8684 144.557 93.1599 143.88C92.4913 143.13 91.735 142.462 90.907 141.89Z"
            fill="#143A51" />
    </g>
    <defs>
        <clipPath id="clip0_12_492">
            <rect width="183" height="188" fill="white" />
        </clipPath>
    </defs>
</svg>
