<svg width="174" height="176" viewBox="0 0 174 176" fill="none" xmlns="http://www.w3.org/2000/svg">
    <g clip-path="url(#clip0_67_317)">
        <path
            d="M136.316 66.7613C136.828 66.174 138.261 65.0504 138.465 64.3099C138.465 64.1695 138.581 64.1822 138.657 64.3099L138.491 64.0035C137.211 61.7053 131.76 59.3944 129.611 57.7857C127.81 56.4938 126.135 55.0362 124.607 53.432C115.433 63.646 106.284 73.9494 97.0576 84.1634C90.0838 91.8366 83.2508 100.059 75.4964 107.03C70.8258 111.243 70.7107 108.205 68.2794 103.621C62.8539 93.4071 56.3664 83.8697 50.992 73.6302C45.4715 77.4718 39.5973 80.7807 33.4487 83.5122C44.9651 100.621 57.1341 117.206 69.2775 133.88C86.5265 117.844 103.456 101.438 119.809 84.4826C123.597 80.5502 127.346 76.5795 131.057 72.5705C132.822 70.6426 134.576 68.7147 136.316 66.7613Z"
            fill="white" />
        <path d="M72.5918 106.315C72.7581 106.609 72.8861 106.315 72.5918 106.315V106.315Z"
            fill="#8AAF79" />
        <path d="M98.7725 174.813C93.0057 175.722 87.1684 176.111 81.3315 175.974L98.7725 174.813Z"
            fill="#D2D3D6" />
        <path
            d="M94.1527 17.9384C77.6086 17.8994 61.3688 22.3764 47.1914 30.8846C32.5016 39.9112 23.3013 55.3854 19.0402 72.0215C11.3626 101.859 26.0268 136.689 53.5894 151.512C76.9293 164.088 110.276 159.045 130.493 142.677C152.106 125.185 162.637 92.1303 152.579 65.8931C142.586 39.9623 122.368 20.9132 94.1527 17.9384ZM66.7309 27.8332C74.5338 23.4866 83.565 21.856 92.3997 23.1986C93.4234 23.339 93.1674 25.1009 92.1566 24.9988C83.6369 24.1944 75.0525 25.5744 67.2172 29.0078C66.539 29.2887 66.1295 28.1907 66.7309 27.8332ZM83.5833 37.6769C82.2128 37.706 80.8491 37.8772 79.5141 38.1876C79.3629 38.1896 79.2151 38.1421 79.0936 38.0522C78.972 37.9624 78.8834 37.8352 78.8412 37.6903C78.7991 37.5453 78.8058 37.3905 78.8603 37.2497C78.9148 37.109 79.0142 36.9899 79.143 36.9109C80.4977 36.4592 81.9031 36.1762 83.3273 36.0682C84.5059 35.8046 85.741 36.0108 86.7694 36.6427C86.8275 36.7024 86.8712 36.7743 86.8973 36.8533C86.9234 36.9322 86.9312 37.016 86.9201 37.0984C86.909 37.1807 86.8793 37.2595 86.8333 37.3288C86.7872 37.398 86.726 37.456 86.6543 37.4982C85.6595 37.8011 84.6066 37.8624 83.5833 37.6769ZM86.1424 44.2266C85.7202 44.8267 85.042 44.8012 84.3638 44.8139C83.6856 44.8267 82.6875 44.8139 81.8046 44.7246C81.6197 44.7006 81.4498 44.6103 81.3267 44.4705C81.2036 44.3307 81.1358 44.151 81.1358 43.9649C81.1358 43.7788 81.2036 43.5991 81.3267 43.4593C81.4498 43.3195 81.6197 43.2292 81.8046 43.2052C82.6363 43.2052 83.4809 43.1031 84.3638 43.1159C85.2467 43.1286 85.7202 43.1159 86.1424 43.7032C86.1942 43.7792 86.226 43.8669 86.235 43.9584C86.2439 44.0499 86.2297 44.1421 86.1936 44.2266H86.1424ZM75.0611 33.1955C74.2806 33.5147 73.7815 32.1869 74.4981 31.8549C78.9836 29.6745 83.9694 28.7228 88.9448 29.0972C89.1427 29.122 89.3248 29.2181 89.4567 29.3673C89.5887 29.5166 89.6616 29.7088 89.6616 29.9079C89.6616 30.107 89.5887 30.2992 89.4567 30.4484C89.3248 30.5977 89.1427 30.6938 88.9448 30.7186C84.2061 30.7143 79.5046 31.553 75.0611 33.1955ZM37.4025 127.56C32.089 123.291 28.4402 117.302 27.0889 110.63C27.0448 110.461 27.0699 110.281 27.1587 110.13C27.2475 109.98 27.3927 109.87 27.5624 109.826C27.732 109.782 27.9123 109.807 28.0635 109.896C28.2147 109.984 28.3244 110.129 28.3685 110.298C30.2741 116.428 33.6725 121.99 38.2598 126.488C38.7333 127.024 38.0295 128.033 37.4025 127.56ZM44.018 124.266C39.1555 122.721 36.2508 117.806 35.8158 112.916C35.739 112.086 36.993 112.124 37.0954 112.916C37.6968 117.55 40.6783 120.768 44.4659 123.219C44.5852 123.291 44.6745 123.403 44.7174 123.535C44.7603 123.667 44.7538 123.81 44.6992 123.937C44.6446 124.065 44.5456 124.169 44.4203 124.229C44.2951 124.289 44.1522 124.303 44.018 124.266ZM49.3923 122.338C46.8331 119.976 44.9777 116.669 42.9304 113.899C42.5337 113.363 43.455 112.622 43.8645 113.184C45.9886 115.903 48.6758 118.597 50.2625 121.662C50.3201 121.778 50.3358 121.91 50.307 122.036C50.2781 122.162 50.2065 122.275 50.1042 122.354C50.0018 122.434 49.8751 122.476 49.7454 122.473C49.6157 122.47 49.491 122.422 49.3923 122.338ZM69.8659 136.382C69.7417 136.501 69.5924 136.591 69.4289 136.644C69.2655 136.698 69.0921 136.714 68.9215 136.692C68.7509 136.67 68.5874 136.61 68.4431 136.517C68.2987 136.423 68.1771 136.299 68.0873 136.153C55.7775 119.07 28.9955 83.0781 30.2751 82.3376C36.7627 78.5967 44.6962 74.6771 50.7487 70.2213C51.0857 70.0291 51.4847 69.9763 51.8602 70.0742C52.2357 70.172 52.5579 70.4127 52.7577 70.7447C57.9529 80.8821 64.0182 90.3939 69.6868 100.238C70.3906 101.514 71.0816 102.689 71.6702 103.966C71.9445 104.4 72.1516 104.874 72.2844 105.37C72.3092 105.6 72.3563 105.826 72.4251 106.047C74.0677 104.697 75.58 103.197 76.9421 101.565C93.193 85.1209 108.19 67.438 123.673 50.3167C123.823 50.1709 124.004 50.0606 124.202 49.994C124.4 49.9274 124.611 49.9062 124.819 49.9319C125.027 49.9577 125.226 50.0297 125.402 50.1428C125.578 50.2558 125.726 50.4069 125.836 50.5849C128.51 54.3385 132.976 56.8792 136.712 59.5221C137.838 60.3009 141.344 61.9862 141.703 63.6077C142.189 65.8548 138.376 68.4721 137.058 69.9276C133.364 74.0217 129.602 78.0563 125.772 82.0312C107.78 100.736 89.0216 118.738 69.9043 136.395L69.8659 136.382ZM125.657 110.388C126.952 109.565 128.381 108.973 129.879 108.639C130.314 108.639 130.493 109.2 130.225 109.469C129.078 110.411 127.78 111.153 126.386 111.665C125.593 112.086 124.838 110.835 125.695 110.401L125.657 110.388ZM130.007 116.184L132.362 113.822C133.016 112.993 133.803 112.277 134.69 111.703C134.809 111.642 134.943 111.62 135.074 111.641C135.206 111.661 135.327 111.723 135.421 111.817C135.515 111.91 135.577 112.032 135.597 112.163C135.618 112.294 135.596 112.428 135.535 112.546C134.966 113.447 134.248 114.246 133.411 114.908C132.63 115.699 131.837 116.478 131.044 117.257C130.901 117.394 130.71 117.469 130.512 117.465C130.314 117.462 130.125 117.38 129.988 117.238C129.851 117.095 129.775 116.904 129.779 116.707C129.783 116.509 129.865 116.321 130.007 116.184ZM132.682 123.321C134.652 120.637 136.788 118.078 139.08 115.661C139.489 115.265 140.218 115.788 139.886 116.286C137.916 119.012 135.779 121.613 133.488 124.075C132.989 124.675 132.246 123.909 132.682 123.36V123.321ZM134.281 130.982C133.667 131.416 132.925 130.433 133.488 129.948C136.214 127.62 138.608 124.931 140.602 121.955C142.419 119.146 143.366 116.018 144.851 113.018C144.895 112.849 145.004 112.704 145.156 112.615C145.307 112.527 145.487 112.502 145.657 112.546C145.826 112.59 145.972 112.699 146.06 112.85C146.149 113.001 146.174 113.181 146.13 113.35C145.35 120.295 139.732 127.139 134.281 131.007V130.982Z"
            fill="#99CC65" />
        <path
            d="M140.654 21.8835C128.177 10.4693 106.104 -3.5877 64.1847 6.56246C54.5621 8.80954 45.6945 13.674 37.6842 19.4704C21.0741 31.5955 9.29092 49.1857 4.41458 69.136C-4.54262 105.166 13.1542 147.018 46.2575 164.982C74.7414 180.443 115.573 174.251 140.155 154.053C166.949 132.041 179.349 90.5854 165.401 58.2964C159.63 44.916 151.517 31.8166 140.654 21.8835ZM123.456 150.656C99.9879 164.216 65.9889 165.326 44.1206 148.039C17.9144 127.254 7.51121 92.0026 20.3072 60.9009C26.0654 46.9333 36.5965 35.2766 49.2134 26.9777C70.0709 13.2526 93.5387 14.9762 94.1529 15.0401C110.174 16.7509 124.863 22.7006 136.137 34.4978C147.41 46.2949 156.29 62.2288 158.478 78.1371C162.317 106.085 147.986 136.51 123.456 150.656Z"
            fill="white" />
        <path
            d="M137.058 69.8637C138.338 68.4082 142.176 65.7909 141.703 63.5438C141.345 61.9223 137.864 60.237 136.713 59.4582C132.976 56.9047 128.51 54.3512 125.836 50.521C125.726 50.343 125.578 50.1919 125.402 50.0789C125.226 49.9659 125.027 49.8938 124.819 49.868C124.612 49.8423 124.401 49.8635 124.202 49.9301C124.004 49.9967 123.823 50.107 123.673 50.2529C108.19 67.4379 93.1934 85.1209 76.9808 101.565C75.6187 103.197 74.1064 104.697 72.4638 106.047C72.395 105.826 72.3479 105.6 72.3231 105.37C72.1903 104.874 71.9832 104.4 71.7089 103.966C71.1203 102.689 70.4293 101.412 69.7255 100.238C64.0569 90.3939 57.9916 80.8821 52.7964 70.7447C52.5966 70.4127 52.2744 70.172 51.8989 70.0741C51.5234 69.9763 51.1244 70.0291 50.7874 70.2212C44.6965 74.6132 36.7118 78.5967 30.3138 82.3376C29.0342 83.0781 55.8162 119.07 68.1644 136.165C68.2542 136.312 68.3758 136.436 68.5201 136.53C68.6645 136.623 68.828 136.683 68.9986 136.705C69.1692 136.727 69.3426 136.711 69.506 136.657C69.6694 136.603 69.8188 136.514 69.943 136.395C89.0219 118.738 107.781 100.736 125.772 81.9673C129.585 77.9839 133.347 73.9493 137.058 69.8637ZM72.5918 106.315C72.7581 106.609 72.8861 106.315 72.5918 106.315V106.315ZM69.2648 133.88C57.1342 117.206 44.9524 100.684 33.436 83.5122C39.5846 80.7807 45.4589 77.4717 50.9793 73.6301C56.3537 83.8441 62.8412 93.4325 68.2667 103.621C70.698 108.205 70.8259 111.282 75.4837 107.03C83.2381 100.059 90.0711 91.8366 97.0449 84.0484C106.271 73.8344 115.42 63.6204 124.595 53.3171C126.122 54.9212 127.797 56.3788 129.598 57.6708C131.748 59.2795 137.276 61.5904 138.478 63.8885L138.645 64.195C138.568 64.1184 138.491 64.1056 138.453 64.195C138.248 64.9355 136.815 66.059 136.303 66.6463C134.563 68.5998 132.81 70.4766 131.044 72.4555C127.35 76.4645 123.601 80.4352 119.796 84.3676C103.456 101.438 86.5266 117.844 69.2648 133.88Z"
            fill="#143A51" />
        <path
            d="M100.474 174.519C111.559 172.615 122.207 168.722 131.901 163.028C161.626 145.371 178.504 107.873 172.951 73.8983C169.931 55.4492 159.016 36.5023 146.079 23.1091C132.528 9.20534 114.972 -2.84687e-05 95.7139 -2.84687e-05C85.5026 -0.369881 75.2934 0.787771 65.4257 3.43443C56.2494 5.91758 47.5101 9.79306 39.5138 14.9252C24.4913 24.3604 13.9858 37.9067 7.03757 54.2108C-9.11098 92.1303 3.4035 135.335 35.6494 160.717C48.0615 170.472 63.8006 175.285 79.7956 175.936M81.3311 175.936C87.168 176.073 93.0053 175.684 98.7721 174.774L81.3311 175.936ZM140.193 154.014C115.612 174.213 74.7796 180.405 46.2957 164.943C13.1924 147.031 -4.51722 105.166 4.45278 69.136C9.32911 49.1857 21.1123 31.5956 37.7224 19.4704C45.6943 13.674 54.5619 8.80955 64.1845 6.49863C106.053 -3.5877 128.165 10.4693 140.653 21.8835C151.517 31.8166 159.63 44.865 165.439 58.3475C179.387 90.6492 166.988 132.041 140.193 154.053V154.014Z"
            fill="#143A51" />
        <path
            d="M136.137 34.4722C124.876 22.7261 110.173 16.7254 94.1529 15.0146C93.5387 15.0146 70.0708 13.2271 49.2133 26.9522C36.5965 35.2766 26.0654 46.9333 20.3072 60.901C7.51116 92.0026 17.9143 127.254 44.1333 148.103C65.9889 165.39 99.9878 164.279 123.469 150.72C147.998 136.561 162.33 106.136 158.491 78.1881C156.29 62.2288 147.218 46.0523 136.137 34.4722ZM130.43 142.651C110.212 159.019 76.8655 164.062 53.5256 151.486C26.0142 136.663 11.3755 101.834 18.9764 71.9959C23.2502 55.3982 32.4506 39.8856 47.1276 30.859C61.305 22.3508 77.5447 17.8739 94.0889 17.9128C122.24 20.8876 142.522 39.9367 152.451 65.8675C162.573 92.1303 152.042 125.185 130.43 142.677V142.651Z"
            fill="#143A51" />
        <path
            d="M28.3302 110.298C28.3083 110.215 28.2701 110.136 28.2178 110.067C28.1655 109.998 28.1 109.94 28.0252 109.896C27.9503 109.852 27.8675 109.823 27.7815 109.811C27.6955 109.799 27.608 109.804 27.524 109.826C27.44 109.848 27.3611 109.886 27.2918 109.938C27.2226 109.99 27.1643 110.056 27.1203 110.13C27.0764 110.205 27.0476 110.288 27.0356 110.373C27.0236 110.459 27.0287 110.547 27.0506 110.63C28.4019 117.302 32.0507 123.291 37.3641 127.56C37.9911 128.032 38.6437 127.024 38.1831 126.488C33.6097 121.986 30.2247 116.424 28.3302 110.298Z"
            fill="#143A51" />
        <path
            d="M44.466 123.219C40.6272 120.768 37.6969 117.55 37.0955 112.916C36.9931 112.124 35.7391 112.086 35.8159 112.916C36.2509 117.806 39.1556 122.721 44.0181 124.266C44.1523 124.303 44.2952 124.289 44.4204 124.229C44.5457 124.169 44.6447 124.065 44.6993 123.937C44.7539 123.81 44.7604 123.667 44.7175 123.535C44.6746 123.403 44.5853 123.291 44.466 123.219Z"
            fill="#143A51" />
        <path
            d="M43.8645 113.184C43.4551 112.66 42.5849 113.363 42.9304 113.899C44.9778 116.669 46.8588 119.976 49.3924 122.338C49.491 122.422 49.6158 122.47 49.7455 122.473C49.8752 122.476 50.0019 122.434 50.1042 122.354C50.2065 122.275 50.2782 122.162 50.307 122.036C50.3359 121.91 50.3202 121.778 50.2625 121.662C48.6246 118.597 45.9887 115.903 43.8645 113.184Z"
            fill="#143A51" />
        <path
            d="M144.851 113.094C143.367 116.044 142.42 119.172 140.603 122.032C138.608 125.008 136.214 127.697 133.488 130.024C132.925 130.509 133.667 131.492 134.281 131.058C139.732 127.228 145.35 120.346 146.066 113.477C146.08 113.33 146.042 113.182 145.96 113.058C145.877 112.935 145.755 112.843 145.613 112.798C145.471 112.754 145.318 112.759 145.18 112.812C145.041 112.866 144.925 112.966 144.851 113.094Z"
            fill="#143A51" />
        <path
            d="M139.912 116.35C140.244 115.852 139.515 115.329 139.105 115.725C136.814 118.142 134.677 120.701 132.707 123.385C132.272 123.934 133.015 124.662 133.488 124.164C135.789 121.695 137.935 119.085 139.912 116.35Z"
            fill="#143A51" />
        <path
            d="M135.535 112.584C135.596 112.466 135.618 112.332 135.597 112.201C135.577 112.07 135.515 111.949 135.421 111.855C135.327 111.761 135.206 111.7 135.074 111.679C134.943 111.659 134.809 111.68 134.69 111.741C133.803 112.315 133.016 113.031 132.362 113.861L130.007 116.184C129.87 116.321 129.792 116.507 129.792 116.701C129.792 116.895 129.87 117.081 130.007 117.218C130.145 117.356 130.331 117.433 130.525 117.433C130.72 117.433 130.906 117.356 131.044 117.218C131.837 116.44 132.63 115.661 133.411 114.869C134.242 114.231 134.96 113.458 135.535 112.584Z"
            fill="#143A51" />
        <path
            d="M129.918 108.651C128.419 108.986 126.991 109.578 125.695 110.401C124.838 110.835 125.593 112.086 126.437 111.677C127.832 111.166 129.13 110.424 130.276 109.481C130.519 109.213 130.353 108.588 129.918 108.651Z"
            fill="#143A51" />
        <path
            d="M67.2172 29.0078C75.0449 25.5787 83.6199 24.1988 92.1311 24.9988C93.1419 25.1009 93.4107 23.339 92.3742 23.1986C83.5478 21.8618 74.5266 23.4922 66.731 27.8332C66.1296 28.1906 66.5391 29.2887 67.2172 29.0078Z"
            fill="#143A51" />
        <path
            d="M88.945 29.0971C83.9639 28.7425 78.9779 29.7163 74.4984 31.9187C73.7434 32.2507 74.2808 33.5785 75.0614 33.2593C79.5049 31.6168 84.2064 30.7781 88.945 30.7824C89.169 30.7824 89.3838 30.6936 89.5422 30.5356C89.7006 30.3776 89.7896 30.1633 89.7896 29.9398C89.7896 29.7163 89.7006 29.502 89.5422 29.3439C89.3838 29.1859 89.169 29.0971 88.945 29.0971Z"
            fill="#143A51" />
        <path
            d="M86.7695 36.5916C85.7411 35.9597 84.506 35.7535 83.3274 36.0171C81.9032 36.125 80.4978 36.4081 79.1431 36.8597C79.0142 36.9388 78.9149 37.0578 78.8604 37.1986C78.8059 37.3394 78.7992 37.4941 78.8413 37.6391C78.8834 37.7841 78.9721 37.9112 79.0936 38.0011C79.2152 38.0909 79.3629 38.1385 79.5142 38.1365C80.8492 37.826 82.2129 37.6549 83.5833 37.6258C84.6107 37.7947 85.6637 37.7159 86.6544 37.396C86.7178 37.353 86.7716 37.2973 86.8122 37.2324C86.8529 37.1676 86.8794 37.0949 86.8903 37.0192C86.9011 36.9435 86.896 36.8663 86.8752 36.7927C86.8544 36.719 86.8184 36.6505 86.7695 36.5916Z"
            fill="#143A51" />
        <path
            d="M81.8944 43.2052C81.7307 43.2485 81.5859 43.3446 81.4826 43.4785C81.3793 43.6124 81.3232 43.7767 81.3232 43.9457C81.3232 44.1147 81.3793 44.279 81.4826 44.4129C81.5859 44.5469 81.7307 44.643 81.8944 44.6862C82.7262 44.6862 83.5707 44.7884 84.4536 44.7756C85.3366 44.7628 85.81 44.7756 86.2323 44.1883C86.2759 44.1079 86.2988 44.018 86.2988 43.9266C86.2988 43.8351 86.2759 43.7452 86.2323 43.6648C85.81 43.0775 85.1318 43.0903 84.4536 43.0775C83.7754 43.0648 82.739 43.1797 81.8944 43.2052Z"
            fill="#143A51" />
    </g>
    <defs>
        <clipPath id="clip0_67_317">
            <rect width="174" height="176" fill="white" />
        </clipPath>
    </defs>
</svg>
