<svg width="344" height="215" viewBox="0 0 344 215" fill="none" xmlns="http://www.w3.org/2000/svg">
<path d="M95.0928 8.72607L160.323 0.836422L165.575 138.255L123.955 143.289L95.0928 8.72607Z" fill="url(#paint0_linear_168_257)"/>
<path d="M247.098 7.15076L181.782 0.000198626L178.087 137.469L219.761 142.032L247.098 7.15076Z" fill="url(#paint1_linear_168_257)"/>
<path d="M86.9758 30.01L32.9776 46.4123L76.444 156.154L110.897 145.689L86.9758 30.01Z" fill="url(#paint2_linear_168_257)"/>
<path d="M255.455 28.3411L309.636 44.1309L267.415 154.358L232.845 144.284L255.455 28.3411Z" fill="url(#paint3_linear_168_257)"/>
<path d="M35.9561 81.6323L0.181758 100.21L45.0516 171.59L67.8769 159.737L35.9561 81.6323Z" fill="url(#paint4_linear_168_257)"/>
<path d="M307.056 79.3826L343.039 97.5536L298.98 169.438L276.022 157.844L307.056 79.3826Z" fill="url(#paint5_linear_168_257)"/>
<g filter="url(#filter0_d_168_257)">
<path d="M23.0586 173.177C18.8681 154.739 16.7729 145.52 18.5712 141.547C19.3249 139.882 19.6346 139.416 20.8774 138.076C23.8426 134.878 29.4842 133.884 40.7674 131.894L46.7769 130.834C58.8224 128.711 64.8451 127.649 69.2469 130.731C73.6488 133.813 74.7107 139.836 76.8347 151.881L81.1193 176.18C83.2432 188.226 84.3052 194.248 81.223 198.65C78.1407 203.052 72.118 204.114 60.0726 206.238L55.4362 207.056C44.8717 208.918 39.5894 209.85 35.7152 207.869C34.4937 207.244 34.3128 207.124 33.2636 206.24C29.9357 203.436 27.6433 193.35 23.0586 173.177V173.177V173.177Z" fill="url(#paint6_linear_168_257)"/>
</g>
<g filter="url(#filter1_d_168_257)">
<path d="M319.434 173.177C323.624 154.739 325.72 145.52 323.921 141.547C323.167 139.882 322.858 139.416 321.615 138.076C318.65 134.878 313.008 133.884 301.725 131.894L295.715 130.834C283.67 128.711 277.647 127.649 273.246 130.731C268.844 133.813 267.782 139.836 265.658 151.881L261.373 176.18C259.249 188.226 258.187 194.248 261.269 198.65C264.352 203.052 270.374 204.114 282.42 206.238L287.056 207.056C297.621 208.918 302.903 209.85 306.777 207.869C307.999 207.244 308.18 207.124 309.229 206.24C312.557 203.436 314.849 193.35 319.434 173.177V173.177V173.177Z" fill="url(#paint7_linear_168_257)"/>
</g>
<g filter="url(#filter2_d_168_257)">
<path d="M43.3628 149.736C43.3628 135.463 43.3628 128.327 46.8887 122.273C48.485 119.533 51.0282 116.649 53.5475 114.722C59.1123 110.466 65.7222 109.633 78.9421 107.966C101.274 105.149 132.995 102.349 170.852 102.349C208.71 102.349 240.431 105.149 262.763 107.966C275.982 109.633 282.592 110.466 288.157 114.722C290.676 116.649 293.22 119.533 294.816 122.273C298.342 128.327 298.342 135.463 298.342 149.736V149.736C298.342 168.907 298.342 178.492 293.827 185.108C291.635 188.32 288.839 190.926 285.481 192.888C278.565 196.927 268.894 196.247 249.552 194.887C222.747 193.001 190.958 191.12 170.852 191.12C150.746 191.12 118.957 193.001 92.1531 194.887C72.8109 196.247 63.1398 196.927 56.2236 192.888C52.8656 190.926 50.0694 188.32 47.8774 185.108C43.3628 178.492 43.3628 168.907 43.3628 149.736V149.736Z" fill="url(#paint8_linear_168_257)"/>
</g>
<path d="M80.7547 146.176C80.7547 146.319 80.706 146.446 80.6087 146.558C80.5188 146.663 80.4065 146.727 80.2718 146.749C79.9124 146.831 79.553 146.899 79.1936 146.951C78.8417 147.004 78.4786 147.037 78.1043 147.052C77.8946 148.61 77.685 149.991 77.4754 151.196C77.2732 152.402 77.0636 153.484 76.8465 154.442C76.6293 155.393 76.4047 156.243 76.1726 156.991C75.9405 157.74 75.6935 158.436 75.4314 159.08C75.1769 159.724 74.9036 160.342 74.6116 160.933C74.3271 161.517 74.0201 162.12 73.6907 162.741C73.6458 162.824 73.5784 162.891 73.4886 162.943C73.4062 163.003 73.3126 163.033 73.2078 163.033C72.9757 163.033 72.7998 162.951 72.68 162.786C72.2158 162.112 71.7965 161.438 71.4221 160.765C71.0478 160.091 70.7109 159.443 70.4114 158.822C70.1194 158.193 69.8611 157.601 69.6365 157.047C69.4119 156.486 69.221 155.984 69.0638 155.542C68.6145 156.845 68.1466 158.069 67.6599 159.215C67.1733 160.353 66.6305 161.457 66.0315 162.528C65.9866 162.618 65.9155 162.693 65.8181 162.752C65.7283 162.82 65.631 162.854 65.5262 162.854C65.309 162.854 65.1406 162.752 65.0208 162.55C64.3694 161.495 63.7967 160.424 63.3025 159.338C62.8084 158.245 62.3779 157.178 62.011 156.138C61.6516 155.097 61.3447 154.101 61.0901 153.15C60.8356 152.192 60.6259 151.316 60.4612 150.522C60.304 149.729 60.1805 149.036 60.0906 148.445C60.0082 147.853 59.9484 147.397 59.9109 147.075C59.7237 147.06 59.5403 147.045 59.3606 147.03C59.1809 147.015 59.005 147 58.8328 146.985C58.6831 146.962 58.5558 146.895 58.451 146.783C58.3536 146.663 58.305 146.528 58.305 146.378C58.3274 146.199 58.3948 146.06 58.5071 145.963C58.6194 145.858 58.7504 145.806 58.9002 145.806H58.9451C59.7986 145.896 60.6746 145.94 61.573 145.94C62.2918 145.94 63.0068 145.914 63.718 145.862C64.4368 145.802 65.1331 145.716 65.8069 145.604H65.8968C66.069 145.604 66.2112 145.663 66.3235 145.783C66.4358 145.896 66.492 146.027 66.492 146.176C66.492 146.326 66.4433 146.457 66.346 146.569C66.2561 146.682 66.1363 146.749 65.9866 146.771C65.6497 146.816 65.309 146.861 64.9646 146.906C64.6277 146.951 64.2796 146.992 63.9202 147.03C63.9501 147.307 63.9951 147.674 64.055 148.13C64.1223 148.58 64.2084 149.092 64.3133 149.669C64.4181 150.238 64.5454 150.859 64.6951 151.533C64.8523 152.2 65.0358 152.892 65.2454 153.611C65.4625 154.322 65.7058 155.048 65.9754 155.79C66.2524 156.523 66.5631 157.246 66.9075 157.957C67.2594 157.126 67.5888 156.284 67.8958 155.43C68.2102 154.569 68.4873 153.704 68.7268 152.836C68.9664 151.967 69.1686 151.099 69.3333 150.23C69.498 149.354 69.6103 148.479 69.6702 147.603C69.6852 147.453 69.7413 147.329 69.8387 147.232C69.9435 147.127 70.0707 147.067 70.2205 147.052C70.3702 147.052 70.5013 147.097 70.6136 147.187C70.7259 147.277 70.8007 147.393 70.8382 147.535C70.9954 148.404 71.1863 149.272 71.4109 150.141C71.6355 151.002 71.8976 151.878 72.1971 152.769C72.504 153.652 72.8484 154.55 73.2303 155.464C73.6121 156.377 74.0351 157.313 74.4993 158.271C74.7239 157.695 74.9373 157.059 75.1394 156.362C75.3491 155.666 75.5512 154.872 75.7459 153.981C75.9405 153.09 76.1352 152.08 76.3299 150.949C76.5245 149.819 76.7192 148.527 76.9138 147.075C76.5769 147.06 76.24 147.037 75.9031 147.007C75.5737 146.97 75.233 146.921 74.8811 146.861C74.7464 146.839 74.6303 146.775 74.533 146.67C74.4431 146.558 74.3982 146.431 74.3982 146.289C74.3982 146.094 74.4619 145.948 74.5891 145.851C74.7239 145.746 74.8549 145.693 74.9822 145.693H75.0945C75.8432 145.828 76.5957 145.896 77.3518 145.896C77.8011 145.896 78.2465 145.873 78.6883 145.828C79.13 145.783 79.5717 145.708 80.0135 145.604H80.1482C80.3129 145.604 80.4552 145.663 80.575 145.783C80.6948 145.896 80.7547 146.027 80.7547 146.176ZM97.4193 154.015C97.4193 153.506 97.352 152.974 97.2172 152.42C97.0824 151.859 96.8915 151.312 96.6444 150.781C96.4049 150.242 96.1129 149.733 95.7685 149.253C95.4315 148.767 95.0572 148.344 94.6454 147.984C94.2411 147.618 93.8069 147.329 93.3427 147.12C92.8785 146.903 92.4031 146.794 91.9164 146.794C91.2576 146.794 90.6623 146.891 90.1308 147.086C89.5992 147.281 89.1238 147.546 88.7045 147.883C88.2927 148.213 87.9333 148.606 87.6264 149.062C87.3194 149.519 87.0648 150.01 86.8627 150.534C86.668 151.05 86.522 151.593 86.4247 152.162C86.3274 152.724 86.2787 153.281 86.2787 153.835C86.2787 154.442 86.3124 155.048 86.3798 155.655C86.4547 156.261 86.5744 156.845 86.7392 157.407C86.9114 157.961 87.1285 158.481 87.3905 158.968C87.6601 159.447 87.9895 159.866 88.3788 160.226C88.7681 160.577 89.2211 160.854 89.7377 161.057C90.2618 161.259 90.857 161.36 91.5233 161.36C92.0549 161.36 92.5678 161.255 93.0619 161.045C93.5635 160.836 94.0315 160.555 94.4657 160.203C94.9075 159.844 95.308 159.424 95.6674 158.945C96.0342 158.459 96.345 157.946 96.5995 157.407C96.8616 156.86 97.0637 156.299 97.206 155.722C97.3482 155.138 97.4193 154.569 97.4193 154.015ZM98.5873 154.015C98.5873 154.801 98.4862 155.561 98.2841 156.295C98.0894 157.021 97.8124 157.706 97.453 158.35C97.1011 158.994 96.6744 159.582 96.1728 160.113C95.6711 160.645 95.1171 161.102 94.5106 161.483C93.9117 161.865 93.2678 162.161 92.579 162.371C91.8902 162.58 91.1789 162.685 90.4452 162.685C89.704 162.685 88.9853 162.58 88.289 162.371C87.6002 162.168 86.9563 161.88 86.3573 161.506C85.7584 161.124 85.2081 160.671 84.7064 160.147C84.2123 159.615 83.7893 159.031 83.4374 158.395C83.0855 157.751 82.8122 157.059 82.6176 156.317C82.4229 155.576 82.3256 154.809 82.3256 154.015C82.3256 153.222 82.4229 152.454 82.6176 151.713C82.8122 150.972 83.0855 150.283 83.4374 149.646C83.7893 149.003 84.2123 148.419 84.7064 147.895C85.2081 147.363 85.7584 146.91 86.3573 146.536C86.9563 146.154 87.6002 145.862 88.289 145.66C88.9853 145.45 89.704 145.345 90.4452 145.345C91.2313 145.345 91.9763 145.458 92.6801 145.682C93.3913 145.907 94.0465 146.217 94.6454 146.614C95.2519 147.011 95.7984 147.483 96.2851 148.029C96.7717 148.576 97.1835 149.171 97.5204 149.815C97.8648 150.459 98.1269 151.136 98.3065 151.848C98.4937 152.559 98.5873 153.281 98.5873 154.015ZM123.226 146.176C123.226 146.319 123.177 146.446 123.08 146.558C122.99 146.663 122.877 146.727 122.743 146.749C122.383 146.831 122.024 146.899 121.665 146.951C121.313 147.004 120.95 147.037 120.575 147.052C120.366 148.61 120.156 149.991 119.946 151.196C119.744 152.402 119.535 153.484 119.317 154.442C119.1 155.393 118.876 156.243 118.644 156.991C118.411 157.74 118.164 158.436 117.902 159.08C117.648 159.724 117.375 160.342 117.083 160.933C116.798 161.517 116.491 162.12 116.162 162.741C116.117 162.824 116.049 162.891 115.959 162.943C115.877 163.003 115.784 163.033 115.679 163.033C115.447 163.033 115.271 162.951 115.151 162.786C114.687 162.112 114.267 161.438 113.893 160.765C113.519 160.091 113.182 159.443 112.882 158.822C112.59 158.193 112.332 157.601 112.107 157.047C111.883 156.486 111.692 155.984 111.535 155.542C111.085 156.845 110.618 158.069 110.131 159.215C109.644 160.353 109.101 161.457 108.502 162.528C108.458 162.618 108.386 162.693 108.289 162.752C108.199 162.82 108.102 162.854 107.997 162.854C107.78 162.854 107.612 162.752 107.492 162.55C106.84 161.495 106.268 160.424 105.773 159.338C105.279 158.245 104.849 157.178 104.482 156.138C104.123 155.097 103.816 154.101 103.561 153.15C103.306 152.192 103.097 151.316 102.932 150.522C102.775 149.729 102.651 149.036 102.562 148.445C102.479 147.853 102.419 147.397 102.382 147.075C102.195 147.06 102.011 147.045 101.832 147.03C101.652 147.015 101.476 147 101.304 146.985C101.154 146.962 101.027 146.895 100.922 146.783C100.825 146.663 100.776 146.528 100.776 146.378C100.798 146.199 100.866 146.06 100.978 145.963C101.09 145.858 101.221 145.806 101.371 145.806H101.416C102.27 145.896 103.146 145.94 104.044 145.94C104.763 145.94 105.478 145.914 106.189 145.862C106.908 145.802 107.604 145.716 108.278 145.604H108.368C108.54 145.604 108.682 145.663 108.794 145.783C108.907 145.896 108.963 146.027 108.963 146.176C108.963 146.326 108.914 146.457 108.817 146.569C108.727 146.682 108.607 146.749 108.458 146.771C108.121 146.816 107.78 146.861 107.436 146.906C107.099 146.951 106.751 146.992 106.391 147.03C106.421 147.307 106.466 147.674 106.526 148.13C106.593 148.58 106.679 149.092 106.784 149.669C106.889 150.238 107.016 150.859 107.166 151.533C107.323 152.2 107.507 152.892 107.716 153.611C107.933 154.322 108.177 155.048 108.446 155.79C108.723 156.523 109.034 157.246 109.378 157.957C109.73 157.126 110.06 156.284 110.367 155.43C110.681 154.569 110.958 153.704 111.198 152.836C111.437 151.967 111.64 151.099 111.804 150.23C111.969 149.354 112.081 148.479 112.141 147.603C112.156 147.453 112.212 147.329 112.31 147.232C112.414 147.127 112.542 147.067 112.691 147.052C112.841 147.052 112.972 147.097 113.084 147.187C113.197 147.277 113.272 147.393 113.309 147.535C113.466 148.404 113.657 149.272 113.882 150.141C114.106 151.002 114.369 151.878 114.668 152.769C114.975 153.652 115.319 154.55 115.701 155.464C116.083 156.377 116.506 157.313 116.97 158.271C117.195 157.695 117.408 157.059 117.61 156.362C117.82 155.666 118.022 154.872 118.217 153.981C118.411 153.09 118.606 152.08 118.801 150.949C118.995 149.819 119.19 148.527 119.385 147.075C119.048 147.06 118.711 147.037 118.374 147.007C118.045 146.97 117.704 146.921 117.352 146.861C117.217 146.839 117.101 146.775 117.004 146.67C116.914 146.558 116.869 146.431 116.869 146.289C116.869 146.094 116.933 145.948 117.06 145.851C117.195 145.746 117.326 145.693 117.453 145.693H117.565C118.314 145.828 119.067 145.896 119.823 145.896C120.272 145.896 120.717 145.873 121.159 145.828C121.601 145.783 122.043 145.708 122.484 145.604H122.619C122.784 145.604 122.926 145.663 123.046 145.783C123.166 145.896 123.226 146.027 123.226 146.176ZM127.885 160.776C127.885 161.015 127.84 161.24 127.75 161.45C127.66 161.659 127.537 161.843 127.38 162C127.23 162.157 127.05 162.281 126.84 162.371C126.631 162.46 126.406 162.505 126.167 162.505C125.927 162.505 125.702 162.46 125.493 162.371C125.283 162.281 125.1 162.157 124.943 162C124.785 161.843 124.662 161.659 124.572 161.45C124.482 161.24 124.437 161.015 124.437 160.776C124.437 160.544 124.482 160.323 124.572 160.113C124.662 159.904 124.785 159.724 124.943 159.574C125.1 159.424 125.283 159.305 125.493 159.215C125.702 159.125 125.927 159.08 126.167 159.08C126.406 159.08 126.631 159.125 126.84 159.215C127.05 159.305 127.23 159.424 127.38 159.574C127.537 159.724 127.66 159.904 127.75 160.113C127.84 160.323 127.885 160.544 127.885 160.776ZM133.5 160.776C133.5 161.015 133.455 161.24 133.365 161.45C133.276 161.659 133.152 161.843 132.995 162C132.845 162.157 132.665 162.281 132.456 162.371C132.246 162.46 132.021 162.505 131.782 162.505C131.542 162.505 131.318 162.46 131.108 162.371C130.898 162.281 130.715 162.157 130.558 162C130.401 161.843 130.277 161.659 130.187 161.45C130.097 161.24 130.052 161.015 130.052 160.776C130.052 160.544 130.097 160.323 130.187 160.113C130.277 159.904 130.401 159.724 130.558 159.574C130.715 159.424 130.898 159.305 131.108 159.215C131.318 159.125 131.542 159.08 131.782 159.08C132.021 159.08 132.246 159.125 132.456 159.215C132.665 159.305 132.845 159.424 132.995 159.574C133.152 159.724 133.276 159.904 133.365 160.113C133.455 160.323 133.5 160.544 133.5 160.776ZM139.115 160.776C139.115 161.015 139.07 161.24 138.981 161.45C138.891 161.659 138.767 161.843 138.61 162C138.453 162.157 138.269 162.281 138.06 162.371C137.85 162.46 137.625 162.505 137.386 162.505C137.146 162.505 136.922 162.46 136.712 162.371C136.51 162.281 136.33 162.157 136.173 162C136.016 161.843 135.892 161.659 135.802 161.45C135.713 161.24 135.668 161.015 135.668 160.776C135.668 160.544 135.713 160.323 135.802 160.113C135.892 159.904 136.016 159.724 136.173 159.574C136.33 159.424 136.51 159.305 136.712 159.215C136.922 159.125 137.146 159.08 137.386 159.08C137.625 159.08 137.85 159.125 138.06 159.215C138.269 159.305 138.453 159.424 138.61 159.574C138.767 159.724 138.891 159.904 138.981 160.113C139.07 160.323 139.115 160.544 139.115 160.776ZM164.494 151.264C164.456 151.391 164.385 151.488 164.28 151.556C164.175 151.616 164.059 151.646 163.932 151.646C163.76 151.646 163.618 151.582 163.505 151.455C163.393 151.327 163.337 151.2 163.337 151.073C163.337 151.013 163.352 150.953 163.382 150.893L164.1 148.793C163.913 148.493 163.685 148.209 163.415 147.939C163.153 147.662 162.865 147.419 162.551 147.209C162.236 147 161.903 146.835 161.551 146.715C161.199 146.588 160.844 146.524 160.484 146.524C159.803 146.524 159.193 146.629 158.654 146.839C158.122 147.049 157.654 147.333 157.25 147.692C156.853 148.052 156.512 148.475 156.228 148.961C155.943 149.441 155.711 149.953 155.532 150.5C155.359 151.047 155.232 151.612 155.15 152.196C155.075 152.772 155.037 153.341 155.037 153.903C155.037 154.389 155.064 154.91 155.116 155.464C155.169 156.01 155.258 156.561 155.386 157.115C155.513 157.661 155.681 158.189 155.891 158.698C156.101 159.2 156.359 159.645 156.666 160.035C156.98 160.424 157.347 160.735 157.766 160.967C158.186 161.199 158.672 161.315 159.226 161.315C159.878 161.315 160.495 161.221 161.079 161.034C161.671 160.847 162.206 160.581 162.685 160.237C163.172 159.885 163.595 159.466 163.954 158.979C164.321 158.492 164.606 157.95 164.808 157.351C164.845 157.216 164.917 157.107 165.021 157.025C165.126 156.935 165.246 156.89 165.381 156.89C165.545 156.89 165.684 156.954 165.796 157.081C165.909 157.208 165.965 157.347 165.965 157.497V157.631C165.957 157.646 165.931 157.721 165.886 157.856C165.849 157.991 165.781 158.167 165.684 158.384C165.594 158.593 165.471 158.837 165.313 159.114C165.164 159.383 164.973 159.664 164.741 159.956C164.396 160.383 164.011 160.753 163.584 161.068C163.157 161.382 162.704 161.644 162.225 161.854C161.753 162.064 161.263 162.221 160.754 162.326C160.245 162.431 159.736 162.483 159.226 162.483C157.946 162.46 156.797 162.255 155.779 161.865C154.768 161.468 153.907 160.918 153.196 160.214C152.492 159.503 151.949 158.65 151.567 157.654C151.193 156.658 151.006 155.546 151.006 154.318C151.006 153.18 151.126 152.166 151.365 151.275C151.605 150.384 151.93 149.605 152.342 148.939C152.761 148.265 153.252 147.696 153.813 147.232C154.375 146.76 154.97 146.378 155.599 146.086C156.235 145.794 156.894 145.585 157.576 145.458C158.257 145.323 158.927 145.255 159.586 145.255C160.245 145.255 160.836 145.326 161.36 145.469C161.884 145.604 162.352 145.779 162.764 145.997C163.176 146.214 163.528 146.453 163.82 146.715C164.119 146.97 164.366 147.213 164.561 147.445L165.179 145.671C165.224 145.544 165.298 145.443 165.403 145.368C165.508 145.293 165.617 145.255 165.729 145.255C165.894 145.255 166.032 145.319 166.144 145.446C166.264 145.566 166.324 145.701 166.324 145.851C166.324 145.918 166.309 145.982 166.279 146.042L164.494 151.264ZM184.415 154.015C184.415 153.506 184.348 152.974 184.213 152.42C184.078 151.859 183.887 151.312 183.64 150.781C183.401 150.242 183.109 149.733 182.764 149.253C182.427 148.767 182.053 148.344 181.641 147.984C181.237 147.618 180.803 147.329 180.338 147.12C179.874 146.903 179.399 146.794 178.912 146.794C178.253 146.794 177.658 146.891 177.126 147.086C176.595 147.281 176.119 147.546 175.7 147.883C175.288 148.213 174.929 148.606 174.622 149.062C174.315 149.519 174.061 150.01 173.858 150.534C173.664 151.05 173.518 151.593 173.42 152.162C173.323 152.724 173.274 153.281 173.274 153.835C173.274 154.442 173.308 155.048 173.375 155.655C173.45 156.261 173.57 156.845 173.735 157.407C173.907 157.961 174.124 158.481 174.386 158.968C174.656 159.447 174.985 159.866 175.375 160.226C175.764 160.577 176.217 160.854 176.733 161.057C177.257 161.259 177.853 161.36 178.519 161.36C179.051 161.36 179.563 161.255 180.058 161.045C180.559 160.836 181.027 160.555 181.461 160.203C181.903 159.844 182.304 159.424 182.663 158.945C183.03 158.459 183.341 157.946 183.595 157.407C183.857 156.86 184.059 156.299 184.202 155.722C184.344 155.138 184.415 154.569 184.415 154.015ZM185.583 154.015C185.583 154.801 185.482 155.561 185.28 156.295C185.085 157.021 184.808 157.706 184.449 158.35C184.097 158.994 183.67 159.582 183.168 160.113C182.667 160.645 182.113 161.102 181.506 161.483C180.907 161.865 180.264 162.161 179.575 162.371C178.886 162.58 178.175 162.685 177.441 162.685C176.7 162.685 175.981 162.58 175.285 162.371C174.596 162.168 173.952 161.88 173.353 161.506C172.754 161.124 172.204 160.671 171.702 160.147C171.208 159.615 170.785 159.031 170.433 158.395C170.081 157.751 169.808 157.059 169.613 156.317C169.419 155.576 169.321 154.809 169.321 154.015C169.321 153.222 169.419 152.454 169.613 151.713C169.808 150.972 170.081 150.283 170.433 149.646C170.785 149.003 171.208 148.419 171.702 147.895C172.204 147.363 172.754 146.91 173.353 146.536C173.952 146.154 174.596 145.862 175.285 145.66C175.981 145.45 176.7 145.345 177.441 145.345C178.227 145.345 178.972 145.458 179.676 145.682C180.387 145.907 181.042 146.217 181.641 146.614C182.248 147.011 182.794 147.483 183.281 148.029C183.767 148.576 184.179 149.171 184.516 149.815C184.861 150.459 185.123 151.136 185.302 151.848C185.489 152.559 185.583 153.281 185.583 154.015ZM203.068 150.5C203.068 149.976 202.981 149.519 202.809 149.13C202.637 148.733 202.394 148.392 202.079 148.108C201.772 147.823 201.402 147.591 200.967 147.412C200.533 147.224 200.058 147.078 199.541 146.974C199.025 146.861 198.47 146.786 197.879 146.749C197.295 146.704 196.692 146.682 196.071 146.682C195.899 146.682 195.741 146.682 195.599 146.682C195.457 146.682 195.322 146.689 195.195 146.704L194.993 154.341C195.277 154.401 195.588 154.442 195.925 154.464C196.262 154.487 196.61 154.498 196.969 154.498C197.411 154.498 197.868 154.472 198.339 154.419C198.811 154.367 199.272 154.281 199.721 154.161C200.178 154.041 200.608 153.884 201.012 153.689C201.417 153.487 201.769 153.24 202.068 152.948C202.375 152.649 202.618 152.297 202.798 151.893C202.978 151.488 203.068 151.024 203.068 150.5ZM204.932 157.609C204.932 157.624 204.936 157.665 204.943 157.732C204.95 157.792 204.954 157.882 204.954 158.002C204.954 158.608 204.861 159.17 204.673 159.687C204.494 160.203 204.235 160.649 203.899 161.023C203.562 161.39 203.154 161.678 202.674 161.888C202.195 162.097 201.66 162.202 201.068 162.202H201.035C200.488 162.187 200.005 162.097 199.586 161.933C199.174 161.768 198.811 161.551 198.497 161.281C198.19 161.004 197.931 160.682 197.722 160.315C197.512 159.949 197.344 159.556 197.216 159.136C197.089 158.709 196.996 158.268 196.936 157.811C196.883 157.354 196.857 156.901 196.857 156.452C196.857 156.317 196.861 156.186 196.868 156.059C196.876 155.924 196.88 155.805 196.88 155.7C196.543 155.7 196.213 155.685 195.891 155.655C195.577 155.625 195.27 155.587 194.97 155.542L194.802 161.36C194.802 161.54 194.742 161.682 194.622 161.787C194.51 161.884 194.371 161.933 194.207 161.933C194.199 161.933 194.046 161.936 193.746 161.944C193.454 161.944 193.076 161.951 192.612 161.966C192.148 161.981 191.635 162.007 191.073 162.045C190.512 162.082 189.962 162.135 189.422 162.202H189.355C189.183 162.202 189.041 162.142 188.928 162.022C188.816 161.91 188.76 161.779 188.76 161.629C188.76 161.48 188.805 161.349 188.895 161.236C188.992 161.124 189.116 161.057 189.265 161.034C189.542 160.997 189.823 160.967 190.108 160.944C190.4 160.922 190.684 160.899 190.961 160.877L191.219 147.03C190.665 147.12 190.246 147.198 189.962 147.266C189.677 147.333 189.527 147.367 189.512 147.367C189.46 147.404 189.408 147.423 189.355 147.423C189.183 147.423 189.041 147.363 188.928 147.243C188.816 147.123 188.76 146.981 188.76 146.816C188.76 146.689 188.797 146.577 188.872 146.479C188.947 146.375 189.048 146.304 189.175 146.266C189.198 146.259 189.355 146.214 189.647 146.131C189.939 146.049 190.37 145.963 190.939 145.873C191.515 145.783 192.226 145.701 193.072 145.626C193.926 145.551 194.925 145.514 196.071 145.514C196.805 145.551 197.512 145.604 198.193 145.671C198.882 145.738 199.53 145.843 200.136 145.985C200.743 146.12 201.297 146.304 201.798 146.536C202.3 146.76 202.731 147.052 203.09 147.412C203.457 147.771 203.738 148.205 203.932 148.714C204.134 149.216 204.235 149.811 204.235 150.5C204.235 151.047 204.149 151.563 203.977 152.05C203.812 152.529 203.58 152.967 203.281 153.364C202.981 153.753 202.618 154.094 202.192 154.386C201.772 154.67 201.312 154.895 200.81 155.06C200.795 155.232 200.784 155.408 200.776 155.587C200.769 155.767 200.765 155.951 200.765 156.138C200.765 156.295 200.769 156.516 200.776 156.8C200.784 157.085 200.803 157.396 200.833 157.732C200.863 158.069 200.908 158.414 200.967 158.766C201.035 159.118 201.121 159.439 201.226 159.731C201.338 160.016 201.477 160.252 201.641 160.439C201.806 160.619 202.004 160.708 202.236 160.708C202.536 160.708 202.783 160.607 202.978 160.405C203.172 160.203 203.33 159.96 203.449 159.675C203.569 159.383 203.651 159.084 203.696 158.777C203.749 158.47 203.775 158.212 203.775 158.002C203.775 157.92 203.771 157.852 203.764 157.8C203.756 157.747 203.753 157.699 203.753 157.654C203.753 157.482 203.812 157.343 203.932 157.238C204.06 157.133 204.198 157.081 204.348 157.081C204.498 157.081 204.629 157.133 204.741 157.238C204.853 157.336 204.917 157.459 204.932 157.609ZM222.461 150.5C222.461 149.976 222.375 149.519 222.203 149.13C222.031 148.733 221.787 148.392 221.473 148.108C221.166 147.823 220.795 147.591 220.361 147.412C219.927 147.224 219.451 147.078 218.935 146.974C218.418 146.861 217.864 146.786 217.273 146.749C216.689 146.704 216.086 146.682 215.465 146.682C215.292 146.682 215.135 146.682 214.993 146.682C214.851 146.682 214.716 146.689 214.589 146.704L214.386 154.341C214.671 154.401 214.982 154.442 215.319 154.464C215.656 154.487 216.004 154.498 216.363 154.498C216.805 154.498 217.261 154.472 217.733 154.419C218.205 154.367 218.665 154.281 219.114 154.161C219.571 154.041 220.002 153.884 220.406 153.689C220.81 153.487 221.162 153.24 221.462 152.948C221.769 152.649 222.012 152.297 222.192 151.893C222.371 151.488 222.461 151.024 222.461 150.5ZM224.325 157.609C224.325 157.624 224.329 157.665 224.337 157.732C224.344 157.792 224.348 157.882 224.348 158.002C224.348 158.608 224.254 159.17 224.067 159.687C223.887 160.203 223.629 160.649 223.292 161.023C222.955 161.39 222.547 161.678 222.068 161.888C221.589 162.097 221.054 162.202 220.462 162.202H220.428C219.882 162.187 219.399 162.097 218.98 161.933C218.568 161.768 218.205 161.551 217.89 161.281C217.583 161.004 217.325 160.682 217.115 160.315C216.906 159.949 216.737 159.556 216.61 159.136C216.483 158.709 216.389 158.268 216.329 157.811C216.277 157.354 216.251 156.901 216.251 156.452C216.251 156.317 216.254 156.186 216.262 156.059C216.269 155.924 216.273 155.805 216.273 155.7C215.936 155.7 215.607 155.685 215.285 155.655C214.97 155.625 214.663 155.587 214.364 155.542L214.196 161.36C214.196 161.54 214.136 161.682 214.016 161.787C213.904 161.884 213.765 161.933 213.6 161.933C213.593 161.933 213.439 161.936 213.14 161.944C212.848 161.944 212.47 161.951 212.006 161.966C211.541 161.981 211.029 162.007 210.467 162.045C209.906 162.082 209.355 162.135 208.816 162.202H208.749C208.577 162.202 208.434 162.142 208.322 162.022C208.21 161.91 208.154 161.779 208.154 161.629C208.154 161.48 208.198 161.349 208.288 161.236C208.386 161.124 208.509 161.057 208.659 161.034C208.936 160.997 209.217 160.967 209.501 160.944C209.793 160.922 210.078 160.899 210.355 160.877L210.613 147.03C210.059 147.12 209.64 147.198 209.355 147.266C209.071 147.333 208.921 147.367 208.906 147.367C208.854 147.404 208.801 147.423 208.749 147.423C208.577 147.423 208.434 147.363 208.322 147.243C208.21 147.123 208.154 146.981 208.154 146.816C208.154 146.689 208.191 146.577 208.266 146.479C208.341 146.375 208.442 146.304 208.569 146.266C208.592 146.259 208.749 146.214 209.041 146.131C209.333 146.049 209.763 145.963 210.332 145.873C210.909 145.783 211.62 145.701 212.466 145.626C213.32 145.551 214.319 145.514 215.465 145.514C216.198 145.551 216.906 145.604 217.587 145.671C218.276 145.738 218.924 145.843 219.53 145.985C220.136 146.12 220.69 146.304 221.192 146.536C221.694 146.76 222.124 147.052 222.484 147.412C222.85 147.771 223.131 148.205 223.326 148.714C223.528 149.216 223.629 149.811 223.629 150.5C223.629 151.047 223.543 151.563 223.371 152.05C223.206 152.529 222.974 152.967 222.675 153.364C222.375 153.753 222.012 154.094 221.585 154.386C221.166 154.67 220.705 154.895 220.204 155.06C220.189 155.232 220.178 155.408 220.17 155.587C220.163 155.767 220.159 155.951 220.159 156.138C220.159 156.295 220.163 156.516 220.17 156.8C220.178 157.085 220.196 157.396 220.226 157.732C220.256 158.069 220.301 158.414 220.361 158.766C220.428 159.118 220.515 159.439 220.619 159.731C220.732 160.016 220.87 160.252 221.035 160.439C221.2 160.619 221.398 160.708 221.63 160.708C221.93 160.708 222.177 160.607 222.371 160.405C222.566 160.203 222.723 159.96 222.843 159.675C222.963 159.383 223.045 159.084 223.09 158.777C223.142 158.47 223.169 158.212 223.169 158.002C223.169 157.92 223.165 157.852 223.157 157.8C223.15 157.747 223.146 157.699 223.146 157.654C223.146 157.482 223.206 157.343 223.326 157.238C223.453 157.133 223.592 157.081 223.741 157.081C223.891 157.081 224.022 157.133 224.135 157.238C224.247 157.336 224.31 157.459 224.325 157.609ZM240.518 161.697C240.496 161.847 240.429 161.966 240.316 162.056C240.204 162.153 240.073 162.202 239.923 162.202H239.901C237.887 162.067 235.921 162 234.005 162C232.058 162 230.183 162.067 228.378 162.202H228.322C228.15 162.187 228.008 162.127 227.895 162.022C227.783 161.918 227.727 161.779 227.727 161.607C227.727 161.457 227.779 161.33 227.884 161.225C227.989 161.113 228.12 161.049 228.277 161.034C228.517 161.012 228.756 160.997 228.996 160.989C229.243 160.974 229.486 160.959 229.726 160.944V147.254C229.486 147.239 229.247 147.232 229.007 147.232C228.775 147.232 228.539 147.232 228.3 147.232C228.142 147.217 228.008 147.157 227.895 147.052C227.783 146.94 227.727 146.801 227.727 146.637C227.727 146.472 227.787 146.333 227.907 146.221C228.026 146.101 228.165 146.042 228.322 146.042C228.607 146.056 228.88 146.064 229.142 146.064C229.411 146.064 229.677 146.064 229.939 146.064C231.534 146.064 233.114 146.012 234.679 145.907C236.243 145.802 237.804 145.645 239.362 145.435H239.463C239.612 145.435 239.74 145.487 239.845 145.592C239.949 145.69 240.013 145.806 240.036 145.94L240.518 149.736V149.815C240.518 149.987 240.455 150.126 240.327 150.23C240.208 150.335 240.073 150.388 239.923 150.388C239.781 150.388 239.654 150.343 239.541 150.253C239.437 150.156 239.369 150.032 239.339 149.882L238.935 146.682C238.066 146.801 237.194 146.899 236.318 146.974C235.45 147.041 234.574 147.097 233.69 147.142V154.543C233.87 154.535 234.11 154.524 234.409 154.509C234.709 154.494 235.03 154.472 235.375 154.442C235.727 154.412 236.082 154.378 236.442 154.341C236.809 154.296 237.149 154.243 237.464 154.184H237.576C237.733 154.184 237.872 154.243 237.992 154.363C238.111 154.476 238.171 154.607 238.171 154.756C238.171 154.906 238.126 155.033 238.036 155.138C237.947 155.243 237.831 155.314 237.688 155.352C237.344 155.419 236.973 155.475 236.577 155.52C236.187 155.565 235.805 155.602 235.431 155.632C235.064 155.655 234.727 155.674 234.42 155.688C234.113 155.703 233.87 155.715 233.69 155.722V160.832H234.005C234.896 160.832 235.79 160.843 236.689 160.866C237.595 160.888 238.504 160.929 239.418 160.989L239.822 157.979C239.852 157.83 239.919 157.71 240.024 157.62C240.137 157.523 240.264 157.474 240.406 157.474C240.586 157.474 240.728 157.538 240.833 157.665C240.945 157.792 241.001 157.92 241.001 158.047V158.137L240.518 161.697ZM257.846 151.264C257.808 151.391 257.737 151.488 257.632 151.556C257.527 151.616 257.411 151.646 257.284 151.646C257.112 151.646 256.97 151.582 256.857 151.455C256.745 151.327 256.689 151.2 256.689 151.073C256.689 151.013 256.704 150.953 256.734 150.893L257.453 148.793C257.265 148.493 257.037 148.209 256.768 147.939C256.506 147.662 256.217 147.419 255.903 147.209C255.588 147 255.255 146.835 254.903 146.715C254.551 146.588 254.196 146.524 253.836 146.524C253.155 146.524 252.545 146.629 252.006 146.839C251.474 147.049 251.006 147.333 250.602 147.692C250.205 148.052 249.865 148.475 249.58 148.961C249.296 149.441 249.063 149.953 248.884 150.5C248.712 151.047 248.584 151.612 248.502 152.196C248.427 152.772 248.39 153.341 248.39 153.903C248.39 154.389 248.416 154.91 248.468 155.464C248.521 156.01 248.61 156.561 248.738 157.115C248.865 157.661 249.034 158.189 249.243 158.698C249.453 159.2 249.711 159.645 250.018 160.035C250.333 160.424 250.699 160.735 251.119 160.967C251.538 161.199 252.025 161.315 252.579 161.315C253.23 161.315 253.848 161.221 254.432 161.034C255.023 160.847 255.558 160.581 256.038 160.237C256.524 159.885 256.947 159.466 257.307 158.979C257.673 158.492 257.958 157.95 258.16 157.351C258.198 157.216 258.269 157.107 258.374 157.025C258.478 156.935 258.598 156.89 258.733 156.89C258.898 156.89 259.036 156.954 259.148 157.081C259.261 157.208 259.317 157.347 259.317 157.497V157.631C259.309 157.646 259.283 157.721 259.238 157.856C259.201 157.991 259.133 158.167 259.036 158.384C258.946 158.593 258.823 158.837 258.666 159.114C258.516 159.383 258.325 159.664 258.093 159.956C257.748 160.383 257.363 160.753 256.936 161.068C256.509 161.382 256.056 161.644 255.577 161.854C255.105 162.064 254.615 162.221 254.106 162.326C253.597 162.431 253.088 162.483 252.579 162.483C251.298 162.46 250.149 162.255 249.131 161.865C248.12 161.468 247.259 160.918 246.548 160.214C245.844 159.503 245.301 158.65 244.919 157.654C244.545 156.658 244.358 155.546 244.358 154.318C244.358 153.18 244.478 152.166 244.717 151.275C244.957 150.384 245.283 149.605 245.694 148.939C246.114 148.265 246.604 147.696 247.166 147.232C247.727 146.76 248.322 146.378 248.951 146.086C249.588 145.794 250.246 145.585 250.928 145.458C251.609 145.323 252.279 145.255 252.938 145.255C253.597 145.255 254.188 145.326 254.712 145.469C255.236 145.604 255.704 145.779 256.116 145.997C256.528 146.214 256.88 146.453 257.172 146.715C257.471 146.97 257.718 147.213 257.913 147.445L258.531 145.671C258.576 145.544 258.651 145.443 258.755 145.368C258.86 145.293 258.969 145.255 259.081 145.255C259.246 145.255 259.384 145.319 259.497 145.446C259.616 145.566 259.676 145.701 259.676 145.851C259.676 145.918 259.661 145.982 259.631 146.042L257.846 151.264ZM276.431 150.129C276.431 150.152 276.434 150.182 276.442 150.219C276.449 150.249 276.453 150.283 276.453 150.32C276.453 150.478 276.39 150.616 276.262 150.736C276.143 150.856 276.008 150.916 275.858 150.916C275.738 150.916 275.626 150.878 275.521 150.803C275.424 150.728 275.353 150.627 275.308 150.5C275.21 150.215 275.117 149.912 275.027 149.59C274.937 149.261 274.855 148.939 274.78 148.625C274.712 148.31 274.649 148.014 274.589 147.737C274.529 147.46 274.484 147.224 274.454 147.03C274.027 147.052 273.541 147.071 272.994 147.086C272.448 147.093 271.86 147.097 271.231 147.097L270.86 160.967C271.474 160.989 272.066 161.034 272.635 161.102C272.8 161.117 272.927 161.18 273.017 161.292C273.114 161.397 273.163 161.525 273.163 161.674C273.163 161.861 273.099 162.007 272.972 162.112C272.852 162.225 272.725 162.281 272.59 162.281H272.523C271.916 162.206 271.317 162.153 270.726 162.124C270.134 162.101 269.543 162.09 268.951 162.09C268.352 162.09 267.765 162.101 267.188 162.124C266.612 162.153 266.035 162.206 265.459 162.281H265.391C265.226 162.281 265.084 162.217 264.964 162.09C264.852 161.963 264.796 161.824 264.796 161.674C264.796 161.525 264.845 161.397 264.942 161.292C265.047 161.18 265.174 161.117 265.324 161.102C265.9 161.034 266.466 160.989 267.02 160.967L267.278 147.03C266.642 147.007 266.043 146.981 265.481 146.951C264.927 146.914 264.429 146.876 263.987 146.839C263.942 147.041 263.886 147.288 263.819 147.58C263.759 147.872 263.688 148.183 263.606 148.512C263.531 148.842 263.452 149.179 263.37 149.523C263.287 149.86 263.201 150.178 263.111 150.478C263.074 150.605 263.003 150.71 262.898 150.792C262.801 150.874 262.688 150.916 262.561 150.916C262.389 150.916 262.247 150.856 262.134 150.736C262.022 150.609 261.966 150.47 261.966 150.32C261.966 150.298 261.966 150.272 261.966 150.242C261.966 150.204 261.973 150.174 261.988 150.152C262.101 149.755 262.213 149.321 262.325 148.849C262.438 148.377 262.539 147.936 262.629 147.524C262.726 147.112 262.804 146.768 262.864 146.491C262.924 146.214 262.954 146.071 262.954 146.064C262.992 145.922 263.059 145.809 263.156 145.727C263.261 145.645 263.385 145.604 263.527 145.604H263.617C264.006 145.656 264.478 145.701 265.032 145.738C265.593 145.776 266.196 145.809 266.84 145.839C267.491 145.862 268.165 145.881 268.861 145.896C269.558 145.91 270.239 145.918 270.905 145.918C271.721 145.918 272.474 145.91 273.163 145.896C273.851 145.873 274.428 145.843 274.892 145.806H274.937C275.072 145.806 275.195 145.854 275.308 145.952C275.42 146.042 275.487 146.154 275.51 146.289C275.51 146.296 275.521 146.36 275.544 146.479C275.566 146.599 275.596 146.76 275.633 146.962C275.671 147.165 275.716 147.397 275.768 147.659C275.828 147.921 275.892 148.194 275.959 148.479C276.026 148.756 276.098 149.04 276.172 149.332C276.255 149.617 276.341 149.882 276.431 150.129ZM283.123 160.776C283.123 161.015 283.078 161.24 282.988 161.45C282.898 161.659 282.775 161.843 282.617 162C282.468 162.157 282.288 162.281 282.078 162.371C281.869 162.46 281.644 162.505 281.405 162.505C281.165 162.505 280.94 162.46 280.731 162.371C280.521 162.281 280.338 162.157 280.18 162C280.023 161.843 279.9 161.659 279.81 161.45C279.72 161.24 279.675 161.015 279.675 160.776C279.675 160.544 279.72 160.323 279.81 160.113C279.9 159.904 280.023 159.724 280.18 159.574C280.338 159.424 280.521 159.305 280.731 159.215C280.94 159.125 281.165 159.08 281.405 159.08C281.644 159.08 281.869 159.125 282.078 159.215C282.288 159.305 282.468 159.424 282.617 159.574C282.775 159.724 282.898 159.904 282.988 160.113C283.078 160.323 283.123 160.544 283.123 160.776ZM283.381 147.58C283.381 148.059 283.351 148.606 283.291 149.22C283.239 149.826 283.164 150.474 283.067 151.163C282.977 151.851 282.872 152.57 282.752 153.319C282.632 154.06 282.513 154.801 282.393 155.542C282.325 155.977 282.258 156.4 282.191 156.812C282.123 157.223 282.06 157.628 282 158.024C281.977 158.174 281.91 158.298 281.798 158.395C281.685 158.485 281.554 158.53 281.405 158.53C281.262 158.53 281.135 158.485 281.023 158.395C280.918 158.298 280.854 158.174 280.832 158.024C280.772 157.62 280.704 157.201 280.63 156.767C280.555 156.332 280.484 155.883 280.416 155.419C280.296 154.693 280.177 153.966 280.057 153.24C279.945 152.507 279.843 151.803 279.754 151.129C279.664 150.448 279.589 149.807 279.529 149.208C279.477 148.602 279.45 148.059 279.45 147.58C279.45 147.311 279.499 147.06 279.596 146.828C279.701 146.588 279.843 146.378 280.023 146.199C280.203 146.019 280.409 145.881 280.641 145.783C280.88 145.678 281.135 145.626 281.405 145.626C281.674 145.626 281.929 145.678 282.168 145.783C282.408 145.881 282.617 146.019 282.797 146.199C282.977 146.378 283.119 146.588 283.224 146.828C283.329 147.06 283.381 147.311 283.381 147.58Z" fill="white"/>
<defs>
<filter id="filter0_d_168_257" x="17.9241" y="128.806" width="65.2234" height="85.358" filterUnits="userSpaceOnUse" color-interpolation-filters="sRGB">
<feFlood flood-opacity="0" result="BackgroundImageFix"/>
<feColorMatrix in="SourceAlpha" type="matrix" values="0 0 0 0 0 0 0 0 0 0 0 0 0 0 0 0 0 0 127 0" result="hardAlpha"/>
<feOffset dy="5.18927"/>
<feComposite in2="hardAlpha" operator="out"/>
<feColorMatrix type="matrix" values="0 0 0 0 0.302563 0 0 0 0 0.705 0 0 0 0 0.650122 0 0 0 1 0"/>
<feBlend mode="normal" in2="BackgroundImageFix" result="effect1_dropShadow_168_257"/>
<feBlend mode="normal" in="SourceGraphic" in2="effect1_dropShadow_168_257" result="shape"/>
</filter>
<filter id="filter1_d_168_257" x="259.345" y="128.806" width="65.2234" height="85.358" filterUnits="userSpaceOnUse" color-interpolation-filters="sRGB">
<feFlood flood-opacity="0" result="BackgroundImageFix"/>
<feColorMatrix in="SourceAlpha" type="matrix" values="0 0 0 0 0 0 0 0 0 0 0 0 0 0 0 0 0 0 127 0" result="hardAlpha"/>
<feOffset dy="5.18927"/>
<feComposite in2="hardAlpha" operator="out"/>
<feColorMatrix type="matrix" values="0 0 0 0 0.302563 0 0 0 0 0.705 0 0 0 0 0.650122 0 0 0 1 0"/>
<feBlend mode="normal" in2="BackgroundImageFix" result="effect1_dropShadow_168_257"/>
<feBlend mode="normal" in="SourceGraphic" in2="effect1_dropShadow_168_257" result="shape"/>
</filter>
<filter id="filter2_d_168_257" x="43.3628" y="102.349" width="254.979" height="98.783" filterUnits="userSpaceOnUse" color-interpolation-filters="sRGB">
<feFlood flood-opacity="0" result="BackgroundImageFix"/>
<feColorMatrix in="SourceAlpha" type="matrix" values="0 0 0 0 0 0 0 0 0 0 0 0 0 0 0 0 0 0 127 0" result="hardAlpha"/>
<feOffset dy="5.18927"/>
<feComposite in2="hardAlpha" operator="out"/>
<feColorMatrix type="matrix" values="0 0 0 0 0.302563 0 0 0 0 0.705 0 0 0 0 0.650122 0 0 0 1 0"/>
<feBlend mode="normal" in2="BackgroundImageFix" result="effect1_dropShadow_168_257"/>
<feBlend mode="normal" in="SourceGraphic" in2="effect1_dropShadow_168_257" result="shape"/>
</filter>
<linearGradient id="paint0_linear_168_257" x1="127.708" y1="4.78125" x2="144.165" y2="140.845" gradientUnits="userSpaceOnUse">
<stop stop-color="#7ED6CA" stop-opacity="0"/>
<stop offset="1" stop-color="#7ED6CA" stop-opacity="0.5"/>
</linearGradient>
<linearGradient id="paint1_linear_168_257" x1="214.44" y1="3.57548" x2="199.525" y2="139.816" gradientUnits="userSpaceOnUse">
<stop stop-color="#7ED6CA" stop-opacity="0"/>
<stop offset="1" stop-color="#7ED6CA" stop-opacity="0.5"/>
</linearGradient>
<linearGradient id="paint2_linear_168_257" x1="59.9767" y1="38.2111" x2="94.1674" y2="150.771" gradientUnits="userSpaceOnUse">
<stop stop-color="#7ED6CA" stop-opacity="0"/>
<stop offset="1" stop-color="#7ED6CA" stop-opacity="0.5"/>
</linearGradient>
<linearGradient id="paint3_linear_168_257" x1="282.545" y1="36.236" x2="249.631" y2="149.176" gradientUnits="userSpaceOnUse">
<stop stop-color="#7ED6CA" stop-opacity="0"/>
<stop offset="1" stop-color="#7ED6CA" stop-opacity="0.5"/>
</linearGradient>
<linearGradient id="paint4_linear_168_257" x1="18.0689" y1="90.921" x2="56.7935" y2="165.493" gradientUnits="userSpaceOnUse">
<stop stop-color="#7ED6CA" stop-opacity="0"/>
<stop offset="1" stop-color="#7ED6CA" stop-opacity="0.5"/>
</linearGradient>
<linearGradient id="paint5_linear_168_257" x1="325.047" y1="88.4681" x2="287.17" y2="163.474" gradientUnits="userSpaceOnUse">
<stop stop-color="#7ED6CA" stop-opacity="0"/>
<stop offset="1" stop-color="#7ED6CA" stop-opacity="0.5"/>
</linearGradient>
<linearGradient id="paint6_linear_168_257" x1="26.8361" y1="89.6008" x2="42.4181" y2="170.344" gradientUnits="userSpaceOnUse">
<stop stop-color="#D0FFF9"/>
<stop offset="1" stop-color="#7ED6CA"/>
</linearGradient>
<linearGradient id="paint7_linear_168_257" x1="315.656" y1="89.6008" x2="300.074" y2="170.344" gradientUnits="userSpaceOnUse">
<stop stop-color="#D0FFF9"/>
<stop offset="1" stop-color="#7ED6CA"/>
</linearGradient>
<linearGradient id="paint8_linear_168_257" x1="170.852" y1="52.2979" x2="170.852" y2="153.345" gradientUnits="userSpaceOnUse">
<stop stop-color="#D0FFF9"/>
<stop offset="1" stop-color="#7ED6CA"/>
</linearGradient>
</defs>
</svg>
