<svg width="344" height="215" viewBox="0 0 344 215" fill="none" xmlns="http://www.w3.org/2000/svg">
<path d="M95.0928 8.72607L160.323 0.836422L165.575 138.255L123.955 143.289L95.0928 8.72607Z" fill="url(#paint0_linear_168_236)"/>
<path d="M247.098 7.15076L181.782 0.000198626L178.087 137.469L219.76 142.032L247.098 7.15076Z" fill="url(#paint1_linear_168_236)"/>
<path d="M86.9761 30.01L32.9779 46.4123L76.4443 156.154L110.897 145.689L86.9761 30.01Z" fill="url(#paint2_linear_168_236)"/>
<path d="M255.455 28.3411L309.636 44.1309L267.415 154.358L232.845 144.284L255.455 28.3411Z" fill="url(#paint3_linear_168_236)"/>
<path d="M35.9561 81.6323L0.181758 100.21L45.0516 171.59L67.8769 159.737L35.9561 81.6323Z" fill="url(#paint4_linear_168_236)"/>
<path d="M307.056 79.3826L343.039 97.5536L298.98 169.438L276.022 157.844L307.056 79.3826Z" fill="url(#paint5_linear_168_236)"/>
<g filter="url(#filter0_d_168_236)">
<path d="M23.0586 173.177C18.8681 154.739 16.7729 145.52 18.5712 141.547C19.3249 139.882 19.6346 139.416 20.8774 138.076C23.8426 134.878 29.4842 133.884 40.7674 131.894L46.7769 130.834C58.8224 128.711 64.8451 127.649 69.2469 130.731C73.6488 133.813 74.7107 139.836 76.8347 151.881L81.1193 176.18C83.2432 188.226 84.3052 194.248 81.223 198.65C78.1407 203.052 72.118 204.114 60.0726 206.238L55.4362 207.056C44.8717 208.918 39.5894 209.85 35.7152 207.869C34.4937 207.244 34.3128 207.124 33.2636 206.24C29.9357 203.436 27.6433 193.35 23.0586 173.177V173.177V173.177Z" fill="url(#paint6_linear_168_236)"/>
</g>
<g filter="url(#filter1_d_168_236)">
<path d="M319.434 173.177C323.624 154.739 325.719 145.52 323.921 141.547C323.167 139.882 322.858 139.416 321.615 138.076C318.65 134.878 313.008 133.884 301.725 131.894L295.715 130.834C283.67 128.711 277.647 127.649 273.245 130.731C268.843 133.813 267.781 139.836 265.658 151.881L261.373 176.18C259.249 188.226 258.187 194.248 261.269 198.65C264.351 203.052 270.374 204.114 282.42 206.238L287.056 207.056C297.621 208.918 302.903 209.85 306.777 207.869C307.998 207.244 308.179 207.124 309.229 206.24C312.557 203.436 314.849 193.35 319.434 173.177V173.177V173.177Z" fill="url(#paint7_linear_168_236)"/>
</g>
<g filter="url(#filter2_d_168_236)">
<path d="M43.3628 149.736C43.3628 135.463 43.3628 128.327 46.8887 122.273C48.485 119.533 51.0282 116.649 53.5475 114.722C59.1123 110.466 65.7222 109.633 78.9421 107.966C101.274 105.149 132.995 102.349 170.852 102.349C208.71 102.349 240.431 105.149 262.763 107.966C275.982 109.633 282.592 110.466 288.157 114.722C290.676 116.649 293.22 119.533 294.816 122.273C298.342 128.327 298.342 135.463 298.342 149.736V149.736C298.342 168.907 298.342 178.492 293.827 185.108C291.635 188.32 288.839 190.926 285.481 192.888C278.565 196.927 268.894 196.247 249.552 194.887C222.747 193.001 190.958 191.12 170.852 191.12C150.746 191.12 118.957 193.001 92.1531 194.887C72.8109 196.247 63.1398 196.927 56.2236 192.888C52.8656 190.926 50.0694 188.32 47.8774 185.108C43.3628 178.492 43.3628 168.907 43.3628 149.736V149.736Z" fill="url(#paint8_linear_168_236)"/>
</g>
<path d="M63.9166 153.362C63.9166 152.875 63.8521 152.367 63.7232 151.837C63.5943 151.3 63.4117 150.777 63.1754 150.269C62.9462 149.753 62.6669 149.266 62.3375 148.808C62.0152 148.342 61.6571 147.938 61.2632 147.594C60.8765 147.243 60.4612 146.967 60.0172 146.767C59.5731 146.559 59.1184 146.455 58.6529 146.455C58.0227 146.455 57.4533 146.548 56.9449 146.734C56.4364 146.921 55.9817 147.175 55.5806 147.497C55.1867 147.812 54.843 148.188 54.5494 148.625C54.2558 149.062 54.0123 149.531 53.8189 150.032C53.6327 150.526 53.4931 151.046 53.4 151.59C53.3069 152.127 53.2603 152.66 53.2603 153.19C53.2603 153.771 53.2925 154.351 53.357 154.931C53.4286 155.511 53.5432 156.069 53.7007 156.606C53.8655 157.136 54.0731 157.634 54.3238 158.1C54.5816 158.558 54.8967 158.959 55.2691 159.303C55.6415 159.639 56.0748 159.904 56.5689 160.098C57.0702 160.291 57.6395 160.388 58.2769 160.388C58.7854 160.388 59.2759 160.287 59.7486 160.087C60.2284 159.886 60.676 159.618 61.0914 159.281C61.5139 158.938 61.897 158.536 62.2408 158.078C62.5917 157.613 62.8889 157.122 63.1324 156.606C63.383 156.084 63.5764 155.547 63.7125 154.995C63.8485 154.437 63.9166 153.892 63.9166 153.362ZM65.0338 153.362C65.0338 154.114 64.9371 154.841 64.7437 155.543C64.5575 156.238 64.2925 156.893 63.9488 157.509C63.6122 158.125 63.204 158.687 62.7242 159.195C62.2444 159.704 61.7144 160.141 61.1343 160.506C60.5614 160.871 59.9455 161.154 59.2867 161.354C58.6278 161.555 57.9475 161.655 57.2457 161.655C56.5367 161.655 55.8492 161.555 55.1832 161.354C54.5243 161.161 53.9084 160.885 53.3355 160.527C52.7626 160.162 52.2362 159.729 51.7564 159.228C51.2838 158.719 50.8791 158.16 50.5425 157.552C50.206 156.936 49.9446 156.273 49.7584 155.564C49.5722 154.855 49.4791 154.121 49.4791 153.362C49.4791 152.603 49.5722 151.869 49.7584 151.16C49.9446 150.451 50.206 149.792 50.5425 149.184C50.8791 148.568 51.2838 148.009 51.7564 147.508C52.2362 146.999 52.7626 146.566 53.3355 146.208C53.9084 145.843 54.5243 145.563 55.1832 145.37C55.8492 145.17 56.5367 145.069 57.2457 145.069C57.9976 145.069 58.7102 145.177 59.3834 145.392C60.0637 145.606 60.6903 145.904 61.2632 146.283C61.8433 146.663 62.3661 147.114 62.8316 147.637C63.2971 148.16 63.691 148.729 64.0132 149.345C64.3427 149.961 64.5933 150.609 64.7652 151.289C64.9442 151.969 65.0338 152.66 65.0338 153.362ZM82.7893 153.362C82.7893 152.875 82.7248 152.367 82.5959 151.837C82.467 151.3 82.2844 150.777 82.0481 150.269C81.8189 149.753 81.5396 149.266 81.2102 148.808C80.8879 148.342 80.5299 147.938 80.136 147.594C79.7493 147.243 79.3339 146.967 78.8899 146.767C78.4459 146.559 77.9911 146.455 77.5256 146.455C76.8954 146.455 76.3261 146.548 75.8176 146.734C75.3092 146.921 74.8544 147.175 74.4534 147.497C74.0595 147.812 73.7157 148.188 73.4221 148.625C73.1285 149.062 72.885 149.531 72.6916 150.032C72.5054 150.526 72.3658 151.046 72.2727 151.59C72.1796 152.127 72.133 152.66 72.133 153.19C72.133 153.771 72.1653 154.351 72.2297 154.931C72.3013 155.511 72.4159 156.069 72.5735 156.606C72.7382 157.136 72.9459 157.634 73.1965 158.1C73.4543 158.558 73.7694 158.959 74.1418 159.303C74.5142 159.639 74.9475 159.904 75.4416 160.098C75.9429 160.291 76.5123 160.388 77.1497 160.388C77.6581 160.388 78.1487 160.287 78.6213 160.087C79.1011 159.886 79.5487 159.618 79.9641 159.281C80.3866 158.938 80.7698 158.536 81.1135 158.078C81.4644 157.613 81.7616 157.122 82.0051 156.606C82.2558 156.084 82.4491 155.547 82.5852 154.995C82.7213 154.437 82.7893 153.892 82.7893 153.362ZM83.9065 153.362C83.9065 154.114 83.8098 154.841 83.6164 155.543C83.4302 156.238 83.1653 156.893 82.8215 157.509C82.4849 158.125 82.0767 158.687 81.5969 159.195C81.1171 159.704 80.5872 160.141 80.0071 160.506C79.4342 160.871 78.8183 161.154 78.1594 161.354C77.5006 161.555 76.8202 161.655 76.1184 161.655C75.4094 161.655 74.7219 161.555 74.0559 161.354C73.397 161.161 72.7812 160.885 72.2082 160.527C71.6353 160.162 71.109 159.729 70.6291 159.228C70.1565 158.719 69.7519 158.16 69.4153 157.552C69.0787 156.936 68.8173 156.273 68.6311 155.564C68.4449 154.855 68.3518 154.121 68.3518 153.362C68.3518 152.603 68.4449 151.869 68.6311 151.16C68.8173 150.451 69.0787 149.792 69.4153 149.184C69.7519 148.568 70.1565 148.009 70.6291 147.508C71.109 146.999 71.6353 146.566 72.2082 146.208C72.7812 145.843 73.397 145.563 74.0559 145.37C74.7219 145.17 75.4094 145.069 76.1184 145.069C76.8704 145.069 77.5829 145.177 78.2561 145.392C78.9364 145.606 79.5631 145.904 80.136 146.283C80.7161 146.663 81.2388 147.114 81.7043 147.637C82.1698 148.16 82.5637 148.729 82.886 149.345C83.2154 149.961 83.4661 150.609 83.6379 151.289C83.817 151.969 83.9065 152.66 83.9065 153.362ZM100.072 150.945C100.072 150.365 99.9827 149.853 99.8036 149.409C99.6318 148.958 99.3954 148.568 99.0947 148.238C98.801 147.902 98.4501 147.619 98.0419 147.39C97.6409 147.153 97.2112 146.964 96.7529 146.82C96.2945 146.67 95.8183 146.559 95.3241 146.487C94.83 146.416 94.3466 146.369 93.8739 146.348H93.122L92.8857 155.414C93.1077 155.471 93.3476 155.514 93.6054 155.543C93.8632 155.572 94.1353 155.586 94.4218 155.586C95.1738 155.586 95.8899 155.489 96.5702 155.296C97.2577 155.095 97.8593 154.802 98.3749 154.415C98.8977 154.028 99.3095 153.545 99.6103 152.965C99.9182 152.385 100.072 151.712 100.072 150.945ZM94.4218 156.714C94.1353 156.714 93.8596 156.703 93.5947 156.682C93.3368 156.653 93.0933 156.61 92.8642 156.553L92.7782 159.947C93.0504 159.969 93.3261 159.99 93.6054 160.012C93.8919 160.033 94.1783 160.055 94.4648 160.076C94.608 160.098 94.7262 160.162 94.8193 160.27C94.9195 160.377 94.9697 160.502 94.9697 160.646C94.9697 160.81 94.9088 160.943 94.787 161.043C94.6653 161.143 94.5364 161.193 94.4003 161.193H94.3573C93.7844 161.136 93.2115 161.093 92.6386 161.064C92.0728 161.036 91.5035 161.021 90.9306 161.021C90.3648 161.021 89.8027 161.036 89.2441 161.064C88.6926 161.093 88.1376 161.136 87.579 161.193H87.5361C87.3785 161.193 87.2424 161.136 87.1279 161.021C87.0204 160.914 86.9667 160.789 86.9667 160.646C86.9667 160.502 87.0133 160.377 87.1064 160.27C87.2066 160.162 87.3284 160.098 87.4716 160.076C87.7366 160.055 88.0016 160.033 88.2665 160.012C88.5387 159.99 88.8072 159.969 89.0722 159.947L89.3193 146.616C88.7893 146.702 88.3954 146.788 88.1376 146.874C87.887 146.96 87.7545 147.003 87.7402 147.003C87.6542 147.039 87.5862 147.057 87.5361 147.057C87.3785 147.057 87.2424 146.996 87.1279 146.874C87.0204 146.752 86.9667 146.62 86.9667 146.477C86.9667 146.369 86.9954 146.265 87.0527 146.165C87.1171 146.065 87.2066 145.993 87.3212 145.95C87.3427 145.943 87.4752 145.904 87.7187 145.832C87.9622 145.753 88.3131 145.667 88.7714 145.574C89.2369 145.481 89.8134 145.399 90.5009 145.327C91.1884 145.248 91.9905 145.209 92.9072 145.209C93.0647 145.209 93.2258 145.209 93.3905 145.209C93.5624 145.209 93.7307 145.216 93.8954 145.23C94.5185 145.252 95.1308 145.313 95.7323 145.413C96.3339 145.513 96.9068 145.667 97.4511 145.875C97.9954 146.076 98.4931 146.326 98.9443 146.627C99.4026 146.928 99.8001 147.289 100.137 147.712C100.473 148.127 100.735 148.604 100.921 149.141C101.107 149.678 101.2 150.279 101.2 150.945C101.2 151.576 101.107 152.156 100.921 152.686C100.735 153.208 100.477 153.685 100.147 154.114C99.8251 154.537 99.4456 154.913 99.0087 155.242C98.5719 155.564 98.0992 155.837 97.5907 156.059C97.0894 156.273 96.5667 156.438 96.0224 156.553C95.4853 156.66 94.9517 156.714 94.4218 156.714ZM117.656 156.821C117.656 157.602 117.477 158.3 117.119 158.916C116.761 159.525 116.299 160.04 115.733 160.463C115.167 160.878 114.537 161.197 113.842 161.419C113.155 161.641 112.475 161.752 111.801 161.752C110.541 161.752 109.377 161.523 108.31 161.064C107.243 160.606 106.294 159.933 105.463 159.045V159.303C105.463 159.532 105.467 159.757 105.474 159.979C105.481 160.201 105.492 160.424 105.506 160.646V160.688C105.506 160.832 105.456 160.957 105.356 161.064C105.263 161.172 105.138 161.233 104.98 161.247C104.815 161.247 104.679 161.197 104.572 161.097C104.464 160.996 104.404 160.868 104.389 160.71C104.375 160.481 104.364 160.252 104.357 160.022C104.35 159.786 104.346 159.553 104.346 159.324C104.346 158.594 104.382 157.921 104.454 157.305C104.525 156.682 104.622 156.066 104.744 155.457C104.78 155.321 104.844 155.21 104.937 155.124C105.037 155.038 105.156 154.995 105.292 154.995C105.456 154.995 105.592 155.06 105.7 155.188C105.807 155.31 105.861 155.436 105.861 155.564C105.861 155.579 105.861 155.597 105.861 155.618C105.861 155.632 105.854 155.65 105.839 155.672C105.804 155.837 105.771 155.991 105.743 156.134C105.721 156.27 105.696 156.406 105.668 156.542C105.646 156.671 105.625 156.807 105.603 156.95C105.589 157.086 105.571 157.24 105.549 157.412C106.351 158.443 107.268 159.238 108.299 159.797C109.331 160.348 110.491 160.624 111.78 160.624C112.145 160.624 112.535 160.592 112.951 160.527C113.373 160.463 113.76 160.348 114.111 160.184C114.469 160.012 114.763 159.786 114.992 159.507C115.228 159.22 115.346 158.859 115.346 158.422C115.346 158.114 115.264 157.835 115.099 157.584C114.935 157.326 114.72 157.097 114.455 156.896C114.19 156.696 113.889 156.521 113.552 156.37C113.223 156.213 112.89 156.076 112.553 155.962C112.217 155.847 111.894 155.754 111.587 155.683C111.286 155.604 111.028 155.543 110.813 155.5C110.305 155.393 109.8 155.274 109.298 155.146C108.797 155.009 108.321 154.848 107.87 154.662C107.419 154.476 107 154.257 106.613 154.007C106.226 153.756 105.89 153.463 105.603 153.126C105.324 152.782 105.102 152.385 104.937 151.934C104.78 151.482 104.701 150.963 104.701 150.376C104.701 149.803 104.776 149.277 104.926 148.797C105.084 148.31 105.299 147.873 105.571 147.486C105.843 147.1 106.162 146.763 106.527 146.477C106.899 146.183 107.304 145.939 107.741 145.746C108.178 145.546 108.636 145.399 109.116 145.306C109.603 145.205 110.093 145.155 110.588 145.155C110.888 145.155 111.207 145.18 111.544 145.23C111.887 145.273 112.227 145.338 112.564 145.424C112.901 145.503 113.23 145.599 113.552 145.714C113.882 145.821 114.186 145.943 114.465 146.079C114.745 146.208 114.992 146.348 115.207 146.498C115.421 146.641 115.593 146.788 115.722 146.938C115.823 146.666 115.93 146.398 116.045 146.133C116.166 145.861 116.292 145.589 116.421 145.316C116.478 145.216 116.549 145.141 116.635 145.091C116.728 145.034 116.825 145.005 116.925 145.005C117.09 145.005 117.226 145.066 117.334 145.188C117.441 145.302 117.495 145.431 117.495 145.574C117.495 145.653 117.473 145.735 117.43 145.821C117.058 146.595 116.75 147.372 116.506 148.152C116.27 148.926 116.102 149.71 116.002 150.505C115.987 150.648 115.926 150.766 115.819 150.859C115.719 150.945 115.597 150.988 115.454 150.988C115.289 150.988 115.153 150.927 115.046 150.806C114.938 150.684 114.884 150.562 114.884 150.44V150.376C114.97 149.617 115.124 148.868 115.346 148.131C115.303 148.002 115.192 147.866 115.013 147.723C114.834 147.572 114.612 147.429 114.347 147.293C114.089 147.157 113.796 147.028 113.466 146.906C113.137 146.777 112.8 146.666 112.457 146.573C112.113 146.48 111.769 146.405 111.425 146.348C111.082 146.29 110.767 146.262 110.48 146.262C110.043 146.262 109.624 146.308 109.223 146.401C108.822 146.494 108.464 146.645 108.149 146.853C107.841 147.06 107.59 147.329 107.397 147.658C107.204 147.98 107.103 148.371 107.096 148.829C107.125 149.23 107.232 149.577 107.419 149.871C107.612 150.158 107.848 150.408 108.128 150.623C108.414 150.838 108.736 151.021 109.094 151.171C109.452 151.314 109.814 151.439 110.179 151.547C110.552 151.647 110.913 151.737 111.264 151.815C111.615 151.887 111.934 151.955 112.22 152.02C112.944 152.191 113.635 152.385 114.294 152.6C114.952 152.814 115.529 153.097 116.023 153.448C116.524 153.799 116.922 154.247 117.215 154.791C117.509 155.328 117.656 156.005 117.656 156.821ZM124.401 159.829C124.401 160.058 124.358 160.273 124.272 160.474C124.186 160.674 124.068 160.85 123.917 161C123.774 161.15 123.602 161.269 123.402 161.354C123.201 161.44 122.986 161.483 122.757 161.483C122.528 161.483 122.313 161.44 122.113 161.354C121.912 161.269 121.737 161.15 121.586 161C121.436 160.85 121.318 160.674 121.232 160.474C121.146 160.273 121.103 160.058 121.103 159.829C121.103 159.607 121.146 159.396 121.232 159.195C121.318 158.995 121.436 158.823 121.586 158.68C121.737 158.536 121.912 158.422 122.113 158.336C122.313 158.25 122.528 158.207 122.757 158.207C122.986 158.207 123.201 158.25 123.402 158.336C123.602 158.422 123.774 158.536 123.917 158.68C124.068 158.823 124.186 158.995 124.272 159.195C124.358 159.396 124.401 159.607 124.401 159.829ZM131.092 159.829C131.092 160.058 131.049 160.273 130.963 160.474C130.877 160.674 130.759 160.85 130.608 161C130.465 161.15 130.293 161.269 130.093 161.354C129.892 161.44 129.677 161.483 129.448 161.483C129.219 161.483 129.004 161.44 128.804 161.354C128.603 161.269 128.428 161.15 128.277 161C128.127 160.85 128.009 160.674 127.923 160.474C127.837 160.273 127.794 160.058 127.794 159.829C127.794 159.607 127.837 159.396 127.923 159.195C128.009 158.995 128.127 158.823 128.277 158.68C128.428 158.536 128.603 158.422 128.804 158.336C129.004 158.25 129.219 158.207 129.448 158.207C129.677 158.207 129.892 158.25 130.093 158.336C130.293 158.422 130.465 158.536 130.608 158.68C130.759 158.823 130.877 158.995 130.963 159.195C131.049 159.396 131.092 159.607 131.092 159.829ZM137.783 159.829C137.783 160.058 137.74 160.273 137.654 160.474C137.568 160.674 137.45 160.85 137.299 161C137.156 161.15 136.984 161.269 136.784 161.354C136.583 161.44 136.368 161.483 136.139 161.483C135.91 161.483 135.695 161.44 135.495 161.354C135.294 161.269 135.119 161.15 134.968 161C134.818 160.85 134.7 160.674 134.614 160.474C134.528 160.273 134.485 160.058 134.485 159.829C134.485 159.607 134.528 159.396 134.614 159.195C134.7 158.995 134.818 158.823 134.968 158.68C135.119 158.536 135.294 158.422 135.495 158.336C135.695 158.25 135.91 158.207 136.139 158.207C136.368 158.207 136.583 158.25 136.784 158.336C136.984 158.422 137.156 158.536 137.299 158.68C137.45 158.823 137.568 158.995 137.654 159.195C137.74 159.396 137.783 159.607 137.783 159.829ZM162.229 149.646C162.229 149.667 162.233 149.696 162.24 149.731C162.247 149.76 162.251 149.792 162.251 149.828C162.251 149.979 162.19 150.111 162.068 150.226C161.954 150.34 161.825 150.397 161.682 150.397C161.567 150.397 161.46 150.362 161.359 150.29C161.266 150.218 161.198 150.122 161.155 150C161.062 149.728 160.973 149.438 160.887 149.13C160.801 148.815 160.722 148.507 160.65 148.206C160.586 147.905 160.525 147.622 160.468 147.357C160.41 147.092 160.368 146.867 160.339 146.681C159.931 146.702 159.465 146.72 158.942 146.734C158.42 146.742 157.857 146.745 157.256 146.745L156.901 160.012C157.489 160.033 158.054 160.076 158.599 160.141C158.756 160.155 158.878 160.216 158.964 160.323C159.057 160.424 159.104 160.545 159.104 160.688C159.104 160.868 159.043 161.007 158.921 161.107C158.806 161.215 158.685 161.269 158.556 161.269H158.491C157.911 161.197 157.338 161.147 156.772 161.118C156.207 161.097 155.641 161.086 155.075 161.086C154.502 161.086 153.94 161.097 153.389 161.118C152.837 161.147 152.286 161.197 151.734 161.269H151.67C151.512 161.269 151.376 161.208 151.262 161.086C151.154 160.964 151.101 160.832 151.101 160.688C151.101 160.545 151.147 160.424 151.24 160.323C151.34 160.216 151.462 160.155 151.605 160.141C152.157 160.076 152.698 160.033 153.228 160.012L153.475 146.681C152.866 146.659 152.293 146.634 151.756 146.605C151.226 146.57 150.75 146.534 150.327 146.498C150.284 146.691 150.23 146.928 150.166 147.207C150.109 147.486 150.041 147.784 149.962 148.099C149.89 148.414 149.815 148.736 149.736 149.065C149.658 149.388 149.575 149.692 149.489 149.979C149.453 150.1 149.385 150.201 149.285 150.279C149.192 150.358 149.085 150.397 148.963 150.397C148.798 150.397 148.662 150.34 148.555 150.226C148.447 150.104 148.394 149.971 148.394 149.828C148.394 149.807 148.394 149.782 148.394 149.753C148.394 149.717 148.401 149.688 148.415 149.667C148.522 149.287 148.63 148.872 148.737 148.421C148.845 147.97 148.941 147.547 149.027 147.153C149.12 146.759 149.196 146.43 149.253 146.165C149.31 145.9 149.339 145.764 149.339 145.757C149.375 145.621 149.439 145.513 149.532 145.435C149.632 145.356 149.751 145.316 149.887 145.316H149.973C150.345 145.367 150.796 145.41 151.326 145.445C151.863 145.481 152.44 145.513 153.056 145.542C153.679 145.563 154.323 145.581 154.989 145.596C155.655 145.61 156.307 145.617 156.944 145.617C157.725 145.617 158.445 145.61 159.104 145.596C159.762 145.574 160.314 145.546 160.758 145.51H160.801C160.93 145.51 161.048 145.556 161.155 145.649C161.263 145.735 161.327 145.843 161.349 145.972C161.349 145.979 161.359 146.04 161.381 146.154C161.402 146.269 161.431 146.423 161.467 146.616C161.503 146.81 161.546 147.032 161.596 147.282C161.653 147.533 161.714 147.794 161.778 148.066C161.843 148.331 161.911 148.604 161.982 148.883C162.061 149.155 162.144 149.409 162.229 149.646ZM178.384 150C178.384 149.499 178.302 149.062 178.137 148.689C177.973 148.31 177.74 147.984 177.439 147.712C177.146 147.44 176.791 147.218 176.376 147.046C175.96 146.867 175.506 146.727 175.011 146.627C174.517 146.52 173.987 146.448 173.422 146.412C172.863 146.369 172.286 146.348 171.692 146.348C171.527 146.348 171.377 146.348 171.241 146.348C171.105 146.348 170.976 146.355 170.854 146.369L170.661 153.674C170.933 153.731 171.23 153.771 171.552 153.792C171.875 153.813 172.208 153.824 172.551 153.824C172.974 153.824 173.411 153.799 173.862 153.749C174.313 153.699 174.754 153.617 175.183 153.502C175.62 153.387 176.032 153.237 176.419 153.051C176.805 152.857 177.142 152.621 177.428 152.342C177.722 152.055 177.955 151.719 178.127 151.332C178.299 150.945 178.384 150.501 178.384 150ZM180.168 156.8C180.168 156.814 180.171 156.854 180.178 156.918C180.186 156.975 180.189 157.061 180.189 157.176C180.189 157.756 180.1 158.293 179.921 158.787C179.749 159.281 179.502 159.707 179.179 160.065C178.857 160.416 178.467 160.692 178.008 160.893C177.55 161.093 177.038 161.193 176.472 161.193H176.44C175.917 161.179 175.455 161.093 175.054 160.936C174.66 160.778 174.313 160.57 174.012 160.312C173.719 160.048 173.472 159.74 173.271 159.389C173.071 159.038 172.91 158.662 172.788 158.261C172.666 157.853 172.577 157.43 172.519 156.993C172.469 156.556 172.444 156.123 172.444 155.693C172.444 155.564 172.448 155.439 172.455 155.317C172.462 155.188 172.466 155.074 172.466 154.974C172.143 154.974 171.828 154.959 171.52 154.931C171.219 154.902 170.926 154.866 170.639 154.823L170.478 160.388C170.478 160.56 170.421 160.696 170.306 160.796C170.199 160.889 170.066 160.936 169.909 160.936C169.902 160.936 169.755 160.939 169.468 160.946C169.189 160.946 168.827 160.953 168.383 160.968C167.939 160.982 167.449 161.007 166.912 161.043C166.375 161.079 165.848 161.129 165.333 161.193H165.268C165.104 161.193 164.967 161.136 164.86 161.021C164.753 160.914 164.699 160.789 164.699 160.646C164.699 160.502 164.742 160.377 164.828 160.27C164.921 160.162 165.039 160.098 165.182 160.076C165.447 160.04 165.716 160.012 165.988 159.99C166.267 159.969 166.539 159.947 166.804 159.926L167.051 146.681C166.521 146.767 166.12 146.842 165.848 146.906C165.576 146.971 165.433 147.003 165.419 147.003C165.369 147.039 165.318 147.057 165.268 147.057C165.104 147.057 164.967 146.999 164.86 146.885C164.753 146.77 164.699 146.634 164.699 146.477C164.699 146.355 164.735 146.247 164.806 146.154C164.878 146.054 164.975 145.986 165.096 145.95C165.118 145.943 165.268 145.9 165.548 145.821C165.827 145.743 166.239 145.66 166.783 145.574C167.334 145.488 168.015 145.41 168.824 145.338C169.64 145.266 170.596 145.23 171.692 145.23C172.394 145.266 173.071 145.316 173.722 145.381C174.381 145.445 175.001 145.546 175.581 145.682C176.161 145.811 176.691 145.986 177.171 146.208C177.65 146.423 178.062 146.702 178.406 147.046C178.757 147.39 179.025 147.805 179.212 148.292C179.405 148.772 179.502 149.341 179.502 150C179.502 150.523 179.419 151.017 179.255 151.482C179.097 151.941 178.875 152.36 178.589 152.739C178.302 153.112 177.955 153.438 177.547 153.717C177.146 153.989 176.705 154.204 176.225 154.361C176.211 154.526 176.2 154.694 176.193 154.866C176.186 155.038 176.182 155.214 176.182 155.393C176.182 155.543 176.186 155.754 176.193 156.026C176.2 156.299 176.218 156.596 176.247 156.918C176.275 157.24 176.318 157.57 176.376 157.906C176.44 158.243 176.522 158.551 176.623 158.83C176.73 159.102 176.863 159.328 177.02 159.507C177.178 159.679 177.368 159.765 177.59 159.765C177.876 159.765 178.112 159.668 178.299 159.475C178.485 159.281 178.635 159.049 178.75 158.776C178.864 158.497 178.943 158.211 178.986 157.917C179.036 157.623 179.061 157.376 179.061 157.176C179.061 157.097 179.058 157.033 179.05 156.982C179.043 156.932 179.04 156.886 179.04 156.843C179.04 156.678 179.097 156.546 179.212 156.445C179.333 156.345 179.466 156.295 179.609 156.295C179.752 156.295 179.878 156.345 179.985 156.445C180.092 156.538 180.153 156.657 180.168 156.8ZM199.137 146.079C199.137 146.215 199.091 146.337 198.997 146.444C198.904 146.552 198.79 146.616 198.654 146.638C197.945 146.745 197.239 146.81 196.537 146.831C196.215 147.977 195.875 148.983 195.517 149.85C195.159 150.716 194.815 151.461 194.486 152.084C194.163 152.7 193.87 153.194 193.605 153.566C193.347 153.939 193.154 154.204 193.025 154.361V160.012C193.641 160.033 194.264 160.076 194.894 160.141C195.037 160.162 195.155 160.227 195.248 160.334C195.349 160.441 195.399 160.567 195.399 160.71C195.399 160.889 195.334 161.025 195.205 161.118C195.077 161.218 194.951 161.269 194.829 161.269H194.754C194.317 161.211 193.873 161.168 193.422 161.14C192.978 161.118 192.531 161.107 192.079 161.107C191.335 161.107 190.601 161.143 189.877 161.215C189.154 161.294 188.434 161.405 187.718 161.548H187.611C187.453 161.548 187.317 161.491 187.202 161.376C187.095 161.269 187.041 161.143 187.041 161C187.041 160.864 187.084 160.746 187.17 160.646C187.256 160.538 187.367 160.466 187.503 160.431C187.804 160.373 188.105 160.32 188.406 160.27C188.706 160.219 189.014 160.176 189.329 160.141V155.479C188.835 155.013 188.355 154.501 187.89 153.942C187.432 153.377 186.998 152.804 186.59 152.224C186.182 151.644 185.802 151.071 185.452 150.505C185.108 149.932 184.8 149.402 184.528 148.915C184.256 148.428 184.023 148.002 183.829 147.637C183.643 147.271 183.504 146.996 183.411 146.81C183.146 146.788 182.881 146.767 182.616 146.745C182.351 146.716 182.086 146.681 181.821 146.638C181.677 146.616 181.563 146.552 181.477 146.444C181.384 146.337 181.337 146.215 181.337 146.079C181.337 145.893 181.402 145.753 181.531 145.66C181.66 145.56 181.785 145.51 181.907 145.51H181.982C182.612 145.61 183.231 145.685 183.84 145.735C184.456 145.778 185.068 145.8 185.677 145.8C186.286 145.8 186.887 145.778 187.482 145.735C188.083 145.685 188.685 145.61 189.286 145.51H189.351C189.516 145.51 189.652 145.567 189.759 145.682C189.867 145.796 189.92 145.929 189.92 146.079C189.92 146.215 189.874 146.337 189.781 146.444C189.695 146.552 189.58 146.616 189.437 146.638C189.165 146.681 188.885 146.72 188.599 146.756C188.313 146.785 188.026 146.81 187.74 146.831C187.926 147.175 188.173 147.612 188.481 148.142C188.796 148.664 189.154 149.227 189.555 149.828C189.963 150.423 190.407 151.024 190.887 151.633C191.367 152.242 191.872 152.804 192.402 153.319C192.559 153.112 192.753 152.825 192.982 152.46C193.211 152.088 193.458 151.633 193.723 151.096C193.988 150.559 194.264 149.936 194.55 149.227C194.837 148.51 195.112 147.705 195.377 146.81C195.034 146.795 194.693 146.777 194.357 146.756C194.02 146.734 193.684 146.695 193.347 146.638C193.204 146.616 193.086 146.552 192.993 146.444C192.907 146.337 192.864 146.215 192.864 146.079C192.864 145.907 192.925 145.771 193.046 145.671C193.175 145.563 193.3 145.51 193.422 145.51H193.508C193.931 145.574 194.346 145.624 194.754 145.66C195.17 145.696 195.589 145.714 196.011 145.714C196.434 145.714 196.849 145.696 197.257 145.66C197.665 145.624 198.074 145.574 198.482 145.51H198.568C198.718 145.51 198.851 145.571 198.965 145.692C199.08 145.807 199.137 145.936 199.137 146.079ZM219.072 155.35C218.807 154.54 218.528 153.796 218.234 153.115C217.94 152.428 217.65 151.812 217.364 151.268C217.085 150.716 216.816 150.236 216.558 149.828C216.308 149.413 216.093 149.073 215.914 148.808C215.248 149.939 214.65 151.046 214.12 152.127C213.597 153.201 213.132 154.275 212.723 155.35C213.296 155.414 213.848 155.468 214.378 155.511C214.908 155.547 215.434 155.564 215.957 155.564C216.472 155.564 216.984 155.547 217.493 155.511C218.009 155.468 218.535 155.414 219.072 155.35ZM226.398 161.247C226.384 161.247 226.37 161.243 226.355 161.236C226.341 161.236 226.327 161.229 226.312 161.215C225.661 161.115 225.016 161.043 224.379 161C223.748 160.957 223.118 160.936 222.488 160.936C221.865 160.936 221.249 160.957 220.64 161C220.039 161.043 219.437 161.115 218.836 161.215C218.821 161.229 218.807 161.236 218.793 161.236C218.778 161.243 218.764 161.247 218.75 161.247C218.592 161.247 218.456 161.186 218.342 161.064C218.234 160.943 218.18 160.81 218.18 160.667C218.18 160.538 218.223 160.42 218.309 160.312C218.402 160.205 218.521 160.141 218.664 160.119C218.95 160.062 219.24 160.019 219.534 159.99C219.828 159.954 220.128 159.919 220.436 159.883C220.4 159.747 220.357 159.578 220.307 159.378C220.257 159.17 220.189 158.927 220.103 158.647C220.024 158.368 219.928 158.046 219.813 157.681C219.706 157.308 219.577 156.889 219.426 156.424C218.818 156.51 218.231 156.578 217.665 156.628C217.099 156.671 216.53 156.692 215.957 156.692C215.377 156.692 214.789 156.671 214.195 156.628C213.601 156.578 212.978 156.51 212.326 156.424C211.946 157.555 211.638 158.676 211.402 159.786C211.846 159.8 212.29 159.836 212.734 159.894C213.185 159.944 213.644 160.019 214.109 160.119C214.238 160.141 214.342 160.205 214.421 160.312C214.507 160.42 214.55 160.538 214.55 160.667C214.55 160.832 214.485 160.968 214.356 161.075C214.234 161.19 214.106 161.247 213.969 161.247C213.948 161.247 213.93 161.24 213.916 161.226C213.901 161.218 213.884 161.215 213.862 161.215C213.389 161.115 212.924 161.039 212.466 160.989C212.014 160.939 211.563 160.914 211.112 160.914C210.668 160.914 210.231 160.939 209.801 160.989C209.372 161.039 208.935 161.115 208.491 161.215C208.469 161.215 208.452 161.218 208.437 161.226C208.423 161.24 208.405 161.247 208.384 161.247C208.219 161.247 208.083 161.19 207.975 161.075C207.868 160.961 207.814 160.825 207.814 160.667C207.814 160.538 207.854 160.424 207.932 160.323C208.011 160.223 208.119 160.155 208.255 160.119C208.577 160.04 208.899 159.979 209.221 159.937C209.551 159.894 209.887 159.858 210.231 159.829C210.475 158.647 210.793 157.466 211.187 156.284C211.581 155.103 212.05 153.91 212.594 152.707C213.146 151.497 213.776 150.269 214.485 149.022C215.194 147.776 215.993 146.494 216.881 145.177C216.945 145.091 217.017 145.03 217.095 144.994C217.181 144.958 217.264 144.94 217.342 144.94C217.428 144.94 217.511 144.958 217.59 144.994C217.668 145.023 217.733 145.069 217.783 145.134C219.287 147.053 220.576 149.23 221.65 151.665C222.731 154.093 223.62 156.825 224.314 159.861C225.045 159.926 225.772 160.012 226.495 160.119C226.638 160.141 226.753 160.205 226.839 160.312C226.932 160.42 226.978 160.538 226.978 160.667C226.978 160.825 226.914 160.961 226.785 161.075C226.663 161.19 226.534 161.247 226.398 161.247ZM243.681 154.265C243.624 154.265 243.588 154.257 243.574 154.243C243.201 154.179 242.847 154.136 242.51 154.114C242.181 154.086 241.855 154.064 241.533 154.05C241.798 154.358 242.02 154.734 242.199 155.178C242.385 155.615 242.478 156.134 242.478 156.735C242.478 157.308 242.388 157.827 242.209 158.293C242.038 158.751 241.801 159.163 241.5 159.528C241.2 159.886 240.845 160.198 240.437 160.463C240.036 160.721 239.606 160.936 239.148 161.107C238.697 161.279 238.228 161.405 237.741 161.483C237.254 161.569 236.777 161.612 236.312 161.612C235.094 161.576 234.006 161.372 233.046 161C232.087 160.62 231.27 160.09 230.597 159.41C229.924 158.73 229.408 157.906 229.05 156.939C228.699 155.973 228.524 154.877 228.524 153.652C228.524 152.564 228.638 151.597 228.868 150.752C229.097 149.9 229.408 149.155 229.802 148.518C230.203 147.873 230.672 147.332 231.209 146.896C231.746 146.451 232.316 146.093 232.917 145.821C233.526 145.542 234.156 145.341 234.808 145.22C235.46 145.091 236.101 145.026 236.731 145.026C237.361 145.026 237.927 145.094 238.428 145.23C238.929 145.359 239.377 145.524 239.771 145.725C240.165 145.925 240.501 146.151 240.781 146.401C241.067 146.645 241.303 146.878 241.49 147.1L242.08 145.402C242.123 145.288 242.195 145.198 242.295 145.134C242.396 145.062 242.499 145.026 242.607 145.026C242.786 145.026 242.926 145.091 243.026 145.22C243.126 145.341 243.176 145.467 243.176 145.596C243.176 145.617 243.173 145.646 243.165 145.682C243.158 145.71 243.148 145.743 243.133 145.778L241.425 150.773C241.389 150.881 241.321 150.97 241.221 151.042C241.121 151.106 241.01 151.139 240.888 151.139C240.723 151.139 240.587 151.081 240.48 150.967C240.372 150.845 240.319 150.713 240.319 150.569C240.319 150.548 240.322 150.523 240.329 150.494C240.337 150.465 240.347 150.433 240.362 150.397L241.049 148.389C240.87 148.109 240.652 147.841 240.394 147.583C240.143 147.318 239.864 147.085 239.556 146.885C239.255 146.684 238.937 146.523 238.6 146.401C238.263 146.28 237.927 146.219 237.59 146.219C236.731 146.219 235.972 146.405 235.313 146.777C234.654 147.143 234.099 147.647 233.648 148.292C233.204 148.929 232.867 149.674 232.638 150.526C232.409 151.379 232.294 152.288 232.294 153.255C232.294 153.685 232.319 154.161 232.37 154.684C232.427 155.206 232.516 155.736 232.638 156.273C232.767 156.811 232.932 157.33 233.132 157.831C233.34 158.332 233.594 158.78 233.895 159.174C234.196 159.568 234.547 159.883 234.948 160.119C235.349 160.355 235.811 160.474 236.333 160.474C237.207 160.474 237.959 160.366 238.589 160.151C239.219 159.937 239.735 159.654 240.136 159.303C240.544 158.952 240.845 158.551 241.038 158.1C241.232 157.648 241.329 157.187 241.329 156.714C241.329 156.299 241.271 155.94 241.157 155.64C241.042 155.332 240.906 155.077 240.748 154.877C240.591 154.669 240.43 154.508 240.265 154.394C240.1 154.279 239.971 154.2 239.878 154.157C239.499 154.207 239.159 154.272 238.858 154.351C238.564 154.429 238.314 154.505 238.106 154.576C237.905 154.648 237.748 154.712 237.633 154.77C237.526 154.82 237.468 154.845 237.461 154.845C237.383 154.902 237.293 154.931 237.193 154.931C237.028 154.931 236.892 154.873 236.785 154.759C236.677 154.637 236.623 154.505 236.623 154.361C236.623 154.154 236.72 153.989 236.913 153.867C236.935 153.86 237.05 153.806 237.257 153.706C237.465 153.606 237.755 153.498 238.127 153.384C238.507 153.262 238.965 153.155 239.502 153.062C240.047 152.968 240.663 152.922 241.35 152.922C242.088 152.922 242.897 152.997 243.778 153.147C243.907 153.169 244.014 153.233 244.1 153.341C244.193 153.441 244.24 153.559 244.24 153.695C244.24 153.882 244.175 154.025 244.046 154.125C243.917 154.218 243.796 154.265 243.681 154.265ZM256.56 155.35C256.295 154.54 256.015 153.796 255.722 153.115C255.428 152.428 255.138 151.812 254.852 151.268C254.572 150.716 254.304 150.236 254.046 149.828C253.795 149.413 253.58 149.073 253.401 148.808C252.735 149.939 252.137 151.046 251.607 152.127C251.085 153.201 250.619 154.275 250.211 155.35C250.784 155.414 251.335 155.468 251.865 155.511C252.395 155.547 252.922 155.564 253.444 155.564C253.96 155.564 254.472 155.547 254.981 155.511C255.496 155.468 256.023 155.414 256.56 155.35ZM263.886 161.247C263.871 161.247 263.857 161.243 263.843 161.236C263.829 161.236 263.814 161.229 263.8 161.215C263.148 161.115 262.504 161.043 261.866 161C261.236 160.957 260.606 160.936 259.976 160.936C259.353 160.936 258.737 160.957 258.128 161C257.526 161.043 256.925 161.115 256.323 161.215C256.309 161.229 256.295 161.236 256.28 161.236C256.266 161.243 256.252 161.247 256.237 161.247C256.08 161.247 255.944 161.186 255.829 161.064C255.722 160.943 255.668 160.81 255.668 160.667C255.668 160.538 255.711 160.42 255.797 160.312C255.89 160.205 256.008 160.141 256.151 160.119C256.438 160.062 256.728 160.019 257.022 159.99C257.315 159.954 257.616 159.919 257.924 159.883C257.888 159.747 257.845 159.578 257.795 159.378C257.745 159.17 257.677 158.927 257.591 158.647C257.512 158.368 257.415 158.046 257.301 157.681C257.193 157.308 257.065 156.889 256.914 156.424C256.305 156.51 255.718 156.578 255.152 156.628C254.587 156.671 254.017 156.692 253.444 156.692C252.864 156.692 252.277 156.671 251.683 156.628C251.088 156.578 250.465 156.51 249.814 156.424C249.434 157.555 249.126 158.676 248.89 159.786C249.334 159.8 249.778 159.836 250.222 159.894C250.673 159.944 251.131 160.019 251.597 160.119C251.726 160.141 251.83 160.205 251.908 160.312C251.994 160.42 252.037 160.538 252.037 160.667C252.037 160.832 251.973 160.968 251.844 161.075C251.722 161.19 251.593 161.247 251.457 161.247C251.436 161.247 251.418 161.24 251.403 161.226C251.389 161.218 251.371 161.215 251.35 161.215C250.877 161.115 250.412 161.039 249.953 160.989C249.502 160.939 249.051 160.914 248.6 160.914C248.156 160.914 247.719 160.939 247.289 160.989C246.859 161.039 246.423 161.115 245.979 161.215C245.957 161.215 245.939 161.218 245.925 161.226C245.911 161.24 245.893 161.247 245.871 161.247C245.706 161.247 245.57 161.19 245.463 161.075C245.356 160.961 245.302 160.825 245.302 160.667C245.302 160.538 245.341 160.424 245.42 160.323C245.499 160.223 245.606 160.155 245.742 160.119C246.065 160.04 246.387 159.979 246.709 159.937C247.038 159.894 247.375 159.858 247.719 159.829C247.962 158.647 248.281 157.466 248.675 156.284C249.069 155.103 249.538 153.91 250.082 152.707C250.634 151.497 251.264 150.269 251.973 149.022C252.682 147.776 253.48 146.494 254.368 145.177C254.433 145.091 254.504 145.03 254.583 144.994C254.669 144.958 254.751 144.94 254.83 144.94C254.916 144.94 254.998 144.958 255.077 144.994C255.156 145.023 255.22 145.069 255.271 145.134C256.774 147.053 258.064 149.23 259.138 151.665C260.219 154.093 261.107 156.825 261.802 159.861C262.532 159.926 263.259 160.012 263.982 160.119C264.126 160.141 264.24 160.205 264.326 160.312C264.419 160.42 264.466 160.538 264.466 160.667C264.466 160.825 264.401 160.961 264.273 161.075C264.151 161.19 264.022 161.247 263.886 161.247ZM274.347 145.993C274.347 146.136 274.297 146.262 274.197 146.369C274.097 146.469 273.971 146.527 273.821 146.541C273.556 146.57 273.291 146.595 273.026 146.616C272.761 146.631 272.489 146.645 272.21 146.659L271.866 159.904C272.138 159.926 272.414 159.947 272.693 159.969C272.98 159.99 273.266 160.012 273.553 160.033C273.717 160.069 273.843 160.144 273.928 160.259C274.014 160.366 274.057 160.495 274.057 160.646C274.043 160.803 273.979 160.925 273.864 161.011C273.757 161.104 273.631 161.15 273.488 161.15H273.445C272.872 161.093 272.299 161.05 271.726 161.021C271.161 160.993 270.591 160.979 270.018 160.979C269.453 160.979 268.89 160.993 268.332 161.021C267.78 161.05 267.225 161.093 266.667 161.15H266.624C266.459 161.15 266.323 161.097 266.216 160.989C266.108 160.875 266.054 160.746 266.054 160.603C266.054 160.459 266.101 160.334 266.194 160.227C266.294 160.119 266.416 160.055 266.559 160.033C266.824 160.012 267.089 159.99 267.354 159.969C267.626 159.947 267.895 159.926 268.16 159.904L268.407 146.541C267.791 146.498 267.168 146.434 266.538 146.348C266.395 146.326 266.276 146.262 266.183 146.154C266.097 146.047 266.054 145.929 266.054 145.8C266.054 145.614 266.119 145.474 266.248 145.381C266.377 145.281 266.502 145.23 266.624 145.23H266.688C267.447 145.338 268.196 145.417 268.933 145.467C269.671 145.51 270.405 145.531 271.136 145.531C271.58 145.531 272.016 145.524 272.446 145.51C272.876 145.495 273.305 145.467 273.735 145.424H273.778C273.943 145.424 274.079 145.481 274.186 145.596C274.294 145.71 274.347 145.843 274.347 145.993ZM293.596 145.402C293.596 145.524 293.56 145.639 293.489 145.746C293.424 145.846 293.331 145.914 293.209 145.95C292.959 146.015 292.712 146.076 292.468 146.133C292.225 146.183 291.978 146.226 291.727 146.262C291.913 147.393 292.042 148.493 292.114 149.56C292.192 150.627 292.232 151.683 292.232 152.729C292.232 154.146 292.175 155.514 292.06 156.832C291.953 158.15 291.82 159.442 291.663 160.71C291.62 160.868 291.544 160.986 291.437 161.064C291.337 161.15 291.222 161.193 291.093 161.193C290.85 161.193 290.681 161.079 290.588 160.85C290.388 160.363 290.112 159.765 289.761 159.056C289.417 158.34 289.027 157.573 288.59 156.757C288.161 155.933 287.702 155.081 287.215 154.2C286.735 153.319 286.263 152.467 285.797 151.644C285.339 150.82 284.906 150.05 284.497 149.334C284.089 148.611 283.742 147.998 283.456 147.497L283.133 159.947C283.405 159.969 283.681 159.99 283.96 160.012C284.247 160.033 284.533 160.055 284.82 160.076C284.963 160.098 285.081 160.162 285.174 160.27C285.275 160.377 285.325 160.502 285.325 160.646C285.325 160.81 285.264 160.943 285.142 161.043C285.02 161.143 284.891 161.193 284.755 161.193H284.712C284.139 161.136 283.567 161.093 282.994 161.064C282.428 161.036 281.859 161.021 281.286 161.021C280.72 161.021 280.158 161.036 279.599 161.064C279.048 161.093 278.493 161.136 277.934 161.193H277.891C277.734 161.193 277.597 161.136 277.483 161.021C277.375 160.914 277.322 160.789 277.322 160.646C277.322 160.502 277.368 160.377 277.461 160.27C277.562 160.162 277.683 160.098 277.827 160.076C278.092 160.055 278.357 160.033 278.622 160.012C278.894 159.99 279.162 159.969 279.427 159.947L279.674 146.391C279.058 146.348 278.435 146.283 277.805 146.197C277.662 146.176 277.544 146.111 277.451 146.004C277.365 145.889 277.322 145.76 277.322 145.617C277.322 145.445 277.386 145.313 277.515 145.22C277.644 145.119 277.769 145.069 277.891 145.069H277.956C278.722 145.17 279.47 145.248 280.201 145.306C280.938 145.356 281.672 145.381 282.403 145.381H283.198C283.205 145.381 283.226 145.384 283.262 145.392C283.298 145.392 283.337 145.399 283.38 145.413C283.43 145.427 283.481 145.452 283.531 145.488C283.588 145.524 283.638 145.574 283.681 145.639C283.71 145.689 283.803 145.85 283.96 146.122C284.118 146.394 284.322 146.749 284.573 147.186C284.823 147.622 285.11 148.127 285.432 148.7C285.761 149.273 286.109 149.885 286.474 150.537C286.846 151.189 287.226 151.866 287.613 152.567C287.999 153.269 288.379 153.971 288.751 154.673C289.131 155.368 289.493 156.048 289.836 156.714C290.187 157.373 290.502 157.989 290.782 158.562C290.875 157.623 290.954 156.671 291.018 155.704C291.082 154.737 291.115 153.745 291.115 152.729C291.115 151.712 291.075 150.673 290.997 149.613C290.918 148.553 290.789 147.465 290.61 146.348C290.517 146.362 290.427 146.369 290.341 146.369C290.255 146.369 290.162 146.369 290.062 146.369C289.639 146.369 289.199 146.348 288.741 146.305C288.597 146.29 288.476 146.229 288.375 146.122C288.282 146.007 288.236 145.879 288.236 145.735C288.236 145.578 288.293 145.445 288.408 145.338C288.529 145.23 288.662 145.177 288.805 145.177H288.87C289.07 145.205 289.267 145.227 289.46 145.241C289.661 145.248 289.861 145.252 290.062 145.252C290.556 145.252 291.039 145.22 291.512 145.155C291.985 145.091 292.447 144.998 292.898 144.876C292.927 144.862 292.977 144.854 293.048 144.854C293.206 144.854 293.335 144.912 293.435 145.026C293.542 145.134 293.596 145.259 293.596 145.402Z" fill="white"/>
<defs>
<filter id="filter0_d_168_236" x="17.9243" y="128.806" width="65.2231" height="85.358" filterUnits="userSpaceOnUse" color-interpolation-filters="sRGB">
<feFlood flood-opacity="0" result="BackgroundImageFix"/>
<feColorMatrix in="SourceAlpha" type="matrix" values="0 0 0 0 0 0 0 0 0 0 0 0 0 0 0 0 0 0 127 0" result="hardAlpha"/>
<feOffset dy="5.18927"/>
<feComposite in2="hardAlpha" operator="out"/>
<feColorMatrix type="matrix" values="0 0 0 0 0.302563 0 0 0 0 0.705 0 0 0 0 0.650122 0 0 0 1 0"/>
<feBlend mode="normal" in2="BackgroundImageFix" result="effect1_dropShadow_168_236"/>
<feBlend mode="normal" in="SourceGraphic" in2="effect1_dropShadow_168_236" result="shape"/>
</filter>
<filter id="filter1_d_168_236" x="259.345" y="128.806" width="65.2231" height="85.358" filterUnits="userSpaceOnUse" color-interpolation-filters="sRGB">
<feFlood flood-opacity="0" result="BackgroundImageFix"/>
<feColorMatrix in="SourceAlpha" type="matrix" values="0 0 0 0 0 0 0 0 0 0 0 0 0 0 0 0 0 0 127 0" result="hardAlpha"/>
<feOffset dy="5.18927"/>
<feComposite in2="hardAlpha" operator="out"/>
<feColorMatrix type="matrix" values="0 0 0 0 0.302563 0 0 0 0 0.705 0 0 0 0 0.650122 0 0 0 1 0"/>
<feBlend mode="normal" in2="BackgroundImageFix" result="effect1_dropShadow_168_236"/>
<feBlend mode="normal" in="SourceGraphic" in2="effect1_dropShadow_168_236" result="shape"/>
</filter>
<filter id="filter2_d_168_236" x="43.3628" y="102.349" width="254.979" height="98.783" filterUnits="userSpaceOnUse" color-interpolation-filters="sRGB">
<feFlood flood-opacity="0" result="BackgroundImageFix"/>
<feColorMatrix in="SourceAlpha" type="matrix" values="0 0 0 0 0 0 0 0 0 0 0 0 0 0 0 0 0 0 127 0" result="hardAlpha"/>
<feOffset dy="5.18927"/>
<feComposite in2="hardAlpha" operator="out"/>
<feColorMatrix type="matrix" values="0 0 0 0 0.302563 0 0 0 0 0.705 0 0 0 0 0.650122 0 0 0 1 0"/>
<feBlend mode="normal" in2="BackgroundImageFix" result="effect1_dropShadow_168_236"/>
<feBlend mode="normal" in="SourceGraphic" in2="effect1_dropShadow_168_236" result="shape"/>
</filter>
<linearGradient id="paint0_linear_168_236" x1="127.708" y1="4.78125" x2="144.165" y2="140.845" gradientUnits="userSpaceOnUse">
<stop stop-color="#7ED6CA" stop-opacity="0"/>
<stop offset="1" stop-color="#7ED6CA" stop-opacity="0.5"/>
</linearGradient>
<linearGradient id="paint1_linear_168_236" x1="214.44" y1="3.57548" x2="199.525" y2="139.816" gradientUnits="userSpaceOnUse">
<stop stop-color="#7ED6CA" stop-opacity="0"/>
<stop offset="1" stop-color="#7ED6CA" stop-opacity="0.5"/>
</linearGradient>
<linearGradient id="paint2_linear_168_236" x1="59.977" y1="38.2111" x2="94.1676" y2="150.771" gradientUnits="userSpaceOnUse">
<stop stop-color="#7ED6CA" stop-opacity="0"/>
<stop offset="1" stop-color="#7ED6CA" stop-opacity="0.5"/>
</linearGradient>
<linearGradient id="paint3_linear_168_236" x1="282.545" y1="36.236" x2="249.631" y2="149.176" gradientUnits="userSpaceOnUse">
<stop stop-color="#7ED6CA" stop-opacity="0"/>
<stop offset="1" stop-color="#7ED6CA" stop-opacity="0.5"/>
</linearGradient>
<linearGradient id="paint4_linear_168_236" x1="18.0689" y1="90.921" x2="56.7935" y2="165.493" gradientUnits="userSpaceOnUse">
<stop stop-color="#7ED6CA" stop-opacity="0"/>
<stop offset="1" stop-color="#7ED6CA" stop-opacity="0.5"/>
</linearGradient>
<linearGradient id="paint5_linear_168_236" x1="325.047" y1="88.4681" x2="287.17" y2="163.474" gradientUnits="userSpaceOnUse">
<stop stop-color="#7ED6CA" stop-opacity="0"/>
<stop offset="1" stop-color="#7ED6CA" stop-opacity="0.5"/>
</linearGradient>
<linearGradient id="paint6_linear_168_236" x1="26.8361" y1="89.6008" x2="42.4181" y2="170.344" gradientUnits="userSpaceOnUse">
<stop stop-color="#D0FFF9"/>
<stop offset="1" stop-color="#7ED6CA"/>
</linearGradient>
<linearGradient id="paint7_linear_168_236" x1="315.656" y1="89.6008" x2="300.074" y2="170.344" gradientUnits="userSpaceOnUse">
<stop stop-color="#D0FFF9"/>
<stop offset="1" stop-color="#7ED6CA"/>
</linearGradient>
<linearGradient id="paint8_linear_168_236" x1="170.852" y1="52.2979" x2="170.852" y2="153.345" gradientUnits="userSpaceOnUse">
<stop stop-color="#D0FFF9"/>
<stop offset="1" stop-color="#7ED6CA"/>
</linearGradient>
</defs>
</svg>

