<svg width="217" height="180" viewBox="0 0 217 180" fill="none" xmlns="http://www.w3.org/2000/svg">
<g filter="url(#filter0_d_0_221)">
<path d="M90.0037 5.16261C90.0037 5.16261 90.3436 0.756146 96.633 0.246201C102.922 -0.263745 103.759 4.65267 103.759 4.65267L90.0037 5.16261Z" fill="#FFAB05"/>
<path d="M174.759 77.7971C174.759 77.7971 195.026 84.9233 205.775 95.8021C216.523 106.681 214.718 121.613 204.075 125.235C197.979 127.417 191.41 127.927 185.05 126.713L174.759 77.7971Z" fill="#D37D00"/>
<path d="M211.201 119.247C214.653 112.918 213.28 103.373 205.775 95.8021C195.026 84.9233 174.759 77.7971 174.759 77.7971L175.387 80.7914C180.421 82.7397 195.85 89.1728 204.755 98.1819C211.371 104.85 213.215 113.062 211.201 119.247Z" fill="#FFAB05"/>
<path d="M28.5878 77.6794C28.5878 81.079 25.868 84.021 20.4286 89.2382C13.1979 96.1551 2.31901 102.314 5.03872 121.835C5.03872 121.835 8.203 115.507 12.5049 113.689C12.5049 113.689 3.67887 129.092 17.0421 140.416C16.8664 136.259 17.4786 132.106 18.8465 128.177C18.8465 128.177 17.722 150.406 48.2795 152.864L139.991 156.721C139.991 156.721 171.699 159.885 178.721 132.257C178.966 135.358 178.812 138.478 178.263 141.54C178.263 141.54 193.209 131.354 184.605 109.845C184.605 109.845 188.685 113.467 189.835 116.631C190.87 112.837 191.055 108.861 190.376 104.988C189.698 101.114 188.174 97.4372 185.913 94.22C178.211 83.5765 176.407 84.701 175.269 74.9728C174.132 65.2446 158.114 20.3955 101.497 25.8741C44.8799 31.3528 28.5878 77.6794 28.5878 77.6794Z" fill="#BE5000"/>
<g style="mix-blend-mode:multiply" opacity="0.5">
<path d="M189.822 116.632C190.857 112.837 191.042 108.862 190.364 104.988C189.686 101.114 188.161 97.4375 185.9 94.2202C179.218 84.9758 176.969 84.5966 175.753 78.2942C175.48 82.7982 176.703 87.2661 179.231 91.0037C183.428 96.8092 188.554 101.464 188.789 109.1C188.789 109.911 187.691 109.976 187.482 109.283C186.174 105.531 183.35 101.359 179.375 100.13C186.174 109.728 186.148 122.738 181.82 133.421C181.764 133.561 181.663 133.68 181.533 133.757C181.403 133.833 181.25 133.865 181.1 133.845C180.95 133.826 180.811 133.756 180.704 133.649C180.598 133.541 180.53 133.401 180.513 133.251C180.541 130.311 180.167 127.381 179.401 124.542C176.786 132.937 171.294 139.056 164.691 144.927C164.575 145.04 164.421 145.108 164.259 145.118C164.097 145.128 163.937 145.08 163.807 144.982C163.677 144.884 163.587 144.743 163.553 144.584C163.518 144.425 163.542 144.259 163.619 144.116C167.466 137.685 169.6 130.374 169.817 122.882C169.824 122.745 169.871 122.614 169.953 122.505C170.034 122.395 170.146 122.312 170.275 122.266C170.403 122.22 170.543 122.213 170.675 122.246C170.808 122.279 170.927 122.35 171.02 122.45C176.498 119.678 178.721 111.898 177.479 106.171C176.603 102.144 173.792 93.998 168.326 95.7109C168.225 95.7391 168.119 95.7436 168.016 95.724C167.913 95.7044 167.816 95.6613 167.732 95.598C167.649 95.5347 167.581 95.4529 167.534 95.3591C167.488 95.2653 167.463 95.1619 167.463 95.0571C167.306 90.1276 167.79 85.2243 167.071 80.3209C166.639 77.8612 166.369 75.3759 166.26 72.881C162.651 71.8741 159.147 69.7559 155.63 68.6053C149.579 66.4485 143.348 64.8381 137.01 63.7935C124.602 62.0936 111.591 62.329 99.0912 63.0743C87.0252 63.9908 75.0315 65.6898 63.1857 68.1607C54.1505 69.8867 44.88 71.8349 36.7078 76.1498C36.4724 83.3283 35.008 90.4676 33.7658 97.5414C33.6612 98.169 32.8113 98.156 32.5236 97.6983C29.0847 92.4681 21.5402 99.1889 20.3503 102.929C18.8597 107.701 18.402 114.814 21.3571 119.155C23.5015 122.306 27.398 123.3 26.9796 127.707C26.425 132.71 27.0658 137.774 28.8494 142.482C29.0847 143.11 28.3264 143.45 27.8426 143.253C20.5857 140.168 19.4219 131.211 18.9774 123.967C17.5521 126.974 17.1337 130.204 16.2707 133.499C16.2301 133.641 16.1444 133.766 16.0264 133.855C15.9084 133.944 15.7647 133.992 15.6169 133.992C15.4692 133.992 15.3254 133.944 15.2075 133.855C15.0895 133.766 15.0038 133.641 14.9632 133.499C12.7142 125.039 12.0081 116.893 15.5385 108.93C12.4043 110.787 9.72401 113.32 7.69317 116.344C7.34014 116.88 6.38562 116.71 6.38562 116.004C6.70107 108.964 9.01902 102.16 13.0672 96.3908C13.5118 95.7762 13.9564 95.1617 14.3748 94.5602C8.53001 100.196 3.01213 107.335 5.03884 121.836C5.03884 121.836 8.20312 115.507 12.505 113.69C12.505 113.69 3.67899 129.093 17.0422 140.416C16.8665 136.259 17.4788 132.107 18.8466 128.177C18.8466 128.177 17.7221 150.406 48.2796 152.864L139.991 156.721C139.991 156.721 171.7 159.886 178.721 132.257C178.966 135.358 178.812 138.478 178.264 141.541C178.264 141.541 193.209 131.355 184.605 109.846C184.605 109.846 188.685 113.481 189.822 116.632Z" fill="#9F3900"/>
</g>
<path d="M35.6619 104.824C35.6619 104.824 33.2953 99.9211 30.6802 99.5943C28.0651 99.2674 22.1418 102.052 21.305 109.479C20.4682 116.906 25.0577 122.123 28.9411 123.248C32.8245 124.372 34.6028 119.469 34.6028 119.469L35.6619 104.824Z" fill="#EFCAA6"/>
<path d="M29.2677 107.976C25.7765 106.354 24.6651 110.983 24.3121 113.99C24.3121 114.134 24.469 114.147 24.5082 113.99C24.9397 112.827 25.3058 111.597 25.8158 110.473C26.6526 108.525 28.4309 108.93 29.5161 110.041C29.9253 110.483 30.2768 110.976 30.5622 111.506C29.7873 111.799 29.1396 112.354 28.7316 113.075C28.1607 114.009 27.7869 115.051 27.6333 116.135C27.6272 116.151 27.6245 116.168 27.6252 116.186C27.6259 116.203 27.63 116.22 27.6373 116.236C27.6446 116.252 27.6549 116.266 27.6677 116.278C27.6804 116.289 27.6954 116.299 27.7117 116.305C27.728 116.311 27.7454 116.313 27.7627 116.313C27.7801 116.312 27.7972 116.308 27.813 116.301C27.8287 116.293 27.8429 116.283 27.8547 116.27C27.8665 116.258 27.8757 116.243 27.8817 116.226C28.3263 115.468 28.7055 114.657 29.1892 113.938C29.6537 113.299 30.3226 112.837 31.0852 112.63C31.6208 114.347 32.0573 116.094 32.3928 117.861C32.3928 117.93 32.4203 117.997 32.4693 118.046C32.5184 118.095 32.5849 118.122 32.6543 118.122C32.7236 118.122 32.7901 118.095 32.8392 118.046C32.8882 117.997 32.9158 117.93 32.9158 117.861C33.2165 114.278 32.4712 109.466 29.2677 107.976Z" fill="#C39368"/>
<path d="M162.311 103.098C162.311 103.098 165.528 98.8096 168.378 98.7573C171.229 98.705 177.243 102 177.152 108.995C177.104 111.842 176.075 114.585 174.238 116.76C172.401 118.935 169.869 120.41 167.071 120.933C162.73 121.535 161.487 116.802 161.487 116.802L162.311 103.098Z" fill="#EFCAA6"/>
<path d="M168.771 106.747C172.693 105.622 173.308 110.068 173.295 112.892C173.295 113.023 173.112 113.01 173.073 112.892C172.772 111.768 172.536 110.578 172.157 109.466C171.517 107.57 169.542 107.754 168.235 108.682C167.744 109.03 167.304 109.443 166.927 109.911C167.684 110.247 168.303 110.833 168.679 111.572C169.168 112.486 169.432 113.503 169.451 114.54C169.451 114.697 169.228 114.71 169.176 114.54C168.797 113.794 168.496 112.997 168.078 112.265C167.622 111.602 166.967 111.103 166.208 110.839C165.417 112.373 164.723 113.953 164.129 115.573C164.102 115.631 164.057 115.679 163.999 115.709C163.942 115.739 163.877 115.748 163.813 115.736C163.75 115.724 163.692 115.691 163.65 115.643C163.608 115.594 163.583 115.532 163.58 115.468C163.671 112.173 165.123 107.767 168.771 106.747Z" fill="#C39368"/>
<path d="M35.6096 78.3595C35.8538 88.1933 35.4169 98.0322 34.302 107.806C32.4845 120.476 25.2407 148.562 60.5708 164.03C95.9009 179.499 141.495 170.163 157.931 140.926C162.011 133.682 166.548 116.475 164.273 102.889C162.83 92.8451 162.226 82.6983 162.468 72.554C162.468 71.181 123.059 59.413 80.4848 68.919C37.9109 78.4249 35.6096 78.3595 35.6096 78.3595Z" fill="#F4D9BF"/>
<path d="M164.678 67.9515C161.056 56.8504 122.836 52.2609 101.497 53.4508C80.1577 54.6406 33.1119 62.486 34.2495 76.3199C34.2495 76.3199 35.5571 89.9054 37.6361 96.7046C37.6361 96.7046 44.893 80.8571 59.603 78.595C56.4195 81.334 53.8716 84.7341 52.1368 88.5586L90.4089 76.0976C90.4089 76.0976 85.6494 79.4972 84.0673 82.8969C84.0673 82.8969 111.461 80.1772 125.726 72.9333C125.726 72.9333 122.562 76.7775 121.202 78.3597C121.202 78.3597 131.388 76.5552 138.409 72.2534C138.409 72.2534 137.507 78.3597 151.485 87.421C152.014 84.0292 151.858 80.5658 151.027 77.2352C151.027 77.2352 158.729 89.4608 164.613 92.6381C164.678 92.6381 168.3 79.0396 164.678 67.9515Z" fill="#BE5000"/>
<path d="M100.255 3.46289C77.8435 3.46289 20.4942 23.8477 26.2082 82.4914C26.2082 82.4914 103.655 54.196 178.381 79.5494C178.381 79.5494 183.585 3.46289 100.255 3.46289ZM127.374 62.2374C102.242 59.74 72.4564 65.284 72.4564 65.284C72.4564 65.284 71.0442 36.3348 97.7706 34.2688C127.805 31.9806 127.374 62.2374 127.374 62.2374Z" fill="#FFAB05"/>
<path d="M53.7451 45.1214C55.5888 34.8963 59.5768 25.2074 66.9383 17.6628C71.3672 13.3201 76.3481 9.57894 81.7529 6.53552C55.9679 14.1324 21.8408 36.6092 26.2734 82.4913C34.7625 79.602 43.4219 77.2396 52.2022 75.4174C51.5978 65.2928 52.1152 55.1323 53.7451 45.1214Z" fill="#687100"/>
<path d="M112.206 4.03821C117.454 5.8851 122.385 8.5314 126.824 11.8835C134.879 17.846 140.188 26.5804 144.071 35.6941C148.517 46.1545 150.609 57.844 151.707 69.1151C151.825 70.305 151.929 71.508 152.021 72.6978C160.959 74.3559 169.767 76.6455 178.381 79.5494C178.381 79.5494 183.062 10.9682 112.206 4.03821Z" fill="#687100"/>
<path d="M93.9132 61.7143C93.9132 61.7143 101.392 58.8376 106.989 61.2174L107.499 68.6835C107.499 68.6835 102.412 71.7432 94.5931 69.1935L93.9132 61.7143Z" fill="#FFDE05"/>
<g style="mix-blend-mode:screen" opacity="0.3">
<path d="M43.0756 35.7724C53.8689 38.3134 64.8268 40.096 75.869 41.1072L80.8769 41.5125C84.6165 37.7337 90.0298 34.8571 97.7705 34.2687C108.989 33.4057 115.959 37.093 120.287 42.114C128.561 41.6324 136.8 40.6631 144.96 39.2112C152.256 37.9037 159.552 36.4 166.822 34.7656C156.467 18.2642 136.945 3.51501 100.255 3.51501C85.558 3.51501 55.8765 12.2887 38.7999 34.8963L43.0756 35.7724Z" fill="#FCFF93"/>
</g>
<path d="M122.117 111.911C122.196 116.187 120.967 119.757 119.371 119.757C117.776 119.757 116.403 116.435 116.338 112.16C116.272 107.884 117.488 104.314 119.084 104.314C120.679 104.314 122.039 107.649 122.117 111.911Z" fill="#3D1A0B"/>
<path d="M118.744 108.839C118.744 110.146 118.234 111.166 117.763 111.14C117.292 111.114 116.939 110.055 117.005 108.76C117.07 107.466 117.515 106.433 117.998 106.459C118.482 106.485 118.822 107.557 118.744 108.839Z" fill="white"/>
<path d="M75.2151 111.78C74.9667 116.03 73.4761 119.456 71.8809 119.417C70.2857 119.377 69.1742 115.873 69.4357 111.571C69.6973 107.269 71.1879 103.883 72.7831 103.935C74.3783 103.987 75.4374 107.505 75.2151 111.78Z" fill="#3D1A0B"/>
<path d="M72.0639 108.446C71.8939 109.754 71.3709 110.708 70.9002 110.669C70.4295 110.63 70.168 109.518 70.338 108.224C70.5079 106.929 71.0179 105.949 71.5017 106.014C71.9855 106.08 72.2339 107.165 72.0639 108.446Z" fill="white"/>
<path d="M69.9852 130.479C69.5537 132.859 64.3889 133.839 58.4134 132.689C52.4378 131.538 47.9529 128.661 48.3583 126.295C48.7636 123.928 53.9677 122.921 59.9432 124.085C65.9187 125.249 70.4298 128.164 69.9852 130.479Z" fill="#F9CBC0"/>
<path d="M149.144 131.603C149.249 134.009 144.411 136.114 138.331 136.297C132.251 136.48 127.243 134.676 127.125 132.257C127.007 129.838 131.858 127.746 137.925 127.563C143.992 127.38 149.027 129.171 149.144 131.603Z" fill="#F9CBC0"/>
<path d="M88.8138 135.539C88.601 134.909 88.6289 134.222 88.8921 133.611C89.1552 133.001 89.635 132.509 90.239 132.231C91.4741 131.773 92.807 131.645 94.1067 131.858C95.4065 132.071 96.6285 132.619 97.6528 133.447C97.6897 133.386 97.7092 133.315 97.7092 133.244C97.7092 133.173 97.6897 133.103 97.6528 133.041C96.4669 131.884 94.9891 131.071 93.3771 130.688C93.9394 129.263 93.3771 128.164 92.5534 126.909C92.4226 126.687 91.4289 125.889 91.5204 126.164C91.8211 127.144 92.1872 129.328 91.4027 130.086C91.2954 130.198 91.207 130.326 91.1412 130.466C90.0323 130.474 88.9694 130.91 88.1731 131.682C85.8064 134.114 88.6568 138.337 91.4158 138.886C91.462 138.904 91.5134 138.904 91.5596 138.886C90.2513 138.161 89.2692 136.964 88.8138 135.539Z" fill="#C39368"/>
<path d="M87.5584 84.7142C87.5584 84.5704 87.31 84.7142 87.2969 84.8319C86.6431 89.3691 75.2936 89.3691 72.077 90.5459C68.0261 91.8512 64.6291 94.6587 62.5842 98.3912C62.1657 99.1757 62.8195 99.9603 63.6171 99.3457C65.9793 97.4299 68.5548 95.7934 71.2925 94.4685C74.8621 92.8079 79.3078 92.5987 83.0604 91.4089C86.2509 90.402 88.8921 88.2838 87.5584 84.7142Z" fill="#853800"/>
<path d="M134.212 96.9137C131.822 93.811 128.446 91.6157 124.641 90.6898C119.411 89.0946 106.008 89.3038 109.199 80.4124C109.199 80.2816 109.081 80.2816 109.029 80.4124C107.368 83.1713 105.381 88.7415 109.029 90.4675C112.677 92.1934 117.332 92.285 121.28 93.1741C125.661 94.1548 129.505 95.2793 133.048 97.9205C133.611 98.2605 134.578 97.4367 134.212 96.9137Z" fill="#853800"/>
<path d="M124.314 117.73C122.877 117.942 121.475 118.342 120.143 118.92C118.561 119.535 117.214 120.751 115.606 121.26C115.514 121.26 115.436 121.483 115.606 121.457C116.827 121.125 118.017 120.687 119.162 120.149C120.81 119.548 122.536 119.26 124.209 118.737C124.654 118.593 125.072 117.652 124.314 117.73Z" fill="#C39368"/>
<path d="M73.2144 120.11C72.3719 119.44 71.4087 118.938 70.3771 118.632C69.7887 118.41 69.1741 118.24 68.5726 118.044C68.343 117.956 68.1069 117.886 67.8666 117.834C67.8023 117.817 67.7347 117.817 67.6704 117.834H67.4743C67.3958 117.834 67.3043 117.926 67.3828 117.978C69.1218 118.972 70.7301 120.162 72.613 121.025C72.9529 121.195 73.5806 120.45 73.2144 120.11Z" fill="#C39368"/>
<path d="M134.591 134.087C135.546 128.857 131.401 123.719 128.053 119.377C128.009 122.734 128.202 126.09 128.629 129.419C128.724 130.796 129.028 132.149 129.531 133.434C130.381 135.303 133.977 137.435 134.591 134.087Z" fill="#80CFF5"/>
<path d="M131.963 132.165C132.395 129.838 130.525 127.497 128.995 125.536C128.977 127.053 129.065 128.569 129.257 130.073C129.299 130.692 129.436 131.3 129.662 131.878C130.133 132.714 131.689 133.682 131.963 132.165Z" fill="#DFF2FD"/>
<path d="M115.109 144.862C114.272 144.626 113.461 144.404 112.69 144.234C104.635 142.364 94.1879 143.371 86.4472 146.156C81.5961 147.895 71.3972 150.445 68.4422 155.309C68.2839 155.571 68.1608 155.852 68.076 156.146C67.9485 156.384 67.8727 156.647 67.8538 156.917C70.0897 154.655 73.4239 153.282 76.2613 152.197C82.5808 149.744 89.2494 148.31 96.0185 147.947C102.844 147.594 109.918 147.608 116.429 149.935C119.138 150.773 121.669 152.103 123.896 153.858C122.889 148.863 119.267 146.666 115.109 144.862Z" fill="#C39368"/>
<path d="M124.065 154.682C124.037 155.081 123.962 155.476 123.843 155.858C123.642 156.388 123.32 156.862 122.902 157.244C122.484 157.625 121.982 157.903 121.437 158.055C119.11 158.84 116.429 158.251 114.115 157.689C112.938 157.388 111.787 157.009 110.624 156.669C105.577 155.139 100.046 153.766 94.737 154.315C89.4311 154.978 84.185 156.054 79.0463 157.532C76.5881 158.186 71.2925 160.343 69.4227 157.532C67.0822 153.989 76.222 150.68 78.0787 149.817C87.8462 145.346 99.4965 142.338 110.192 144.849C114.416 145.842 121.058 147.464 123.529 151.387C124.001 152.417 124.186 153.555 124.065 154.682Z" fill="#930323"/>
<path d="M91.0889 148.784C94.3847 148.095 97.7546 147.827 101.118 147.987C103.851 148.248 114.873 150.092 117.162 146.888C114.901 146.057 112.585 145.385 110.232 144.875C100.203 142.521 89.3107 145.019 79.9617 149.033C82.9298 150.445 88.8792 149.085 91.0889 148.784Z" fill="white"/>
<path d="M100.386 150.903C92.9327 150.628 81.8316 152.21 76.4053 158.316C77.4252 158.029 78.3797 157.715 79.0858 157.532C84.2245 156.054 89.4706 154.978 94.7764 154.315C100.085 153.766 105.616 155.139 110.663 156.669C111.827 157.009 112.978 157.388 114.154 157.689L115.933 158.094C111.578 154.08 106.283 151.112 100.386 150.903Z" fill="#F08394"/>
</g>
<defs>
<filter id="filter0_d_0_221" x="0.611084" y="0.209106" width="216.389" height="179.212" filterUnits="userSpaceOnUse" color-interpolation-filters="sRGB">
<feFlood flood-opacity="0" result="BackgroundImageFix"/>
<feColorMatrix in="SourceAlpha" type="matrix" values="0 0 0 0 0 0 0 0 0 0 0 0 0 0 0 0 0 0 127 0" result="hardAlpha"/>
<feOffset dy="4"/>
<feGaussianBlur stdDeviation="2"/>
<feComposite in2="hardAlpha" operator="out"/>
<feColorMatrix type="matrix" values="0 0 0 0 0 0 0 0 0 0 0 0 0 0 0 0 0 0 0.25 0"/>
<feBlend mode="normal" in2="BackgroundImageFix" result="effect1_dropShadow_0_221"/>
<feBlend mode="normal" in="SourceGraphic" in2="effect1_dropShadow_0_221" result="shape"/>
</filter>
</defs>
</svg>
