<svg width="49" height="48" viewBox="0 0 49 48" fill="none" xmlns="http://www.w3.org/2000/svg">
    <path opacity="0.1" d="M24.4206 45.0041C32.1982 45.0041 38.5033 43.9213 38.5033 42.5855C38.5033 41.2497 32.1982 40.1668 24.4206 40.1668C16.6429 40.1668 10.3379 41.2497 10.3379 42.5855C10.3379 43.9213 16.6429 45.0041 24.4206 45.0041Z" fill="black"/>
    <path d="M24.506 0C27.8557 0 32.4729 11.6618 32.985 11.9784C33.4971 12.2951 45.898 13.7852 46.9229 16.1808C47.9479 18.5765 38.4131 27.2445 38.1767 27.8342C37.9403 28.424 40.3244 40.7489 38.3623 42.3621C36.4002 43.9753 25.1898 37.6671 24.506 37.6633C23.8222 37.6594 13.0638 44.012 10.6497 42.3621C8.23559 40.7122 11.0101 28.5012 10.8353 27.8342C10.6605 27.1672 0.998656 19.3522 2.0852 16.1808C3.17174 13.0095 15.5819 12.3066 16.0277 11.9784C16.4736 11.6503 21.1563 0 24.506 0Z" fill="#FFBD39"/>
    <g filter="url(#filter0_d_67_205)">
        <path d="M24.506 1.44785C27.6278 1.44785 31.7222 12.7348 32.1988 13.0301C32.6755 13.3253 44.4426 14.2968 45.4036 16.5295C46.3647 18.7623 37.2573 26.6339 37.037 27.1832C36.8168 27.7324 39.2486 39.4286 37.4221 40.9324C35.5955 42.4362 25.1436 36.3483 24.5068 36.3429C23.8699 36.3376 13.8416 42.4622 11.5907 40.9324C9.33985 39.4025 12.3477 28.0131 12.1844 27.3935C12.0212 26.7739 2.5919 19.4867 3.60836 16.5295C4.62483 13.5724 16.6076 13.336 17.0234 13.0301C17.4392 12.7241 21.3834 1.44785 24.506 1.44785Z" fill="url(#paint0_linear_67_205)"/>
    </g>
    <path d="M6.34044 17.0766C6.12328 14.9739 13.0676 13.7363 13.3749 16.197C13.6821 18.6577 6.63691 19.9419 6.34044 17.0766Z" fill="white"/>
    <path d="M15.1528 15.5054C15.1005 14.153 17.1765 14.0712 17.2851 15.1803C17.406 16.4233 15.2013 16.7713 15.1528 15.5054Z" fill="white"/>
    <g opacity="0.6">
        <g opacity="0.6">
            <path d="M18.2476 26.8054C18.2476 28.1738 17.0386 29.2829 15.5463 29.2829C14.0539 29.2829 12.8457 28.1738 12.8457 26.8054C12.8457 25.437 14.0547 24.3286 15.5463 24.3286C17.0379 24.3286 18.2476 25.4378 18.2476 26.8054Z" fill="#FF5F82"/>
        </g>
        <g opacity="0.6">
            <path d="M36.7007 26.8054C36.7007 28.1739 35.4918 29.283 34.0002 29.283C32.5086 29.283 31.2988 28.1739 31.2988 26.8054C31.2988 25.437 32.5078 24.3287 34.0002 24.3287C35.4925 24.3287 36.7007 25.4378 36.7007 26.8054Z" fill="#FF5F82"/>
        </g>
    </g>
    <path d="M27.9743 29.289C28.5464 28.3321 27.7202 27.5925 27.1765 28.4813C26.1231 30.2054 23.3263 30.0616 22.2551 28.4813C21.6799 27.6315 20.9399 28.2778 21.4581 29.289C22.6833 31.6817 26.378 31.9601 27.9743 29.289Z" fill="#872A2A"/>
    <path d="M18.1481 16.6192C18.4454 15.8137 16.685 14.7704 14.5966 15.4205C13.1821 15.8596 11.9877 17.7658 12.3789 18.1268C12.7701 18.4878 13.1797 16.9488 15.0186 16.444C16.5972 16.0088 18.0164 16.9664 18.1481 16.6192Z" fill="#541300"/>
    <path d="M30.8581 16.6192C30.5608 15.8137 32.3212 14.7704 34.4096 15.4205C35.8241 15.8596 37.0185 17.7658 36.6273 18.1268C36.2361 18.4878 35.8265 16.9488 33.9876 16.444C32.409 16.0088 30.9867 16.9664 30.8581 16.6192Z" fill="#541300"/>
    <path d="M13.8698 24.3485C13.1767 23.7679 14.2063 21.4556 16.9561 21.4556C19.706 21.4556 20.6809 23.7297 20.1134 24.3485C19.619 24.8839 19.013 23.2294 17.0262 23.2294C15.0395 23.2294 14.4535 24.8388 13.8698 24.3485Z" fill="#541300"/>
    <path d="M29.1055 24.3485C28.4125 23.7679 29.4428 21.4556 32.1927 21.4556C34.9425 21.4556 35.9174 23.7297 35.346 24.3485C34.8524 24.8839 34.2464 23.2294 32.2597 23.2294C30.2729 23.2294 29.6869 24.8388 29.1055 24.3485Z" fill="#541300"/>
    <defs>
        <filter id="filter0_d_67_205" x="0.531738" y="1.44785" width="47.9429" height="45.7299" filterUnits="userSpaceOnUse" color-interpolation-filters="sRGB">
            <feFlood flood-opacity="0" result="BackgroundImageFix"/>
            <feColorMatrix in="SourceAlpha" type="matrix" values="0 0 0 0 0 0 0 0 0 0 0 0 0 0 0 0 0 0 127 0" result="hardAlpha"/>
            <feOffset dy="3"/>
            <feGaussianBlur stdDeviation="1.5"/>
            <feComposite in2="hardAlpha" operator="out"/>
            <feColorMatrix type="matrix" values="0 0 0 0 0 0 0 0 0 0 0 0 0 0 0 0 0 0 0.41 0"/>
            <feBlend mode="normal" in2="BackgroundImageFix" result="effect1_dropShadow_67_205"/>
            <feBlend mode="normal" in="SourceGraphic" in2="effect1_dropShadow_67_205" result="shape"/>
        </filter>
        <linearGradient id="paint0_linear_67_205" x1="14.0649" y1="11.5102" x2="38.5132" y2="41.0751" gradientUnits="userSpaceOnUse">
            <stop offset="0.04" stop-color="#FFF466"/>
            <stop offset="0.08" stop-color="#FFF466"/>
            <stop offset="0.32" stop-color="#FFEC5F"/>
            <stop offset="0.69" stop-color="#FFD54D"/>
            <stop offset="0.86" stop-color="#FFC943"/>
        </linearGradient>
    </defs>
</svg>
