<svg width="95" height="48" viewBox="0 0 95 48" fill="none" xmlns="http://www.w3.org/2000/svg">
<g filter="url(#filter0_d_0_604)">
<path d="M83.1525 37H30V13H83.1525C87.4883 13 91 18.3718 91 25C91 31.6282 87.4883 37 83.1525 37Z" fill="#FFBD39"/>
</g>
<path opacity="0.1" d="M24.4203 45.0041C32.198 45.0041 38.503 43.9213 38.503 42.5855C38.503 41.2497 32.198 40.1668 24.4203 40.1668C16.6427 40.1668 10.3376 41.2497 10.3376 42.5855C10.3376 43.9213 16.6427 45.0041 24.4203 45.0041Z" fill="black"/>
<path d="M24.506 0C27.8557 0 32.4729 11.6618 32.985 11.9784C33.4971 12.2951 45.898 13.7852 46.9229 16.1808C47.9479 18.5765 38.4131 27.2445 38.1767 27.8342C37.9403 28.424 40.3244 40.7489 38.3623 42.3621C36.4002 43.9753 25.1898 37.6671 24.506 37.6633C23.8222 37.6594 13.0638 44.012 10.6497 42.3621C8.23559 40.7122 11.0101 28.5012 10.8353 27.8342C10.6605 27.1672 0.998656 19.3522 2.0852 16.1808C3.17174 13.0095 15.5819 12.3066 16.0277 11.9784C16.4736 11.6503 21.1563 0 24.506 0Z" fill="#FFBD39"/>
<g filter="url(#filter1_d_0_604)">
<path d="M24.5058 1.44788C27.6275 1.44788 31.7219 12.7348 32.1986 13.0301C32.6752 13.3254 44.4424 14.2968 45.4034 16.5296C46.3644 18.7623 37.257 26.634 37.0368 27.1832C36.8166 27.7324 39.2484 39.4286 37.4218 40.9324C35.5953 42.4362 25.1434 36.3483 24.5065 36.3429C23.8697 36.3376 13.8413 42.4622 11.5905 40.9324C9.33961 39.4026 12.3474 28.0131 12.1842 27.3935C12.0209 26.774 2.59165 19.4867 3.60812 16.5296C4.62459 13.5724 16.6074 13.3361 17.0232 13.0301C17.439 12.7241 21.3832 1.44788 24.5058 1.44788Z" fill="url(#paint0_linear_0_604)"/>
</g>
<path d="M6.34044 17.0766C6.12328 14.9739 13.0676 13.7363 13.3749 16.197C13.6821 18.6577 6.63691 19.9419 6.34044 17.0766Z" fill="white"/>
<path d="M15.1528 15.5054C15.1005 14.153 17.1765 14.0712 17.2851 15.1803C17.406 16.4232 15.2013 16.7713 15.1528 15.5054Z" fill="white"/>
<g opacity="0.6">
<g opacity="0.6">
<path d="M18.2477 26.8054C18.2477 28.1738 17.0388 29.2829 15.5464 29.2829C14.054 29.2829 12.8458 28.1738 12.8458 26.8054C12.8458 25.437 14.0548 24.3286 15.5464 24.3286C17.038 24.3286 18.2477 25.4377 18.2477 26.8054Z" fill="#FF5F82"/>
</g>
<g opacity="0.6">
<path d="M36.7011 26.8054C36.7011 28.1738 35.4921 29.2829 34.0005 29.2829C32.5089 29.2829 31.2992 28.1738 31.2992 26.8054C31.2992 25.437 32.5082 24.3286 34.0005 24.3286C35.4929 24.3286 36.7011 25.4377 36.7011 26.8054Z" fill="#FF5F82"/>
</g>
</g>
<path d="M27.974 29.289C28.5462 28.3321 27.7199 27.5924 27.1763 28.4813C26.1228 30.2054 23.326 30.0616 22.2549 28.4813C21.6796 27.6315 20.9396 28.2778 21.4579 29.289C22.683 31.6816 26.3777 31.9601 27.974 29.289Z" fill="#872A2A"/>
<path d="M18.1482 16.6191C18.4455 15.8137 16.6851 14.7703 14.5968 15.4205C13.1822 15.8596 11.9878 17.7657 12.379 18.1268C12.7702 18.4878 13.1799 16.9488 15.0187 16.444C16.5974 16.0087 18.0166 16.9664 18.1482 16.6191Z" fill="#541300"/>
<path d="M30.858 16.6191C30.5607 15.8137 32.3211 14.7703 34.4094 15.4205C35.824 15.8596 37.0184 17.7657 36.6272 18.1268C36.236 18.4878 35.8263 16.9488 33.9874 16.444C32.4088 16.0087 30.9866 16.9664 30.858 16.6191Z" fill="#541300"/>
<path d="M13.8698 24.3484C13.1767 23.7679 14.2063 21.4556 16.9561 21.4556C19.706 21.4556 20.6809 23.7296 20.1134 24.3484C19.619 24.8839 19.013 23.2294 17.0262 23.2294C15.0395 23.2294 14.4535 24.8388 13.8698 24.3484Z" fill="#541300"/>
<path d="M29.1054 24.3484C28.4124 23.7679 29.4427 21.4556 32.1926 21.4556C34.9424 21.4556 35.9173 23.7296 35.3459 24.3484C34.8523 24.8839 34.2463 23.2294 32.2596 23.2294C30.2728 23.2294 29.6868 24.8388 29.1054 24.3484Z" fill="#541300"/>
<defs>
<filter id="filter0_d_0_604" x="26" y="13" width="69" height="32" filterUnits="userSpaceOnUse" color-interpolation-filters="sRGB">
<feFlood flood-opacity="0" result="BackgroundImageFix"/>
<feColorMatrix in="SourceAlpha" type="matrix" values="0 0 0 0 0 0 0 0 0 0 0 0 0 0 0 0 0 0 127 0" result="hardAlpha"/>
<feOffset dy="4"/>
<feGaussianBlur stdDeviation="2"/>
<feComposite in2="hardAlpha" operator="out"/>
<feColorMatrix type="matrix" values="0 0 0 0 0 0 0 0 0 0 0 0 0 0 0 0 0 0 0.25 0"/>
<feBlend mode="normal" in2="BackgroundImageFix" result="effect1_dropShadow_0_604"/>
<feBlend mode="normal" in="SourceGraphic" in2="effect1_dropShadow_0_604" result="shape"/>
</filter>
<filter id="filter1_d_0_604" x="0.531494" y="1.44788" width="47.9429" height="45.7299" filterUnits="userSpaceOnUse" color-interpolation-filters="sRGB">
<feFlood flood-opacity="0" result="BackgroundImageFix"/>
<feColorMatrix in="SourceAlpha" type="matrix" values="0 0 0 0 0 0 0 0 0 0 0 0 0 0 0 0 0 0 127 0" result="hardAlpha"/>
<feOffset dy="3"/>
<feGaussianBlur stdDeviation="1.5"/>
<feComposite in2="hardAlpha" operator="out"/>
<feColorMatrix type="matrix" values="0 0 0 0 0 0 0 0 0 0 0 0 0 0 0 0 0 0 0.41 0"/>
<feBlend mode="normal" in2="BackgroundImageFix" result="effect1_dropShadow_0_604"/>
<feBlend mode="normal" in="SourceGraphic" in2="effect1_dropShadow_0_604" result="shape"/>
</filter>
<linearGradient id="paint0_linear_0_604" x1="14.0646" y1="11.5102" x2="38.513" y2="41.0752" gradientUnits="userSpaceOnUse">
<stop offset="0.04" stop-color="#FFF466"/>
<stop offset="0.08" stop-color="#FFF466"/>
<stop offset="0.32" stop-color="#FFEC5F"/>
<stop offset="0.69" stop-color="#FFD54D"/>
<stop offset="0.86" stop-color="#FFC943"/>
</linearGradient>
</defs>
</svg>
